SplineFontDB: 3.2
FontName: Inconsolata-SemiCondensedBold
FullName: Inconsolata Semi Condensed Bold
FamilyName: Inconsolata Semi Condensed Bold
Weight: Bold
Copyright: Copyright 2006 The Inconsolata Project Authors (https://github.com/cyrealtype/Inconsolata)
Version: 3.000; ttfautohint (v1.8.3)
ItalicAngle: 0
UnderlinePosition: -297
UnderlineWidth: 102
Ascent: 1802
Descent: 246
InvalidEm: 0
sfntRevision: 0x00030000
LayerCount: 2
Layer: 0 1 "Back" 1
Layer: 1 1 "Fore" 0
XUID: [1021 203 1601712395 28007]
StyleMap: 0x0040
FSType: 0
OS2Version: 4
OS2_WeightWidthSlopeOnly: 0
OS2_UseTypoMetrics: 1
CreationTime: 1576097233
ModificationTime: 1732392375
PfmFamily: 81
TTFWeight: 700
TTFWidth: 4
LineGap: 0
VLineGap: 0
Panose: 0 0 0 0 0 0 0 0 0 0
OS2TypoAscent: 1759
OS2TypoAOffset: 0
OS2TypoDescent: -389
OS2TypoDOffset: 0
OS2TypoLinegap: 0
OS2WinAscent: 2056
OS2WinAOffset: 0
OS2WinDescent: 930
OS2WinDOffset: 0
HheadAscent: 1759
HheadAOffset: 0
HheadDescent: -389
HheadDOffset: 0
OS2SubXSize: 1331
OS2SubYSize: 1229
OS2SubXOff: 0
OS2SubYOff: 154
OS2SupXSize: 1331
OS2SupYSize: 1229
OS2SupXOff: 0
OS2SupYOff: 717
OS2StrikeYSize: 102
OS2StrikeYPos: 571
OS2CapHeight: 1276
OS2XHeight: 952
OS2Vendor: 'CYRE'
OS2CodePages: 60000193.cdd40000
OS2UnicodeRanges: a00000ff.0000f9eb.00000020.00000000
Lookup: 1 0 0 "'aalt' Access All Alternates in Latin lookup 0" { "'aalt' Access All Alternates in Latin lookup 0 subtable"  } ['aalt' ('DFLT' <'dflt' > 'latn' <'AZE ' 'CAT ' 'CRT ' 'KAZ ' 'MOL ' 'ROM ' 'TAT ' 'TRK ' 'dflt' > ) ]
Lookup: 3 0 0 "'aalt' Access All Alternates in Latin lookup 1" { "'aalt' Access All Alternates in Latin lookup 1 subtable"  } ['aalt' ('DFLT' <'dflt' > 'latn' <'AZE ' 'CAT ' 'CRT ' 'KAZ ' 'MOL ' 'ROM ' 'TAT ' 'TRK ' 'dflt' > ) ]

StartChar: A
Encoding: 65 65 1
Width: 889
VWidth: 2424
GlyphClass: 2
Flags: HW
AnchorPoint: "Anchor-3" 674 0 basechar 0
AnchorPoint: "Anchor-2" 440 0 basechar 0
AnchorPoint: "Anchor-0" 440 1511 basechar 0
LayerCount: 2
Fore
SplineSet
440 1009 m 1,0,-1
 337 543 l 1,1,-1
 540 543 l 1,2,-1
 440 1009 l 1,0,-1
656 0 m 1,3,-1
 580 356 l 1,4,-1
 297 356 l 1,5,-1
 220 0 l 1,6,-1
 11 0 l 1,7,-1
 388 1525 l 1,8,-1
 494 1525 l 1,9,-1
 869 0 l 1,10,-1
 656 0 l 1,3,-1
EndSplineSet
Substitution2: "Single Substitution lookup 29 subtable" ordfeminine
Substitution2: "'aalt' Access All Alternates in Latin lookup 0 subtable" ordfeminine
EndChar

StartChar: AE
Encoding: 198 198 26
Width: 834
VWidth: 2424
GlyphClass: 1
Flags: HW
LayerCount: 2
Fore
SplineSet
276 601 m 1,0,-1
 385 601 l 1,1,-1
 399 1226 l 1,2,-1
 395 1226 l 1,3,-1
 276 601 l 1,0,-1
-26 0 m 1,4,-1
 306 1511 l 1,5,-1
 832 1511 l 1,6,-1
 832 1297 l 1,7,-1
 568 1297 l 1,8,-1
 568 895 l 1,9,-1
 789 895 l 1,10,-1
 789 678 l 1,11,-1
 568 678 l 1,12,-1
 568 213 l 1,13,-1
 827 213 l 1,14,-1
 827 0 l 1,15,-1
 385 0 l 1,16,-1
 385 386 l 1,17,-1
 240 386 l 1,18,-1
 163 0 l 1,19,-1
 -26 0 l 1,4,-1
EndSplineSet
EndChar

StartChar: B
Encoding: 66 66 28
Width: 922
VWidth: 2424
GlyphClass: 2
Flags: HW
AnchorPoint: "Anchor-2" 452 0 basechar 0
AnchorPoint: "Anchor-0" 452 1511 basechar 0
LayerCount: 2
Fore
SplineSet
261 218 m 1,0,-1
 428 218 l 2,1,2
 531 218 531 218 590.5 274 c 128,-1,3
 650 330 650 330 650 442 c 0,4,5
 650 556 650 556 593 625 c 128,-1,6
 536 694 536 694 398 694 c 2,7,-1
 261 694 l 1,8,-1
 261 218 l 1,0,-1
261 907 m 1,9,-1
 390 907 l 2,10,11
 518 907 518 907 564 962.5 c 128,-1,12
 610 1018 610 1018 610 1108 c 0,13,14
 610 1193 610 1193 563 1244 c 128,-1,15
 516 1295 516 1295 410 1295 c 2,16,-1
 261 1295 l 1,17,-1
 261 907 l 1,9,-1
32 0 m 1,18,-1
 32 1511 l 1,19,-1
 408 1511 l 2,20,21
 622 1511 622 1511 732 1410 c 128,-1,22
 842 1309 842 1309 842 1132 c 0,23,24
 842 1023 842 1023 796.5 932.5 c 128,-1,25
 751 842 751 842 665 805 c 1,26,27
 766 756 766 756 828 657 c 128,-1,28
 890 558 890 558 890 434 c 0,29,30
 890 233 890 233 769 116.5 c 128,-1,31
 648 0 648 0 406 0 c 2,32,-1
 32 0 l 1,18,-1
EndSplineSet
EndChar

StartChar: C
Encoding: 67 67 29
Width: 922
VWidth: 2424
GlyphClass: 2
Flags: HW
AnchorPoint: "Anchor-2" 497 0 basechar 0
AnchorPoint: "Anchor-0" 489 1511 basechar 0
LayerCount: 2
Fore
SplineSet
508 -27 m 0,0,1
 378 -27 378 -27 270 52 c 128,-1,2
 162 131 162 131 97 301.5 c 128,-1,3
 32 472 32 472 32 747 c 0,4,5
 32 975 32 975 75.5 1126 c 128,-1,6
 119 1277 119 1277 191.5 1366 c 128,-1,7
 264 1455 264 1455 348.5 1492 c 128,-1,8
 433 1529 433 1529 516 1529 c 0,9,10
 652 1529 652 1529 745.5 1457.5 c 128,-1,11
 839 1386 839 1386 890 1258 c 1,12,-1
 758 1118 l 1,13,-1
 743 1103 l 1,14,-1
 730 1120 l 1,15,16
 732 1137 732 1137 729 1157.5 c 128,-1,17
 726 1178 726 1178 708 1212 c 1,18,19
 668 1270 668 1270 623 1292 c 128,-1,20
 578 1314 578 1314 529 1314 c 0,21,22
 456 1314 456 1314 392.5 1253.5 c 128,-1,23
 329 1193 329 1193 291 1070.5 c 128,-1,24
 253 948 253 948 253 759 c 0,25,26
 253 483 253 483 328.5 338.5 c 128,-1,27
 404 194 404 194 518 194 c 0,28,29
 654 194 654 194 732 356 c 1,30,-1
 874 208 l 1,31,32
 809 79 809 79 719 26 c 128,-1,33
 629 -27 629 -27 508 -27 c 0,0,1
EndSplineSet
EndChar

StartChar: D
Encoding: 68 68 36
Width: 922
VWidth: 2424
GlyphClass: 2
Flags: HW
AnchorPoint: "Anchor-4" 447 756 basechar 0
AnchorPoint: "Anchor-2" 438 0 basechar 0
AnchorPoint: "Anchor-0" 388 1511 basechar 0
LayerCount: 2
Fore
SplineSet
259 208 m 1,0,-1
 327 208 l 2,1,2
 510 208 510 208 587 351.5 c 128,-1,3
 664 495 664 495 664 740 c 0,4,5
 664 912 664 912 634.5 1036.5 c 128,-1,6
 605 1161 605 1161 537 1230.5 c 128,-1,7
 469 1300 469 1300 350 1300 c 2,8,-1
 259 1300 l 1,9,-1
 259 208 l 1,0,-1
32 -2 m 1,10,-1
 32 1511 l 1,11,-1
 352 1511 l 2,12,13
 516 1511 516 1511 607 1460 c 128,-1,14
 698 1409 698 1409 761 1307 c 0,15,16
 822 1205 822 1205 856 1066.5 c 128,-1,17
 890 928 890 928 890 747 c 0,18,19
 886 395 886 395 755 196.5 c 128,-1,20
 624 -2 624 -2 327 -2 c 2,21,-1
 32 -2 l 1,10,-1
EndSplineSet
EndChar

StartChar: Eth
Encoding: 208 208 37
Width: 919
VWidth: 2424
GlyphClass: 1
Flags: HW
LayerCount: 2
Fore
SplineSet
304 215 m 1,0,-1
 370 215 l 2,1,2
 530 215 530 215 605.5 348 c 128,-1,3
 681 481 681 481 681 740 c 0,4,5
 681 1002 681 1002 612.5 1143 c 128,-1,6
 544 1284 544 1284 386 1284 c 2,7,-1
 304 1284 l 1,8,-1
 304 904 l 1,9,-1
 470 904 l 1,10,-1
 470 694 l 1,11,-1
 304 694 l 1,12,-1
 304 215 l 1,0,-1
99 0 m 1,13,-1
 99 694 l 1,14,-1
 30 694 l 1,15,-1
 30 904 l 1,16,-1
 99 904 l 1,17,-1
 99 1511 l 1,18,-1
 392 1511 l 2,19,20
 505 1511 505 1511 586 1473 c 128,-1,21
 667 1435 667 1435 720 1375.5 c 128,-1,22
 773 1316 773 1316 804 1251 c 0,23,24
 843 1176 843 1176 865.5 1046 c 128,-1,25
 888 916 888 916 888 747 c 0,26,27
 888 384 888 384 766 192 c 128,-1,28
 644 0 644 0 372 0 c 2,29,-1
 99 0 l 1,13,-1
EndSplineSet
EndChar

StartChar: E
Encoding: 69 69 42
Width: 922
VWidth: 2424
GlyphClass: 2
Flags: HW
AnchorPoint: "Anchor-3" 803 14 basechar 0
AnchorPoint: "Anchor-2" 454 0 basechar 0
AnchorPoint: "Anchor-0" 486 1511 basechar 0
LayerCount: 2
Fore
SplineSet
32 0 m 1,0,-1
 32 1513 l 1,1,-1
 890 1513 l 1,2,-1
 890 1295 l 1,3,-1
 272 1295 l 1,4,-1
 272 897 l 1,5,-1
 778 897 l 1,6,-1
 778 678 l 1,7,-1
 272 678 l 1,8,-1
 272 215 l 1,9,-1
 885 215 l 1,10,-1
 885 0 l 1,11,-1
 32 0 l 1,0,-1
EndSplineSet
EndChar

StartChar: uni01B8
Encoding: 440 440 65
Width: 922
VWidth: 2424
GlyphClass: 1
Flags: HW
LayerCount: 2
Fore
SplineSet
497 -41 m 0,0,1
 357 -41 357 -41 251 19.5 c 128,-1,2
 145 80 145 80 88.5 184.5 c 128,-1,3
 32 289 32 289 32 419 c 0,4,5
 32 616 32 616 134 744 c 128,-1,6
 236 872 236 872 405 916 c 1,7,-1
 75 1312 l 1,8,-1
 75 1511 l 1,9,-1
 810 1511 l 1,10,-1
 810 1282 l 1,11,-1
 367 1282 l 1,12,-1
 643 933 l 1,13,-1
 643 722 l 1,14,15
 621.542372881 722.915254237 621.542372881 722.915254237 601.460212583 722.915254237 c 0,16,17
 424.06779661 722.915254237 424.06779661 722.915254237 354 651.5 c 0,18,19
 276 572 276 572 276 432 c 0,20,21
 276 307 276 307 346 246 c 128,-1,22
 416 185 416 185 516 185 c 0,23,24
 656 185 656 185 731 259 c 1,25,26
 752 291 752 291 758.5 306.5 c 128,-1,27
 765 322 765 322 763 342 c 1,28,-1
 777 359 l 1,29,-1
 794 344 l 1,30,-1
 890 141 l 1,31,32
 811 46 811 46 717 2.5 c 128,-1,33
 623 -41 623 -41 497 -41 c 0,0,1
EndSplineSet
EndChar

StartChar: F
Encoding: 70 70 66
Width: 910
VWidth: 2424
GlyphClass: 2
Flags: HW
AnchorPoint: "Anchor-2" 434 0 basechar 0
AnchorPoint: "Anchor-0" 434 1511 basechar 0
LayerCount: 2
Fore
SplineSet
32 0 m 1,0,-1
 32 1513 l 1,1,-1
 878 1513 l 1,2,-1
 878 1295 l 1,3,-1
 264 1295 l 1,4,-1
 264 921 l 1,5,-1
 761 921 l 1,6,-1
 761 706 l 1,7,-1
 264 706 l 1,8,-1
 264 0 l 1,9,-1
 32 0 l 1,0,-1
EndSplineSet
EndChar

StartChar: G
Encoding: 71 71 67
Width: 922
VWidth: 2424
GlyphClass: 2
Flags: HW
AnchorPoint: "Anchor-2" 491 0 basechar 0
AnchorPoint: "Anchor-0" 502 1511 basechar 0
LayerCount: 2
Fore
SplineSet
515 -27 m 0,0,1
 287 -27 287 -27 159.5 180.5 c 128,-1,2
 32 388 32 388 32 747 c 0,3,4
 32 987 32 987 80 1141 c 128,-1,5
 128 1295 128 1295 203 1381 c 128,-1,6
 278 1467 278 1467 361 1500.5 c 0,7,8
 439.323943662 1532.11267606 439.323943662 1532.11267606 505.180916485 1532.11267606 c 0,9,10
 509.112676056 1532.11267606 509.112676056 1532.11267606 513 1532 c 0,11,12
 633 1532 633 1532 733 1467 c 128,-1,13
 833 1402 833 1402 886 1284 c 1,14,-1
 763 1129 l 1,15,-1
 747 1110 l 1,16,-1
 733 1127 l 1,17,18
 733 1146 733 1146 728.5 1164.5 c 128,-1,19
 724 1183 724 1183 702 1217 c 0,20,21
 670 1261 670 1261 628 1287.5 c 128,-1,22
 586 1314 586 1314 519 1314 c 0,23,24
 448 1314 448 1314 387.5 1262 c 128,-1,25
 327 1210 327 1210 290.5 1092 c 128,-1,26
 254 974 254 974 254 773 c 0,27,28
 254 477 254 477 325.5 333 c 128,-1,29
 397 189 397 189 513 189 c 0,30,31
 560 189 560 189 604.5 204.5 c 128,-1,32
 649 220 649 220 688 259 c 1,33,-1
 688 555 l 1,34,-1
 498 555 l 1,35,-1
 498 773 l 1,36,-1
 890 773 l 1,37,-1
 890 129 l 1,38,39
 802 44 802 44 707.5 8.5 c 128,-1,40
 613 -27 613 -27 515 -27 c 0,0,1
EndSplineSet
EndChar

StartChar: H
Encoding: 72 72 74
Width: 922
VWidth: 2424
GlyphClass: 2
Flags: HW
AnchorPoint: "Anchor-4" 512 756 basechar 0
AnchorPoint: "Anchor-2" 512 0 basechar 0
AnchorPoint: "Anchor-0" 478 1511 basechar 0
LayerCount: 2
Fore
SplineSet
32 1511 m 1,0,-1
 285 1511 l 1,1,-1
 285 1488 l 1,2,3
 274 1474 274 1474 271 1457.5 c 128,-1,4
 268 1441 268 1441 268 1399 c 2,5,-1
 268 897 l 1,6,-1
 637 897 l 1,7,-1
 637 1511 l 1,8,-1
 890 1511 l 1,9,-1
 890 1488 l 1,10,11
 879 1474 879 1474 876 1457.5 c 128,-1,12
 873 1441 873 1441 873 1399 c 2,13,-1
 873 0 l 1,14,-1
 637 0 l 1,15,-1
 637 684 l 1,16,-1
 268 684 l 1,17,-1
 268 0 l 1,18,-1
 32 0 l 1,19,-1
 32 1511 l 1,0,-1
EndSplineSet
EndChar

StartChar: Hbar
Encoding: 294 294 75
Width: 856
VWidth: 2424
GlyphClass: 2
Flags: HW
AnchorPoint: "Anchor-4" 467 756 basechar 0
AnchorPoint: "Anchor-2" 467 0 basechar 0
AnchorPoint: "Anchor-0" 438 1511 basechar 0
LayerCount: 2
Fore
SplineSet
252 897 m 1,0,-1
 577 897 l 1,1,-1
 577 1171 l 1,2,-1
 252 1171 l 1,3,-1
 252 897 l 1,0,-1
-12 1171 m 1,4,-1
 -12 1379 l 1,5,-1
 45 1379 l 1,6,-1
 45 1511 l 1,7,-1
 268 1511 l 1,8,-1
 268 1488 l 1,9,10
 258 1474 258 1474 255 1457.5 c 128,-1,11
 252 1441 252 1441 252 1399 c 2,12,-1
 252 1379 l 1,13,-1
 577 1379 l 1,14,-1
 577 1511 l 1,15,-1
 799 1511 l 1,16,-1
 799 1488 l 1,17,18
 789 1474 789 1474 786.5 1457.5 c 128,-1,19
 784 1441 784 1441 784 1399 c 2,20,-1
 784 1379 l 1,21,-1
 846 1379 l 1,22,-1
 846 1171 l 1,23,-1
 784 1171 l 1,24,-1
 784 0 l 1,25,-1
 577 0 l 1,26,-1
 577 684 l 1,27,-1
 252 684 l 1,28,-1
 252 0 l 1,29,-1
 45 0 l 1,30,-1
 45 1171 l 1,31,-1
 -12 1171 l 1,4,-1
EndSplineSet
EndChar

StartChar: I
Encoding: 73 73 79
Width: 842
VWidth: 2424
GlyphClass: 2
Flags: HW
AnchorPoint: "Anchor-3" 655 0 basechar 0
AnchorPoint: "Anchor-2" 427 0 basechar 0
AnchorPoint: "Anchor-0" 416 1511 basechar 0
LayerCount: 2
Fore
SplineSet
32 0 m 1,0,-1
 32 215 l 1,1,-1
 296 215 l 1,2,-1
 296 1295 l 1,3,-1
 46 1295 l 1,4,-1
 46 1511 l 1,5,-1
 800 1511 l 1,6,-1
 800 1295 l 1,7,-1
 539 1295 l 1,8,-1
 539 213 l 1,9,-1
 810 213 l 1,10,-1
 810 0 l 1,11,-1
 32 0 l 1,0,-1
EndSplineSet
EndChar

StartChar: J
Encoding: 74 74 94
Width: 922
VWidth: 2424
GlyphClass: 2
Flags: HW
AnchorPoint: "Anchor-2" 402 0 basechar 0
AnchorPoint: "Anchor-0" 597 1511 basechar 0
LayerCount: 2
Fore
SplineSet
349 -34 m 0,0,1
 257 -34 257 -34 173.5 5 c 128,-1,2
 90 44 90 44 32 125 c 1,3,-1
 140 337 l 1,4,-1
 151 356 l 1,5,-1
 166 347 l 1,6,7
 172 328 172 328 178 307 c 128,-1,8
 184 286 184 286 207 257 c 1,9,10
 264 206 264 206 332 206 c 0,11,12
 407 206 407 206 445 283.5 c 128,-1,13
 483 361 483 361 483 532 c 2,14,-1
 483 1295 l 1,15,-1
 257 1295 l 1,16,-1
 257 1511 l 1,17,-1
 890 1511 l 1,18,-1
 890 1295 l 1,19,-1
 713 1295 l 1,20,-1
 713 514 l 2,21,22
 713.074766355 506.822429907 713.074766355 506.822429907 713.074766355 499.744082453 c 0,23,24
 713.074766355 317.476635514 713.074766355 317.476635514 663.5 201 c 0,25,26
 612 80 612 80 528.5 23 c 128,-1,27
 445 -34 445 -34 349 -34 c 0,0,1
EndSplineSet
EndChar

StartChar: K
Encoding: 75 75 96
Width: 960
VWidth: 2424
GlyphClass: 1
Flags: HW
LayerCount: 2
Fore
SplineSet
321 674 m 1,0,-1
 248 555 l 1,1,-1
 250 0 l 1,2,-1
 32 0 l 1,3,-1
 32 1511 l 1,4,-1
 267 1511 l 1,5,-1
 267 1488 l 1,6,7
 255 1474 255 1474 252.5 1457.5 c 128,-1,8
 250 1441 250 1441 250 1399 c 2,9,-1
 250 900 l 1,10,-1
 628 1522 l 1,11,12
 658 1517 658 1517 704 1514 c 128,-1,13
 750 1511 750 1511 775 1511 c 2,14,-1
 867 1511 l 1,15,-1
 475 868 l 1,16,-1
 890 0 l 1,17,-1
 643 -9 l 1,18,-1
 321 674 l 1,0,-1
EndSplineSet
EndChar

StartChar: uni0198
Encoding: 408 408 98
Width: 922
VWidth: 2424
GlyphClass: 1
Flags: HW
LayerCount: 2
Fore
SplineSet
32 1511 m 1,0,-1
 279 1511 l 1,1,-1
 279 1488 l 1,2,3
 268 1474 268 1474 265 1457.5 c 128,-1,4
 262 1441 262 1441 262 1399 c 2,5,-1
 262 941 l 1,6,7
 372 1156 372 1156 457.5 1283.5 c 128,-1,8
 543 1411 543 1411 618.5 1466.5 c 128,-1,9
 694 1522 694 1522 779 1522 c 0,10,11
 810 1522 810 1522 838 1516.5 c 128,-1,12
 866 1511 866 1511 882 1496 c 1,13,-1
 884 1247 l 1,14,-1
 884 1224 l 1,15,-1
 864 1224 l 1,16,17
 853 1238 853 1238 841 1251.5 c 128,-1,18
 829 1265 829 1265 799 1275 c 0,19,20
 793 1277 793 1277 775 1277 c 0,21,22
 734 1277 734 1277 688 1242 c 128,-1,23
 642 1207 642 1207 583 1125 c 128,-1,24
 524 1043 524 1043 444 897 c 1,25,-1
 890 2 l 1,26,-1
 640 -12 l 1,27,-1
 313 657 l 1,28,29
 287 608 287 608 262 553 c 1,30,-1
 262 0 l 1,31,-1
 32 0 l 1,32,-1
 32 1511 l 1,0,-1
EndSplineSet
EndChar

StartChar: L
Encoding: 76 76 99
Width: 922
VWidth: 2424
GlyphClass: 2
Flags: HW
AnchorPoint: "Anchor-4" 166 756 basechar 0
AnchorPoint: "Anchor-2" 447 0 basechar 0
AnchorPoint: "Anchor-1" 335 1120 basechar 0
AnchorPoint: "Anchor-0" 397 1511 basechar 0
LayerCount: 2
Fore
SplineSet
32 1511 m 1,0,-1
 304 1511 l 1,1,-1
 304 1488 l 1,2,3
 290 1474 290 1474 287.5 1457.5 c 128,-1,4
 285 1441 285 1441 285 1399 c 2,5,-1
 285 218 l 1,6,-1
 890 218 l 1,7,-1
 890 0 l 1,8,-1
 32 0 l 1,9,-1
 32 1511 l 1,0,-1
EndSplineSet
EndChar

StartChar: uni01C7
Encoding: 455 455 100
Width: 886
VWidth: 2338
GlyphClass: 1
Flags: HW
LayerCount: 2
Fore
SplineSet
32 141 m 1,0,-1
 32 1511 l 1,1,-1
 280 1511 l 1,2,3
 280 1496 280 1496 275.5 1492 c 128,-1,4
 271 1488 271 1488 267 1478.5 c 128,-1,5
 263 1469 263 1469 263 1433 c 2,6,-1
 263 334 l 1,7,-1
 500 334 l 1,8,-1
 500 141 l 1,9,-1
 32 141 l 1,0,-1
500 -246 m 0,10,11
 330 -246 330 -246 223 -110 c 1,12,-1
 359 59 l 1,13,14
 380 40 380 40 376.5 29.5 c 128,-1,15
 373 19 373 19 391 -2 c 0,16,17
 404 -19 404 -19 430 -37 c 128,-1,18
 456 -55 456 -55 498 -55 c 0,19,20
 563 -55 563 -55 594.5 18.5 c 128,-1,21
 626 92 626 92 626 262 c 2,22,-1
 626 1319 l 1,23,-1
 435 1319 l 1,24,-1
 435 1511 l 1,25,-1
 854 1511 l 1,26,-1
 854 239 l 2,27,28
 854 65 854 65 807 -41 c 128,-1,29
 760 -147 760 -147 679.5 -196.5 c 128,-1,30
 599 -246 599 -246 500 -246 c 0,10,11
EndSplineSet
EndChar

StartChar: Lcaron
Encoding: 317 317 102
Width: 922
VWidth: 2424
GlyphClass: 2
Flags: HW
AnchorPoint: "Anchor-4" 166 756 basechar 0
AnchorPoint: "Anchor-2" 447 0 basechar 0
AnchorPoint: "Anchor-1" 335 1120 basechar 0
AnchorPoint: "Anchor-0" 397 1511 basechar 0
LayerCount: 2
Fore
SplineSet
32 1511 m 1,0,-1
 304 1511 l 1,1,-1
 304 1488 l 1,2,3
 290 1474 290 1474 287.5 1457.5 c 128,-1,4
 285 1441 285 1441 285 1399 c 2,5,-1
 285 218 l 1,6,-1
 890 218 l 1,7,-1
 890 0 l 1,8,-1
 32 0 l 1,9,-1
 32 1511 l 1,0,-1
649 970 m 1,10,-1
 538 1060 l 1,11,12
 588 1111 588 1111 614 1161.5 c 128,-1,13
 640 1212 640 1212 640 1247 c 0,14,15
 640 1277 640 1277 619.5 1300.5 c 128,-1,16
 599 1324 599 1324 580 1351.5 c 128,-1,17
 561 1379 561 1379 561 1423 c 0,18,19
 561 1483 561 1483 601.5 1517.5 c 128,-1,20
 642 1552 642 1552 697 1552 c 0,21,22
 761 1552 761 1552 803 1502.5 c 128,-1,23
 845 1453 845 1453 845 1370 c 0,24,25
 844 1185 844 1185 649 970 c 1,10,-1
EndSplineSet
EndChar

StartChar: uni01C8
Encoding: 456 456 106
Width: 870
VWidth: 2352
GlyphClass: 1
Flags: HW
LayerCount: 2
Fore
SplineSet
433 -246 m 0,0,1
 362 -246 362 -246 298.5 -218.5 c 128,-1,2
 235 -191 235 -191 188 -138 c 1,3,-1
 323 56 l 1,4,5
 335.909090909 43.0909090909 335.909090909 43.0909090909 335.909090909 20.2520661157 c 0,0,0
 335.909090909 1.68181818182 335.909090909 1.68181818182 376 -26 c 0,7,8
 389 -32 389 -32 403.5 -36.5 c 128,-1,9
 418 -41 418 -41 438 -41 c 0,10,11
 499 -41 499 -41 543 11 c 128,-1,12
 587 63 587 63 587 187 c 2,13,-1
 587 980 l 1,14,-1
 383 980 l 1,15,-1
 383 1176 l 1,16,-1
 812 1176 l 1,17,-1
 812 195 l 2,18,19
 812 39 812 39 762 -58.5 c 128,-1,20
 712 -156 712 -156 626.5 -201 c 128,-1,21
 541 -246 541 -246 433 -246 c 0,0,1
32 145 m 1,22,-1
 32 1521 l 1,23,-1
 277 1521 l 1,24,25
 277 1499 277 1499 270.5 1486 c 128,-1,26
 264 1473 264 1473 264 1444 c 2,27,-1
 264 345 l 1,28,-1
 467 345 l 1,29,-1
 467 145 l 1,30,-1
 32 145 l 1,22,-1
690 1346 m 128,-1,32
 631 1346 631 1346 587.5 1388.5 c 128,-1,33
 544 1431 544 1431 544 1488 c 0,34,35
 544 1549 544 1549 586.5 1590 c 128,-1,36
 629 1631 629 1631 690 1631 c 0,37,38
 749 1631 749 1631 793.5 1589 c 128,-1,39
 838 1547 838 1547 838 1488 c 0,40,41
 838 1431 838 1431 793.5 1388.5 c 128,-1,31
 749 1346 749 1346 690 1346 c 128,-1,32
EndSplineSet
EndChar

StartChar: Lslash
Encoding: 321 321 108
Width: 931
VWidth: 2424
GlyphClass: 1
Flags: HW
LayerCount: 2
Fore
SplineSet
124 0 m 1,0,-1
 124 536 l 1,1,-1
 21 495 l 1,2,-1
 21 722 l 1,3,-1
 124 766 l 1,4,-1
 124 1511 l 1,5,-1
 362 1511 l 1,6,7
 366 1506 366 1506 366 1501 c 0,8,9
 366 1492 366 1492 359 1480.5 c 128,-1,10
 352 1469 352 1469 348 1425 c 1,11,-1
 348 861 l 1,12,-1
 607 970 l 2,13,14
 628 977 628 977 643.5 985.5 c 128,-1,15
 659 994 659 994 674 1009 c 1,16,-1
 674 756 l 1,17,-1
 350 623 l 1,18,-1
 350 218 l 1,19,-1
 879 218 l 1,20,-1
 879 0 l 1,21,-1
 124 0 l 1,0,-1
EndSplineSet
EndChar

StartChar: M
Encoding: 77 77 109
Width: 922
VWidth: 2424
GlyphClass: 2
Flags: HW
AnchorPoint: "Anchor-2" 457 0 basechar 0
AnchorPoint: "Anchor-0" 457 1511 basechar 0
LayerCount: 2
Fore
SplineSet
32 0 m 1,0,-1
 32 1511 l 1,1,-1
 228 1511 l 1,2,-1
 462 846 l 1,3,-1
 695 1513 l 1,4,-1
 890 1513 l 1,5,-1
 890 0 l 1,6,-1
 695 0 l 1,7,-1
 695 1050 l 1,8,-1
 505 511 l 1,9,-1
 403 511 l 1,10,-1
 226 1045 l 1,11,-1
 226 0 l 1,12,-1
 32 0 l 1,0,-1
EndSplineSet
EndChar

StartChar: N
Encoding: 78 78 111
Width: 922
VWidth: 2424
GlyphClass: 2
Flags: HW
AnchorPoint: "Anchor-2" 453 0 basechar 0
AnchorPoint: "Anchor-0" 453 1511 basechar 0
LayerCount: 2
Fore
SplineSet
32 1511 m 1,0,-1
 267 1511 l 1,1,-1
 678 536 l 1,2,-1
 666 1511 l 1,3,-1
 890 1511 l 1,4,-1
 890 1488 l 1,5,6
 877 1474 877 1474 875 1457.5 c 128,-1,7
 873 1441 873 1441 873 1399 c 2,8,-1
 873 0 l 1,9,-1
 664 0 l 1,10,-1
 238 1038 l 1,11,-1
 238 0 l 1,12,-1
 32 0 l 1,13,-1
 32 1511 l 1,0,-1
EndSplineSet
EndChar

StartChar: Eng
Encoding: 330 330 117
Width: 906
VWidth: 2317
GlyphClass: 2
Flags: HW
AnchorPoint: "Anchor-2" 446 174 basechar 0
AnchorPoint: "Anchor-0" 456 1511 basechar 0
LayerCount: 2
Fore
SplineSet
669 1511 m 1,0,-1
 874 1511 l 1,1,2
 874 1485 874 1485 868 1469 c 128,-1,3
 862 1453 862 1453 862 1425 c 2,4,-1
 862 174 l 2,5,6
 862 -32 862 -32 771.5 -139 c 128,-1,7
 681 -246 681 -246 553 -246 c 0,8,9
 442 -246 442 -246 332 -165 c 1,10,-1
 430 24 l 1,11,12
 451 22 451 22 460 7 c 128,-1,13
 469 -8 469 -8 485 -23.5 c 128,-1,14
 501 -39 501 -39 540 -39 c 0,15,16
 660 -39 660 -39 660 184 c 1,17,-1
 233 1093 l 1,18,-1
 233 174 l 1,19,-1
 32 174 l 1,20,-1
 32 1511 l 1,21,-1
 255 1511 l 1,22,-1
 669 649 l 1,23,-1
 669 1511 l 1,0,-1
EndSplineSet
EndChar

StartChar: O
Encoding: 79 79 120
Width: 918
VWidth: 2424
GlyphClass: 2
Flags: HW
AnchorPoint: "Anchor-4" 459 756 basechar 0
AnchorPoint: "Anchor-3" 516 32 basechar 0
AnchorPoint: "Anchor-2" 461 0 basechar 0
AnchorPoint: "Anchor-1" 742 1406 basechar 0
AnchorPoint: "Anchor-0" 461 1515 basechar 0
LayerCount: 2
Fore
SplineSet
461 187 m 128,-1,1
 563 187 563 187 620 321.5 c 128,-1,2
 677 456 677 456 677 754 c 0,3,4
 677 1036 677 1036 620 1175 c 128,-1,5
 563 1314 563 1314 461 1314 c 128,-1,6
 359 1314 359 1314 302 1174.5 c 128,-1,7
 245 1035 245 1035 245 754 c 0,8,9
 245 456 245 456 302 321.5 c 128,-1,0
 359 187 359 187 461 187 c 128,-1,1
461 -27 m 0,10,11
 32 -27 32 -27 32 752 c 0,12,13
 32 1136 32 1136 141 1332.5 c 128,-1,14
 250 1529 250 1529 461 1529 c 128,-1,15
 672 1529 672 1529 781 1331.5 c 128,-1,16
 890 1134 890 1134 890 752 c 0,17,18
 890 361 890 361 781 166 c 0,19,20
 673.106598985 -27.0203045685 673.106598985 -27.0203045685 465.273750934 -27.0203045685 c 0,21,22
 463.14213198 -27.0203045685 463.14213198 -27.0203045685 461 -27 c 0,10,11
EndSplineSet
Substitution2: "Single Substitution lookup 29 subtable" ordmasculine
Substitution2: "'aalt' Access All Alternates in Latin lookup 0 subtable" ordmasculine
EndChar

StartChar: Oslash
Encoding: 216 216 148
Width: 918
VWidth: 2424
GlyphClass: 2
Flags: HW
AnchorPoint: "Anchor-4" 459 756 basechar 0
AnchorPoint: "Anchor-3" 516 32 basechar 0
AnchorPoint: "Anchor-2" 461 0 basechar 0
AnchorPoint: "Anchor-1" 742 1406 basechar 0
AnchorPoint: "Anchor-0" 461 1515 basechar 0
LayerCount: 2
Fore
SplineSet
461 187 m 0,0,1
 563 187 563 187 620 321.5 c 128,-1,2
 677 456 677 456 677 754 c 0,3,4
 677 951 677 951 647 1078 c 1,5,-1
 326 271 l 1,6,7
 377 187 377 187 461 187 c 0,0,1
245 754 m 0,8,9
 245 580 245 580 266 458 c 1,10,-1
 582 1247 l 1,11,12
 533 1314 533 1314 461 1314 c 0,13,14
 359 1314 359 1314 302 1175 c 128,-1,15
 245 1036 245 1036 245 754 c 0,8,9
165 -129 m 1,16,-1
 56 -65 l 1,17,-1
 147 157 l 1,18,19
 32 354 32 354 32 752 c 0,20,21
 32 1136 32 1136 141 1332.5 c 128,-1,22
 250 1529 250 1529 461 1529 c 0,23,24
 582 1529 582 1529 668 1464 c 1,25,-1
 744 1654 l 1,26,-1
 851 1587 l 1,27,-1
 763 1365 l 1,28,29
 890 1168 890 1168 890 752 c 0,30,31
 890 361 890 361 781 165.5 c 0,32,33
 673.647355164 -27.0453400504 673.647355164 -27.0453400504 467.354535591 -27.0453400504 c 0,34,35
 464.188916877 -27.0453400504 464.188916877 -27.0453400504 461 -27 c 0,36,37
 330 -27 330 -27 237 49 c 1,38,-1
 165 -129 l 1,16,-1
EndSplineSet
EndChar

StartChar: OE
Encoding: 338 338 154
Width: 856
VWidth: 2424
GlyphClass: 1
Flags: HW
LayerCount: 2
Fore
SplineSet
312 206 m 0,0,1
 345 206 345 206 364.5 242.5 c 128,-1,2
 384 279 384 279 390 344 c 1,3,-1
 390 1159 l 1,4,5
 380 1229 380 1229 358.5 1272.5 c 128,-1,6
 337 1316 337 1316 298 1316 c 0,7,8
 265 1316 265 1316 238 1267.5 c 128,-1,9
 211 1219 211 1219 196 1098 c 128,-1,10
 181 977 181 977 181 759 c 0,11,12
 181 488 181 488 211.5 347 c 128,-1,13
 242 206 242 206 312 206 c 0,0,1
287 -17 m 0,14,15
 153 -17 153 -17 69.5 163.5 c 128,-1,16
 -14 344 -14 344 -14 756 c 0,17,18
 -14 1154 -14 1154 66 1343 c 128,-1,19
 146 1532 146 1532 293 1532 c 0,20,21
 319 1532 319 1532 347.5 1516.5 c 128,-1,22
 376 1501 376 1501 399 1471 c 1,23,-1
 399 1513 l 1,24,-1
 844 1513 l 1,25,-1
 844 1300 l 1,26,-1
 579 1300 l 1,27,-1
 579 895 l 1,28,-1
 803 895 l 1,29,-1
 803 678 l 1,30,-1
 579 678 l 1,31,-1
 579 213 l 1,32,-1
 840 213 l 1,33,-1
 840 0 l 1,34,-1
 397 0 l 1,35,-1
 397 41 l 1,36,37
 350 -17 350 -17 287 -17 c 0,14,15
EndSplineSet
EndChar

StartChar: P
Encoding: 80 80 155
Width: 922
VWidth: 2424
GlyphClass: 2
Flags: HW
AnchorPoint: "Anchor-2" 298 0 basechar 0
AnchorPoint: "Anchor-0" 442 1511 basechar 0
LayerCount: 2
Fore
SplineSet
271 854 m 1,0,-1
 453 854 l 2,1,2
 548 854 548 854 598.5 913 c 128,-1,3
 649 972 649 972 649 1067 c 0,4,5
 649 1166 649 1166 598.5 1224 c 128,-1,6
 548 1282 548 1282 456 1282 c 2,7,-1
 271 1282 l 1,8,-1
 271 854 l 1,0,-1
32 0 m 1,9,-1
 32 1511 l 1,10,-1
 460 1511 l 2,11,12
 679 1511 679 1511 784.5 1384.5 c 128,-1,13
 890 1258 890 1258 890 1069 c 0,14,15
 890 882 890 882 785.5 757.5 c 128,-1,16
 681 633 681 633 469 633 c 2,17,-1
 271 633 l 1,18,-1
 271 0 l 1,19,-1
 32 0 l 1,9,-1
EndSplineSet
EndChar

StartChar: Thorn
Encoding: 222 222 156
Width: 922
VWidth: 2424
GlyphClass: 1
Flags: HW
LayerCount: 2
Fore
SplineSet
271 572 m 1
 272 572 272 572 456 572 c 0
 559 572 559 572 606 635 c 0
 653 698 653 698 653 793 c 0
 653 883 653 883 605 954 c 0
 557 1025 557 1025 453 1025 c 2
 273 1025 l 1
 271 572 l 1
32 0 m 1
 32 1511 l 1
 287 1511 l 1
 291 1506 291 1506 292 1501 c 0
 292 1492 292 1492 284 1480 c 0
 276 1468 276 1468 273 1432 c 2
 273 1244 l 1
 462 1244 l 2
 612 1244 612 1244 706 1184 c 0
 800 1124 800 1124 845 1024 c 0
 890 923 890 923 890 798 c 0
 890 609 890 609 789 484 c 0
 688 359 688 359 469 359 c 2
 271 359 l 1
 271 0 l 1
 32 0 l 1
EndSplineSet
EndChar

StartChar: Q
Encoding: 81 81 157
Width: 927
VWidth: 2372
GlyphClass: 2
Flags: HW
AnchorPoint: "Anchor-2" 459 86 basechar 0
AnchorPoint: "Anchor-0" 459 1512 basechar 0
LayerCount: 2
Fore
SplineSet
465 267 m 0,0,1
 552 267 552 267 616 386 c 128,-1,2
 680 505 680 505 680 780 c 0,3,4
 680 986 680 986 648.5 1107 c 128,-1,5
 617 1228 617 1228 567.5 1278.5 c 128,-1,6
 518 1329 518 1329 463 1329 c 0,7,8
 360 1329 360 1329 302 1197.5 c 128,-1,9
 244 1066 244 1066 244 820 c 0,10,11
 244 541 244 541 304 404 c 128,-1,12
 364 267 364 267 465 267 c 0,0,1
702 -246 m 1,13,14
 692.234482759 -246.220689655 692.234482759 -246.220689655 682.771843044 -246.220689655 c 0,15,16
 520.724137931 -246.220689655 520.724137931 -246.220689655 447.5 -181.5 c 0,17,18
 370 -113 370 -113 366 73 c 1,19,20
 215 114 215 114 123.5 294.5 c 128,-1,21
 32 475 32 475 32 796 c 0,22,23
 32 1071 32 1071 92 1231.5 c 128,-1,24
 152 1392 152 1392 249.5 1462 c 128,-1,25
 347 1532 347 1532 461 1532 c 0,26,27
 583 1532 583 1532 680.5 1458.5 c 128,-1,28
 778 1385 778 1385 834 1224 c 128,-1,29
 890 1063 890 1063 890 798 c 0,30,31
 890 455 890 455 802.5 285.5 c 128,-1,32
 715 116 715 116 568 75 c 1,33,34
 570 16 570 16 592.5 -17.5 c 0,35,36
 613.732394366 -49.1126760563 613.732394366 -49.1126760563 664.796468955 -49.1126760563 c 0,37,38
 667.845070423 -49.1126760563 667.845070423 -49.1126760563 671 -49 c 2,39,-1
 820 -40 l 1,40,-1
 813 -246 l 1,41,-1
 702 -246 l 1,13,14
EndSplineSet
EndChar

StartChar: R
Encoding: 82 82 158
Width: 922
VWidth: 2424
GlyphClass: 2
Flags: HW
AnchorPoint: "Anchor-2" 438 0 basechar 0
AnchorPoint: "Anchor-0" 438 1511 basechar 0
LayerCount: 2
Fore
SplineSet
266 849 m 1,0,-1
 436 849 l 2,1,2
 621 849 621 849 621 1064 c 0,3,4
 621 1161 621 1161 573.5 1221.5 c 128,-1,5
 526 1282 526 1282 436 1282 c 2,6,-1
 266 1282 l 1,7,-1
 266 849 l 1,0,-1
32 0 m 1,8,-1
 32 1511 l 1,9,-1
 420 1511 l 2,10,11
 645 1511 645 1511 751 1392 c 128,-1,12
 857 1273 857 1273 857 1069 c 0,13,14
 857 930 857 930 794 816.5 c 128,-1,15
 731 703 731 703 625 657 c 1,16,-1
 890 0 l 1,17,-1
 651 0 l 1,18,-1
 402 630 l 1,19,-1
 266 630 l 1,20,-1
 266 0 l 1,21,-1
 32 0 l 1,8,-1
EndSplineSet
EndChar

StartChar: S
Encoding: 83 83 166
Width: 922
VWidth: 2424
GlyphClass: 2
Flags: HW
AnchorPoint: "Anchor-2" 468 0 basechar 0
AnchorPoint: "Anchor-0" 475 1511 basechar 0
LayerCount: 2
Fore
SplineSet
447 -27 m 0,0,1
 320 -27 320 -27 213 15.5 c 128,-1,2
 106 58 106 58 32 146 c 1,3,-1
 142 371 l 1,4,-1
 150 391 l 1,5,-1
 170 381 l 1,6,7
 177 362 177 362 182.5 341 c 128,-1,8
 188 320 188 320 212 291 c 1,9,10
 261 247 261 247 321 220.5 c 128,-1,11
 381 194 381 194 451 194 c 0,12,13
 544 194 544 194 601.5 246 c 128,-1,14
 659 298 659 298 659 398 c 0,15,16
 659 449 659 449 642 492.5 c 128,-1,17
 625 536 625 536 574 580.5 c 128,-1,18
 523 625 523 625 421 681 c 0,19,20
 230 780 230 780 156 887 c 128,-1,21
 82 994 82 994 82 1147 c 0,22,23
 82 1261 82 1261 133 1348 c 128,-1,24
 184 1435 184 1435 274 1484.5 c 128,-1,25
 364 1534 364 1534 477 1534 c 0,26,27
 712 1534 712 1534 856 1351 c 1,28,-1
 731 1164 l 1,29,-1
 719 1145 l 1,30,-1
 701 1159 l 1,31,32
 697 1176 697 1176 693.5 1197.5 c 128,-1,33
 690 1219 690 1219 665 1249 c 0,34,35
 627 1290 627 1290 584 1303 c 128,-1,36
 541 1316 541 1316 483 1316 c 0,37,38
 403 1316 403 1316 356.5 1271 c 128,-1,39
 310 1226 310 1226 310 1157 c 0,40,41
 310 1106 310 1106 327.5 1064.5 c 128,-1,42
 345 1023 345 1023 400 979.5 c 128,-1,43
 455 936 455 936 566 875 c 0,44,45
 691 808 691 808 760.5 742 c 128,-1,46
 830 676 830 676 860 597.5 c 128,-1,47
 890 519 890 519 890 417 c 0,48,49
 890 301 890 301 842.5 199 c 128,-1,50
 795 97 795 97 695.5 35 c 128,-1,51
 596 -27 596 -27 447 -27 c 0,0,1
EndSplineSet
EndChar

StartChar: uni1E9E
Encoding: 7838 7838 177
Width: 922
VWidth: 2424
GlyphClass: 1
Flags: HW
LayerCount: 2
Fore
SplineSet
538 -30 m 0,0,1
 474 -30 474 -30 421 -11.5 c 128,-1,2
 368 7 368 7 328 41 c 1,3,-1
 398 240 l 1,4,5
 444.06 191.98 444.06 191.98 504.526 191.98 c 0,0,0
 505.76 191.98 505.76 191.98 507 192 c 0,6,7
 571 192 571 192 616.5 263.5 c 128,-1,8
 662 335 662 335 662 453 c 0,9,10
 662 528 662 528 641 592.5 c 128,-1,11
 620 657 620 657 569 696 c 128,-1,12
 518 735 518 735 428 735 c 2,13,-1
 371 735 l 1,14,-1
 371 946 l 1,15,-1
 589 1205 l 1,16,17
 587 1297 587 1297 551 1356.5 c 128,-1,18
 515 1416 515 1416 440 1416 c 0,19,20
 371 1416 371 1416 317.5 1345.5 c 128,-1,21
 264 1275 264 1275 264 1127 c 2,22,-1
 264 0 l 1,23,-1
 32 0 l 1,24,-1
 32 1091 l 2,25,26
 32 1285 32 1285 87.5 1403.5 c 128,-1,27
 143 1522 143 1522 234.5 1575.5 c 128,-1,28
 326 1629 326 1629 435 1629 c 0,29,30
 616 1629 616 1629 710.5 1499.5 c 128,-1,31
 805 1370 805 1370 805 1173 c 1,32,-1
 587 923 l 1,33,34
 738 879 738 879 814 749.5 c 128,-1,35
 890 620 890 620 890 439 c 0,36,37
 890 221 890 221 794 95.5 c 128,-1,38
 698 -30 698 -30 538 -30 c 0,0,1
EndSplineSet
EndChar

StartChar: T
Encoding: 84 84 179
Width: 922
VWidth: 2424
GlyphClass: 2
Flags: HW
AnchorPoint: "Anchor-4" 452 756 basechar 0
AnchorPoint: "Anchor-2" 462 0 basechar 0
AnchorPoint: "Anchor-0" 462 1511 basechar 0
LayerCount: 2
Fore
SplineSet
346 0 m 1,0,-1
 346 1287 l 1,1,-1
 32 1287 l 1,2,-1
 32 1513 l 1,3,-1
 890 1513 l 1,4,-1
 890 1287 l 1,5,-1
 559 1287 l 1,6,-1
 559 0 l 1,7,-1
 346 0 l 1,0,-1
EndSplineSet
EndChar

StartChar: Tbar
Encoding: 358 358 180
Width: 922
VWidth: 2424
GlyphClass: 2
Flags: HW
AnchorPoint: "Anchor-4" 452 756 basechar 0
AnchorPoint: "Anchor-2" 462 0 basechar 0
AnchorPoint: "Anchor-0" 462 1511 basechar 0
LayerCount: 2
Fore
SplineSet
346 0 m 1,0,-1
 346 674 l 1,1,-1
 123 674 l 1,2,-1
 123 851 l 1,3,-1
 346 851 l 1,4,-1
 346 1287 l 1,5,-1
 32 1287 l 1,6,-1
 32 1513 l 1,7,-1
 890 1513 l 1,8,-1
 890 1287 l 1,9,-1
 559 1287 l 1,10,-1
 559 851 l 1,11,-1
 778 851 l 1,12,-1
 778 674 l 1,13,-1
 559 674 l 1,14,-1
 559 0 l 1,15,-1
 346 0 l 1,0,-1
EndSplineSet
EndChar

StartChar: U
Encoding: 85 85 186
Width: 922
VWidth: 2424
GlyphClass: 2
Flags: HW
AnchorPoint: "Anchor-3" 529 24 basechar 0
AnchorPoint: "Anchor-2" 460 0 basechar 0
AnchorPoint: "Anchor-1" 879 1511 basechar 0
AnchorPoint: "Anchor-0" 460 1511 basechar 0
LayerCount: 2
Fore
SplineSet
460 -30 m 0,0,1
 457.105802048 -30.0273037543 457.105802048 -30.0273037543 454.230986965 -30.0273037543 c 0,2,3
 246.52559727 -30.0273037543 246.52559727 -30.0273037543 140 112.5 c 0,4,5
 32 257 32 257 32 516 c 2,6,-1
 32 1511 l 1,7,-1
 284 1511 l 1,8,-1
 284 1488 l 1,9,10
 273 1474 273 1474 269.5 1457.5 c 128,-1,11
 266 1441 266 1441 266 1399 c 2,12,-1
 266 514 l 2,13,14
 266 359 266 359 308 272 c 128,-1,15
 350 185 350 185 462 185 c 0,16,17
 575 185 575 185 617.5 274 c 128,-1,18
 660 363 660 363 660 521 c 2,19,-1
 660 1511 l 1,20,-1
 890 1511 l 1,21,-1
 890 523 l 2,22,23
 890 234 890 234 773 102 c 128,-1,24
 656 -30 656 -30 460 -30 c 0,0,1
EndSplineSet
EndChar

StartChar: V
Encoding: 86 86 209
Width: 895
VWidth: 2424
GlyphClass: 2
Flags: HW
AnchorPoint: "Anchor-2" 442 0 basechar 0
AnchorPoint: "Anchor-0" 442 1511 basechar 0
LayerCount: 2
Fore
SplineSet
377 -5 m 1,0,-1
 18 1513 l 1,1,-1
 228 1513 l 1,2,-1
 458 463 l 1,3,-1
 674 1511 l 1,4,-1
 876 1511 l 1,5,-1
 523 -5 l 1,6,-1
 377 -5 l 1,0,-1
EndSplineSet
EndChar

StartChar: W
Encoding: 87 87 210
Width: 862
VWidth: 2424
GlyphClass: 2
Flags: HW
AnchorPoint: "Anchor-2" 425 0 basechar 0
AnchorPoint: "Anchor-0" 434 1511 basechar 0
LayerCount: 2
Fore
SplineSet
142 0 m 1,0,-1
 -4 1511 l 1,1,-1
 172 1511 l 1,2,-1
 247 585 l 1,3,-1
 385 1374 l 1,4,-1
 492 1374 l 1,5,-1
 632 587 l 1,6,-1
 686 1511 l 1,7,-1
 854 1511 l 1,8,-1
 711 0 l 1,9,-1
 584 0 l 1,10,-1
 430 900 l 1,11,-1
 272 0 l 1,12,-1
 142 0 l 1,0,-1
EndSplineSet
EndChar

StartChar: X
Encoding: 88 88 215
Width: 922
VWidth: 2424
GlyphClass: 2
Flags: HW
AnchorPoint: "Anchor-2" 450 0 basechar 0
AnchorPoint: "Anchor-0" 450 1511 basechar 0
LayerCount: 2
Fore
SplineSet
32 0 m 1,0,-1
 335 771 l 1,1,-1
 36 1513 l 1,2,-1
 257 1513 l 1,3,-1
 454 1016 l 1,4,-1
 643 1513 l 1,5,-1
 854 1513 l 1,6,-1
 574 773 l 1,7,-1
 890 0 l 1,8,-1
 663 0 l 1,9,-1
 454 521 l 1,10,-1
 253 0 l 1,11,-1
 32 0 l 1,0,-1
EndSplineSet
EndChar

StartChar: Y
Encoding: 89 89 216
Width: 905
VWidth: 2424
GlyphClass: 2
Flags: HW
AnchorPoint: "Anchor-2" 467 0 basechar 0
AnchorPoint: "Anchor-0" 449 1511 basechar 0
LayerCount: 2
Fore
SplineSet
360 0 m 1,0,-1
 360 587 l 1,1,-1
 24 1511 l 1,2,-1
 241 1511 l 1,3,-1
 469 877 l 1,4,-1
 672 1511 l 1,5,-1
 882 1511 l 1,6,-1
 571 585 l 1,7,-1
 571 0 l 1,8,-1
 360 0 l 1,0,-1
EndSplineSet
EndChar

StartChar: Z
Encoding: 90 90 226
Width: 922
VWidth: 2424
GlyphClass: 2
Flags: HW
AnchorPoint: "Anchor-2" 481 0 basechar 0
AnchorPoint: "Anchor-0" 465 1511 basechar 0
LayerCount: 2
Fore
SplineSet
32 162 m 1,0,-1
 591 1287 l 1,1,-1
 53 1287 l 1,2,-1
 53 1511 l 1,3,-1
 859 1511 l 1,4,-1
 859 1348 l 1,5,-1
 311 220 l 1,6,-1
 789 220 l 2,7,8
 824 220 824 220 840.5 225.5 c 128,-1,9
 857 231 857 231 870 245 c 1,10,-1
 890 245 l 1,11,-1
 890 0 l 1,12,-1
 32 0 l 1,13,-1
 32 162 l 1,0,-1
EndSplineSet
EndChar

StartChar: a
Encoding: 97 97 232
Width: 922
VWidth: 2424
GlyphClass: 2
Flags: HW
AnchorPoint: "Anchor-3" 739 0 basechar 0
AnchorPoint: "Anchor-2" 468 0 basechar 0
AnchorPoint: "Anchor-0" 466 1115 basechar 0
LayerCount: 2
Fore
SplineSet
271 324 m 0,0,1
 271 246 271 246 312 212 c 128,-1,2
 353 178 353 178 416 178 c 0,3,4
 526 178 526 178 585 257.5 c 128,-1,5
 644 337 644 337 657 514 c 1,6,7
 631 514 631 514 607 514 c 128,-1,8
 583 514 583 514 563 514 c 0,9,10
 405 514 405 514 338 463 c 128,-1,11
 271 412 271 412 271 324 c 0,0,1
367 -27 m 0,12,13
 207 -27 207 -27 119.5 61.5 c 128,-1,14
 32 150 32 150 32 291 c 0,15,16
 32 480 32 480 169.5 593 c 128,-1,17
 307 706 307 706 565 706 c 0,18,19
 604 706 604 706 654 701 c 1,20,21
 641 849 641 849 589 898.5 c 128,-1,22
 537 948 537 948 445 948 c 0,23,24
 379 948 379 948 321 924 c 128,-1,25
 263 900 263 900 206 837 c 1,26,-1
 77 992 l 1,27,28
 158 1077 158 1077 255.5 1115.5 c 128,-1,29
 353 1154 353 1154 458 1154 c 0,30,31
 582 1154 582 1154 680 1109 c 128,-1,32
 778 1064 778 1064 834 953 c 128,-1,33
 890 842 890 842 890 638 c 2,34,-1
 890 0 l 1,35,-1
 644 0 l 1,36,-1
 644 118 l 1,37,38
 591 35 591 35 522.5 4 c 128,-1,39
 454 -27 454 -27 367 -27 c 0,12,13
EndSplineSet
Substitution2: "Single Substitution lookup 29 subtable" ordfeminine
Substitution2: "'aalt' Access All Alternates in Latin lookup 0 subtable" ordfeminine
EndChar

StartChar: ae
Encoding: 230 230 257
Width: 832
VWidth: 2424
GlyphClass: 1
Flags: HW
LayerCount: 2
Fore
SplineSet
230 167 m 0,0,1
 285 167 285 167 304.5 250 c 128,-1,2
 324 333 324 333 324 514 c 1,3,4
 224 509 224 509 184.5 452 c 128,-1,5
 145 395 145 395 145 310 c 0,6,7
 146 167 146 167 230 167 c 0,0,1
482 710 m 1,8,-1
 678 717 l 1,9,10
 678 838 678 838 651.5 898 c 128,-1,11
 625 958 625 958 581 958 c 0,12,13
 539 958 539 958 510.5 892 c 128,-1,14
 482 826 482 826 482 710 c 1,8,-1
220 -30 m 0,15,16
 116 -30 116 -30 45 59 c 128,-1,17
 -26 148 -26 148 -26 310 c 0,18,19
 -26 488 -26 488 65.5 589.5 c 128,-1,20
 157 691 157 691 320 701 c 1,21,22
 320 826 320 826 289 892 c 128,-1,23
 258 958 258 958 211 958 c 0,24,25
 143 958 143 958 89 854 c 1,26,-1
 1 1004 l 1,27,28
 84.4285714286 1149.00680272 84.4285714286 1149.00680272 228.030033782 1149.00680272 c 0,29,30
 229.013605442 1149.00680272 229.013605442 1149.00680272 230 1149 c 0,31,32
 287 1149 287 1149 340.5 1108 c 128,-1,33
 394 1067 394 1067 416 1013 c 1,34,35
 441 1071 441 1071 486.5 1110 c 128,-1,36
 532 1149 532 1149 581 1149 c 0,37,38
 706 1149 706 1149 764 1017 c 128,-1,39
 822 885 822 885 822 652 c 2,40,-1
 822 546 l 1,41,-1
 482 526 l 1,42,-1
 482 429 l 2,43,44
 482 311 482 311 518.5 236.5 c 128,-1,45
 555 162 555 162 620 162 c 0,46,47
 695 162 695 162 745 262 c 1,48,-1
 832 114 l 1,49,50
 742 -29 742 -29 610 -30 c 0,51,52
 551 -30 551 -30 498 8 c 128,-1,53
 445 46 445 46 411 114 c 1,54,55
 380 49 380 49 327.5 9.5 c 128,-1,56
 275 -30 275 -30 220 -30 c 0,15,16
EndSplineSet
EndChar

StartChar: b
Encoding: 98 98 259
Width: 922
VWidth: 2424
GlyphClass: 2
Flags: HW
AnchorPoint: "Anchor-2" 517 0 basechar 0
AnchorPoint: "Anchor-0" 517 1120 basechar 0
LayerCount: 2
Fore
SplineSet
454 180 m 0,0,1
 510 180 510 180 556 213.5 c 128,-1,2
 602 247 602 247 629.5 329.5 c 128,-1,3
 657 412 657 412 657 555 c 0,4,5
 657 756 657 756 605 854.5 c 128,-1,6
 553 953 553 953 459 953 c 0,7,8
 372 953 372 953 320.5 853.5 c 128,-1,9
 269 754 269 754 269 567 c 0,10,11
 268.952879581 560.921465969 268.952879581 560.921465969 268.952879581 554.938406294 c 0,12,13
 268.952879581 180 268.952879581 180 454 180 c 0,0,1
501 -27 m 0,14,15
 425 -27 425 -27 359.5 11 c 128,-1,16
 294 49 294 49 249 125 c 1,17,-1
 213 0 l 1,18,-1
 32 0 l 1,19,-1
 32 1624 l 1,20,-1
 286 1624 l 1,21,-1
 286 1603 l 1,22,23
 273 1589 273 1589 270 1570.5 c 128,-1,24
 267 1552 267 1552 267 1513 c 2,25,-1
 267 997 l 1,26,27
 307 1072 307 1072 374 1114.5 c 0,28,29
 436.582417582 1154.1978022 436.582417582 1154.1978022 504.39971018 1154.1978022 c 0,30,31
 509.186813187 1154.1978022 509.186813187 1154.1978022 514 1154 c 0,32,33
 684 1154 684 1154 787 1017 c 128,-1,34
 890 880 890 880 890 579 c 0,35,36
 890 364 890 364 836.5 229.5 c 128,-1,37
 783 95 783 95 693.5 34 c 128,-1,38
 604 -27 604 -27 501 -27 c 0,14,15
EndSplineSet
EndChar

StartChar: c
Encoding: 99 99 261
Width: 922
VWidth: 2424
GlyphClass: 2
Flags: HW
AnchorPoint: "Anchor-2" 510 0 basechar 0
AnchorPoint: "Anchor-0" 510 1125 basechar 0
LayerCount: 2
Fore
SplineSet
514 -27 m 0,0,1
 375 -27 375 -27 265.5 44.5 c 128,-1,2
 156 116 156 116 94 247 c 128,-1,3
 32 378 32 378 32 555 c 0,4,5
 32 735 32 735 95.5 869.5 c 128,-1,6
 159 1004 159 1004 267.5 1079 c 128,-1,7
 376 1154 376 1154 512 1154 c 0,8,9
 642 1154 642 1154 738 1099.5 c 128,-1,10
 834 1045 834 1045 890 948 c 1,11,-1
 768 784 l 1,12,-1
 754 766 l 1,13,-1
 738 778 l 1,14,15
 736 797 736 797 733 818 c 128,-1,16
 730 839 730 839 704 868 c 0,17,18
 668 907 668 907 622.5 923 c 128,-1,19
 577 939 577 939 519 939 c 0,20,21
 421 939 421 939 345 845.5 c 128,-1,22
 269 752 269 752 269 558 c 0,23,24
 269 378 269 378 346 282.5 c 128,-1,25
 423 187 423 187 525 187 c 0,26,27
 587 187 587 187 647 216 c 128,-1,28
 707 245 707 245 758 317 c 1,29,-1
 879 143 l 1,30,31
 807 53 807 53 710.5 13 c 128,-1,32
 614 -27 614 -27 514 -27 c 0,0,1
EndSplineSet
EndChar

StartChar: d
Encoding: 100 100 268
Width: 922
VWidth: 2424
GlyphClass: 2
Flags: HW
AnchorPoint: "Anchor-4" 688 1348 basechar 0
AnchorPoint: "Anchor-2" 466 0 basechar 0
AnchorPoint: "Anchor-1" 907 1120 basechar 0
AnchorPoint: "Anchor-0" 466 1120 basechar 0
LayerCount: 2
Fore
SplineSet
455 187 m 0,0,1
 636.005464481 187 636.005464481 187 636.005464481 560.880139747 c 0,2,3
 636.005464481 951 636.005464481 951 450 951 c 0,4,5
 357 951 357 951 308 855 c 128,-1,6
 259 759 259 759 259 577 c 0,7,8
 259 383 259 383 316 285 c 128,-1,9
 373 187 373 187 455 187 c 0,0,1
413 -27 m 0,10,11
 311 -27 311 -27 224 35 c 128,-1,12
 137 97 137 97 84.5 228 c 128,-1,13
 32 359 32 359 32 567 c 0,14,15
 32 773 32 773 82.5 902.5 c 128,-1,16
 133 1032 133 1032 219 1094.5 c 128,-1,17
 305 1157 305 1157 415 1157 c 0,18,19
 489 1157 489 1157 548.5 1124 c 128,-1,20
 608 1091 608 1091 639 1016 c 1,21,-1
 639 1624 l 1,22,-1
 888 1624 l 1,23,-1
 888 1603 l 1,24,25
 877 1589 877 1589 873.5 1570.5 c 128,-1,26
 870 1552 870 1552 870 1513 c 2,27,-1
 867 155 l 2,28,29
 867 116 867 116 871 77.5 c 128,-1,30
 875 39 875 39 890 0 c 1,31,-1
 661 0 l 1,32,33
 648 37 648 37 645 61 c 128,-1,34
 642 85 642 85 642 123 c 1,35,36
 604 48 604 48 544.5 10.5 c 128,-1,37
 485 -27 485 -27 413 -27 c 0,10,11
EndSplineSet
EndChar

StartChar: eth
Encoding: 240 240 269
Width: 922
VWidth: 2424
GlyphClass: 1
Flags: HW
LayerCount: 2
Fore
SplineSet
471 180 m 0,0,1
 550 180 550 180 607 270.5 c 128,-1,2
 664 361 664 361 664 558 c 0,3,4
 664 747 664 747 603 835 c 128,-1,5
 542 923 542 923 467 923 c 128,-1,6
 392 923 392 923 330 832.5 c 128,-1,7
 268 742 268 742 268 558 c 0,8,9
 268 380 268 380 327.5 280 c 128,-1,10
 387 180 387 180 471 180 c 0,0,1
469 -34 m 0,11,12
 344 -34 344 -34 245.5 31.5 c 128,-1,13
 147 97 147 97 89.5 224.5 c 128,-1,14
 32 352 32 352 32 536 c 0,15,16
 32 716 32 716 85 851.5 c 128,-1,17
 138 987 138 987 226 1062.5 c 128,-1,18
 314 1138 314 1138 419 1138 c 0,19,20
 546 1138 546 1138 616 1052 c 1,21,22
 591 1117 591 1117 557.5 1182 c 128,-1,23
 524 1247 524 1247 482 1295 c 1,24,-1
 270 1222 l 1,25,-1
 212 1392 l 1,26,-1
 364 1441 l 1,27,28
 322 1482 322 1482 282.5 1518 c 128,-1,29
 243 1554 243 1554 186 1580 c 1,30,-1
 417 1644 l 1,31,32
 459 1612 459 1612 494.5 1583 c 128,-1,33
 530 1554 530 1554 568 1513 c 1,34,-1
 787 1585 l 1,35,-1
 842 1418 l 1,36,-1
 695 1365 l 1,37,38
 787 1224 787 1224 838.5 1035 c 128,-1,39
 890 846 890 846 890 611 c 0,40,41
 890 301 890 301 781.5 133.5 c 128,-1,42
 673 -34 673 -34 469 -34 c 0,11,12
EndSplineSet
EndChar

StartChar: dcaron
Encoding: 271 271 270
Width: 903
VWidth: 2424
GlyphClass: 1
Flags: HW
LayerCount: 2
Fore
SplineSet
339 182 m 0,0,1
 466 182 466 182 466 562 c 0,2,3
 466 768 466 768 435.5 863 c 128,-1,4
 405 958 405 958 341 958 c 0,5,6
 282 958 282 958 247 872 c 128,-1,7
 212 786 212 786 212 585 c 0,8,9
 212 367 212 367 250 274.5 c 128,-1,10
 288 182 288 182 339 182 c 0,0,1
784 1619 m 0,11,12
 831 1619 831 1619 859.5 1581 c 128,-1,13
 888 1543 888 1543 888 1471 c 0,14,15
 888 1386 888 1386 856.5 1295.5 c 128,-1,16
 825 1205 825 1205 771 1101 c 1,17,-1
 675 1173 l 1,18,19
 706 1224 706 1224 725.5 1269 c 128,-1,20
 745 1314 745 1314 745 1355 c 0,21,22
 745 1379 745 1379 730.5 1397.5 c 128,-1,23
 716 1416 716 1416 702 1440 c 128,-1,24
 688 1464 688 1464 688 1511 c 0,25,26
 688 1557 688 1557 715.5 1588 c 128,-1,27
 743 1619 743 1619 784 1619 c 0,11,12
300 -24 m 0,28,29
 226 -24 226 -24 165 29.5 c 128,-1,30
 104 83 104 83 67 211.5 c 128,-1,31
 30 340 30 340 30 567 c 0,32,33
 30 785 30 785 65 915 c 128,-1,34
 100 1045 100 1045 161.5 1101 c 128,-1,35
 223 1157 223 1157 302 1157 c 0,36,37
 361 1157 361 1157 404.5 1123 c 128,-1,38
 448 1089 448 1089 468 1011 c 1,39,-1
 468 1619 l 1,40,-1
 673 1619 l 1,41,-1
 673 1598 l 1,42,43
 661 1584 661 1584 658 1567 c 128,-1,44
 655 1550 655 1550 657 1508 c 2,45,-1
 655 162 l 2,46,47
 655 121 655 121 657 81 c 128,-1,48
 659 41 659 41 669 0 c 1,49,-1
 487 0 l 1,50,51
 477 34 477 34 472.5 58.5 c 128,-1,52
 468 83 468 83 468 123 c 1,53,54
 441 51 441 51 395 13.5 c 128,-1,55
 349 -24 349 -24 300 -24 c 0,28,29
EndSplineSet
EndChar

StartChar: e
Encoding: 101 101 274
Width: 922
VWidth: 2424
GlyphClass: 2
Flags: HW
AnchorPoint: "Anchor-3" 589 24 basechar 0
AnchorPoint: "Anchor-2" 510 0 basechar 0
AnchorPoint: "Anchor-0" 482 1120 basechar 0
LayerCount: 2
Fore
SplineSet
269 691 m 1,0,-1
 660 691 l 1,1,2
 660 948 660 948 473 948 c 0,3,4
 393 948 393 948 336.5 887.5 c 128,-1,5
 280 827 280 827 269 691 c 1,0,-1
510 -27 m 0,6,7
 301 -27 301 -27 166.5 121 c 128,-1,8
 32 269 32 269 32 555 c 0,9,10
 32 752 32 752 91 885 c 128,-1,11
 150 1018 150 1018 252 1086 c 128,-1,12
 354 1154 354 1154 482 1154 c 0,13,14
 595 1154 595 1154 688.5 1094.5 c 128,-1,15
 782 1035 782 1035 836 911.5 c 128,-1,16
 890 788 890 788 890 601 c 0,17,18
 890 574 890 574 890 544 c 128,-1,19
 890 514 890 514 888 490 c 1,20,-1
 264 490 l 1,21,22
 271 325 271 325 346 253.5 c 128,-1,23
 421 182 421 182 519 182 c 0,24,25
 585 182 585 182 641 206.5 c 128,-1,26
 697 231 697 231 742 286 c 1,27,-1
 864 150 l 1,28,29
 798 60 798 60 707.5 16.5 c 128,-1,30
 617 -27 617 -27 510 -27 c 0,6,7
EndSplineSet
EndChar

StartChar: uni029A
Encoding: 666 666 296
Width: 922
VWidth: 2424
GlyphClass: 1
Flags: HW
LayerCount: 2
Fore
SplineSet
430 178 m 0,0,1
 552 178 552 178 611 268.5 c 128,-1,2
 670 359 670 359 670 562 c 0,3,4
 670 749 670 749 619.5 846.5 c 128,-1,5
 569 944 569 944 447 944 c 0,6,7
 366 944 366 944 329.5 902.5 c 128,-1,8
 293 861 293 861 293 805 c 0,9,10
 293 754 293 754 323 715 c 128,-1,11
 353 676 353 676 432 676 c 0,12,13
 453 676 453 676 468.5 677 c 128,-1,14
 484 678 484 678 508 684 c 1,15,-1
 508 483 l 1,16,17
 471 485 471 485 461.5 486.5 c 128,-1,18
 452 488 452 488 421 488 c 0,19,20
 332 488 332 488 292 445 c 128,-1,21
 252 402 252 402 252 340 c 0,22,23
 252 277 252 277 296.5 227.5 c 128,-1,24
 341 178 341 178 430 178 c 0,0,1
423 -37 m 0,25,26
 228 -37 228 -37 130 62.5 c 128,-1,27
 32 162 32 162 32 320 c 0,28,29
 32 422 32 422 77.5 492 c 128,-1,30
 123 562 123 562 200 601 c 1,31,32
 135 645 135 645 103 710 c 128,-1,33
 71 775 71 775 71 856 c 0,34,35
 71 936 71 936 114.5 1003.5 c 128,-1,36
 158 1071 158 1071 237.5 1114 c 128,-1,37
 317 1157 317 1157 425 1157 c 0,38,39
 649 1157 649 1157 769.5 999.5 c 128,-1,40
 890 842 890 842 890 562 c 0,41,42
 890 276 890 276 768.5 119.5 c 128,-1,43
 647 -37 647 -37 423 -37 c 0,25,26
EndSplineSet
EndChar

StartChar: f
Encoding: 102 102 300
Width: 960
VWidth: 2424
GlyphClass: 1
Flags: HW
LayerCount: 2
Fore
SplineSet
222 921 m 1,0,-1
 32 921 l 1,1,-1
 32 1127 l 1,2,-1
 222 1127 l 1,3,-1
 222 1198 l 2,4,5
 222 1348 222 1348 274 1446.5 c 128,-1,6
 326 1545 326 1545 410 1593 c 128,-1,7
 494 1641 494 1641 591 1641 c 0,8,9
 680 1641 680 1641 758.5 1602.5 c 128,-1,10
 837 1564 837 1564 890 1492 c 1,11,-1
 809 1309 l 1,12,-1
 799 1290 l 1,13,-1
 784 1300 l 1,14,15
 778 1317 778 1317 771.5 1336 c 128,-1,16
 765 1355 765 1355 738 1382 c 0,17,18
 684.057692308 1432.01923077 684.057692308 1432.01923077 608.953402367 1432.01923077 c 0,0,0
 607.480769231 1432.01923077 607.480769231 1432.01923077 606 1432 c 0,19,20
 529 1432 529 1432 485 1374 c 128,-1,21
 441 1316 441 1316 441 1198 c 2,22,-1
 441 1127 l 1,23,-1
 706 1127 l 1,24,-1
 706 921 l 1,25,-1
 441 921 l 1,26,-1
 441 0 l 1,27,-1
 222 0 l 1,28,-1
 222 921 l 1,0,-1
EndSplineSet
EndChar

StartChar: g
Encoding: 103 103 301
Width: 942
VWidth: 2278
GlyphClass: 2
Flags: HW
AnchorPoint: "Anchor-2" 435 -219 basechar 0
AnchorPoint: "Anchor-0" 416 1125 basechar 0
LayerCount: 2
Fore
SplineSet
205 47 m 0,0,1
 205 -11 205 -11 273 -38.5 c 128,-1,2
 341 -66 341 -66 446 -66 c 0,3,4
 550 -66 550 -66 605.5 -33 c 128,-1,5
 661 0 661 0 661 54 c 0,6,7
 661 107 661 107 624 129.5 c 128,-1,8
 587 152 587 152 487 152 c 0,9,10
 431 152 431 152 375.5 157 c 128,-1,11
 320 162 320 162 272 174 c 1,12,13
 242 146 242 146 223.5 118 c 128,-1,14
 205 90 205 90 205 47 c 0,0,1
412 639 m 0,15,16
 474 639 474 639 513 685.5 c 128,-1,17
 552 732 552 732 552 811 c 0,18,19
 552 891 552 891 513 937 c 128,-1,20
 474 983 474 983 412 983 c 0,21,22
 356 983 356 983 315.5 936 c 128,-1,23
 275 889 275 889 275 811 c 0,24,25
 275 736 275 736 314.5 687.5 c 128,-1,26
 354 639 354 639 412 639 c 0,15,16
414 468 m 0,27,28
 350 468 350 468 293 490 c 1,29,30
 277 473 277 473 265 457.5 c 128,-1,31
 253 442 253 442 253 420 c 0,32,33
 253 383 253 383 319 364.5 c 128,-1,34
 385 346 385 346 546 346 c 0,35,36
 713 346 713 346 777.5 269.5 c 128,-1,37
 842 193 842 193 842 78 c 0,38,39
 842 -6 842 -6 799.5 -80 c 128,-1,40
 757 -154 757 -154 665 -200 c 128,-1,41
 573 -246 573 -246 430 -246 c 0,42,43
 243 -246 243 -246 137.5 -176.5 c 128,-1,44
 32 -107 32 -107 32 15 c 0,45,46
 32 81 32 81 67.5 135 c 128,-1,47
 103 189 103 189 157 223 c 1,48,49
 123 247 123 247 103.5 281.5 c 0,50,51
 85.8139534884 312.790697674 85.8139534884 312.790697674 85.8139534884 356.009194159 c 0,52,53
 85.8139534884 360.441860465 85.8139534884 360.441860465 86 365 c 0,54,55
 86 421 86 421 115.5 468.5 c 128,-1,56
 145 516 145 516 187 554 c 1,57,58
 141 601 141 601 113.5 666.5 c 128,-1,59
 86 732 86 732 86 811 c 0,60,61
 86 914 86 914 128 992.5 c 128,-1,62
 170 1071 170 1071 244 1116 c 128,-1,63
 318 1161 318 1161 414 1161 c 0,64,65
 541 1161 541 1161 631 1080 c 1,66,67
 681 1121 681 1121 740.5 1141 c 0,68,69
 786.269230769 1156.38461538 786.269230769 1156.38461538 837.659763314 1156.38461538 c 0,70,71
 853.076923077 1156.38461538 853.076923077 1156.38461538 869 1155 c 1,72,-1
 890 992 l 1,73,74
 862.580645161 996.661290323 862.580645161 996.661290323 836.890478668 996.661290323 c 0,75,76
 768.887096774 996.661290323 768.887096774 996.661290323 713 964 c 1,77,78
 739.133333333 897.733333333 739.133333333 897.733333333 739.133333333 821.884444444 c 0,79,80
 739.133333333 816.466666667 739.133333333 816.466666667 739 811 c 0,81,82
 739 708 739 708 697 631 c 128,-1,83
 655 554 655 554 580.5 511 c 128,-1,84
 506 468 506 468 414 468 c 0,27,28
EndSplineSet
EndChar

StartChar: h
Encoding: 104 104 308
Width: 922
VWidth: 2424
GlyphClass: 2
Flags: HW
AnchorPoint: "Anchor-4" 205 1335 basechar 0
AnchorPoint: "Anchor-2" 453 0 basechar 0
AnchorPoint: "Anchor-0" 168 1624 basechar 0
LayerCount: 2
Fore
SplineSet
32 1624 m 1,0,-1
 302 1624 l 1,1,-1
 302 1603 l 1,2,3
 290 1589 290 1589 286.5 1570.5 c 128,-1,4
 283 1552 283 1552 283 1513 c 2,5,-1
 283 977 l 1,6,7
 335 1067 335 1067 415.5 1110.5 c 128,-1,8
 496 1154 496 1154 576 1154 c 0,9,10
 722 1154 722 1154 806 1046.5 c 128,-1,11
 890 939 890 939 890 684 c 2,12,-1
 890 0 l 1,13,-1
 642 0 l 1,14,-1
 642 681 l 2,15,16
 642 829 642 829 605.5 888.5 c 128,-1,17
 569 948 569 948 505 948 c 0,18,19
 414 948 414 948 348.5 869.5 c 128,-1,20
 283 791 283 791 283 645 c 2,21,-1
 283 0 l 1,22,-1
 32 0 l 1,23,-1
 32 1624 l 1,0,-1
EndSplineSet
EndChar

StartChar: i
Encoding: 105 105 313
Width: 796
VWidth: 2424
GlyphClass: 2
Flags: HW
AnchorPoint: "Anchor-3" 599 0 basechar 0
AnchorPoint: "Anchor-2" 398 0 basechar 0
AnchorPoint: "Anchor-0" 398 1488 basechar 0
LayerCount: 2
Fore
SplineSet
32 0 m 1,0,-1
 32 208 l 1,1,-1
 281 208 l 1,2,-1
 281 919 l 1,3,-1
 44 919 l 1,4,-1
 44 1127 l 1,5,-1
 536 1127 l 1,6,-1
 536 208 l 1,7,-1
 764 208 l 1,8,-1
 764 0 l 1,9,-1
 32 0 l 1,0,-1
398 1326 m 0,10,11
 331 1326 331 1326 284.5 1372 c 128,-1,12
 238 1418 238 1418 238 1481 c 0,13,14
 238 1546 238 1546 282.5 1591 c 128,-1,15
 327 1636 327 1636 398 1636 c 0,16,17
 461 1636 461 1636 509.5 1590.5 c 128,-1,18
 558 1545 558 1545 558 1481 c 0,19,20
 558 1418 558 1418 509.5 1372 c 128,-1,21
 461 1326 461 1326 398 1326 c 0,10,11
EndSplineSet
Substitution2: "'locl' Localized Forms in Latin lookup 18 subtable" i.loclTRK
Substitution2: "'locl' Localized Forms in Latin lookup 17 subtable" i.loclTRK
Substitution2: "'locl' Localized Forms in Latin lookup 16 subtable" i.loclTRK
Substitution2: "'locl' Localized Forms in Latin lookup 15 subtable" i.loclTRK
Substitution2: "'locl' Localized Forms in Latin lookup 14 subtable" i.loclTRK
Substitution2: "Single Substitution lookup 4 subtable" dotlessi
Substitution2: "Single Substitution lookup 3 subtable" dotlessi
AlternateSubs2: "'aalt' Access All Alternates in Latin lookup 1 subtable" dotlessi i.loclTRK
EndChar

StartChar: dotlessi
Encoding: 305 305 314
Width: 796
VWidth: 2424
GlyphClass: 2
Flags: HW
AnchorPoint: "Anchor-3" 599 0 basechar 0
AnchorPoint: "Anchor-2" 398 0 basechar 0
AnchorPoint: "Anchor-0" 398 1122 basechar 0
LayerCount: 2
Fore
SplineSet
32 0 m 1,0,-1
 32 208 l 1,1,-1
 281 208 l 1,2,-1
 281 919 l 1,3,-1
 44 919 l 1,4,-1
 44 1127 l 1,5,-1
 536 1127 l 1,6,-1
 536 208 l 1,7,-1
 764 208 l 1,8,-1
 764 0 l 1,9,-1
 32 0 l 1,0,-1
EndSplineSet
EndChar

StartChar: j
Encoding: 106 106 329
Width: 778
VWidth: 2355
GlyphClass: 2
Flags: HW
AnchorPoint: "Anchor-2" 469 -280 basechar 0
AnchorPoint: "Anchor-0" 600 1501 basechar 0
LayerCount: 2
Fore
SplineSet
347 -246 m 0,0,1
 159 -246 159 -246 32 -104 c 1,2,-1
 154 73 l 1,3,-1
 165 90 l 1,4,-1
 183 80 l 1,5,6
 185 63 185 63 190.5 45 c 128,-1,7
 196 27 196 27 218 -0 c 1,8,9
 243 -22 243 -22 274 -34.5 c 128,-1,10
 305 -47 305 -47 345 -47 c 0,11,12
 495 -47 495 -47 495 181 c 2,13,-1
 495 978 l 1,14,-1
 169 978 l 1,15,-1
 169 1171 l 1,16,-1
 731 1171 l 1,17,-1
 731 201 l 2,18,19
 731 39 731 39 676 -59 c 128,-1,20
 621 -157 621 -157 534 -201.5 c 128,-1,21
 447 -246 447 -246 347 -246 c 0,0,1
600 1353 m 0,22,23
 538 1353 538 1353 496 1395 c 128,-1,24
 454 1437 454 1437 454 1494 c 0,25,26
 454 1553 454 1553 494.5 1594.5 c 128,-1,27
 535 1636 535 1636 600 1636 c 0,28,29
 657 1636 657 1636 701.5 1594.5 c 128,-1,30
 746 1553 746 1553 746 1494 c 0,31,32
 746 1437 746 1437 701.5 1395 c 128,-1,33
 657 1353 657 1353 600 1353 c 0,22,23
EndSplineSet
Substitution2: "Single Substitution lookup 4 subtable" uni0237
Substitution2: "Single Substitution lookup 3 subtable" uni0237
Substitution2: "'aalt' Access All Alternates in Latin lookup 0 subtable" uni0237
EndChar

StartChar: uni0237
Encoding: 567 567 330
Width: 741
VWidth: 2274
GlyphClass: 2
Flags: HW
AnchorPoint: "Anchor-2" 455 -278 basechar 0
AnchorPoint: "Anchor-0" 582 1123 basechar 0
LayerCount: 2
Fore
SplineSet
337 -246 m 0,0,1
 155 -246 155 -246 32 -109 c 1,2,-1
 150 63 l 1,3,-1
 161 80 l 1,4,-1
 179 69 l 1,5,6
 181 52 181 52 186 35 c 128,-1,7
 191 18 191 18 212 -8 c 1,8,9
 236 -29 236 -29 266 -41 c 128,-1,10
 296 -53 296 -53 335 -53 c 0,11,12
 481 -53 481 -53 481 168 c 2,13,-1
 481 940 l 1,14,-1
 165 940 l 1,15,-1
 165 1127 l 1,16,-1
 709 1127 l 1,17,-1
 709 187 l 2,18,19
 709 30 709 30 656 -65 c 128,-1,20
 603 -160 603 -160 518 -203 c 128,-1,21
 433 -246 433 -246 337 -246 c 0,0,1
EndSplineSet
EndChar

StartChar: k
Encoding: 107 107 332
Width: 989
VWidth: 2424
GlyphClass: 2
Flags: HW
AnchorPoint: "Anchor-2" 420 0 basechar 0
AnchorPoint: "Anchor-0" 143 1624 basechar 0
LayerCount: 2
Fore
SplineSet
331 502 m 1,0,-1
 259 412 l 1,1,-1
 259 0 l 1,2,-1
 32 0 l 1,3,-1
 32 1624 l 1,4,-1
 280 1624 l 1,5,-1
 280 1603 l 1,6,7
 267 1589 267 1589 263 1570.5 c 128,-1,8
 259 1552 259 1552 259 1513 c 2,9,-1
 259 703 l 1,10,-1
 606 1138 l 1,11,12
 635 1131 635 1131 674.5 1125.5 c 128,-1,13
 714 1120 714 1120 741 1120 c 2,14,-1
 842 1120 l 1,15,-1
 487 666 l 1,16,-1
 890 0 l 1,17,-1
 637 -9 l 1,18,-1
 331 502 l 1,0,-1
EndSplineSet
EndChar

StartChar: kgreenlandic
Encoding: 312 312 334
Width: 989
VWidth: 2424
GlyphClass: 2
Flags: HW
AnchorPoint: "Anchor-2" 420 0 basechar 0
AnchorPoint: "Anchor-0" 152 1120 basechar 0
LayerCount: 2
Fore
SplineSet
331 502 m 1,0,-1
 259 412 l 1,1,-1
 259 0 l 1,2,-1
 32 0 l 1,3,-1
 32 1127 l 1,4,-1
 280 1127 l 1,5,-1
 280 1106 l 1,6,7
 267 1092 267 1092 263 1074.5 c 128,-1,8
 259 1057 259 1057 259 1016 c 2,9,-1
 259 703 l 1,10,-1
 606 1138 l 1,11,12
 635 1131 635 1131 674.5 1125.5 c 128,-1,13
 714 1120 714 1120 741 1120 c 2,14,-1
 842 1120 l 1,15,-1
 487 666 l 1,16,-1
 890 0 l 1,17,-1
 637 -9 l 1,18,-1
 331 502 l 1,0,-1
EndSplineSet
EndChar

StartChar: l
Encoding: 108 108 335
Width: 886
VWidth: 2424
GlyphClass: 2
Flags: HW
AnchorPoint: "Anchor-4" 442 560 basechar 0
AnchorPoint: "Anchor-2" 442 0 basechar 0
AnchorPoint: "Anchor-1" 944 1120 basechar 0
AnchorPoint: "Anchor-0" 442 1624 basechar 0
LayerCount: 2
Fore
SplineSet
32 0 m 1,0,-1
 32 211 l 1,1,-1
 315 211 l 1,2,-1
 315 1413 l 1,3,-1
 44 1413 l 1,4,-1
 44 1624 l 1,5,-1
 572 1624 l 1,6,-1
 572 211 l 1,7,-1
 854 211 l 1,8,-1
 854 0 l 1,9,-1
 32 0 l 1,0,-1
EndSplineSet
EndChar

StartChar: ldot
Encoding: 320 320 339
Width: 922
VWidth: 2424
GlyphClass: 1
Flags: HW
LayerCount: 2
Fore
SplineSet
730 638 m 0,0,1
 662 638 662 638 615 688 c 128,-1,2
 568 738 568 738 568 810 c 0,3,4
 568 880 568 880 615 929.5 c 128,-1,5
 662 979 662 979 730 979 c 0,6,7
 794 979 794 979 842 929.5 c 128,-1,8
 890 880 890 880 890 810 c 0,9,10
 890 738 890 738 843 688 c 128,-1,11
 796 638 796 638 730 638 c 0,0,1
32 0 m 1,12,-1
 32 211 l 1,13,-1
 250 211 l 1,14,-1
 250 1421 l 1,15,-1
 47 1421 l 1,16,-1
 47 1631 l 1,17,-1
 492 1631 l 1,18,-1
 492 211 l 1,19,-1
 789 211 l 1,20,-1
 789 0 l 1,21,-1
 32 0 l 1,12,-1
EndSplineSet
EndChar

StartChar: uni01C9
Encoding: 457 457 341
Width: 922
VWidth: 2353
GlyphClass: 1
Flags: HW
LayerCount: 2
Fore
SplineSet
494 -246 m 0,0,1
 358 -246 358 -246 265 -142 c 1,2,-1
 372 50 l 1,3,4
 385 44 385 44 386 32.5 c 128,-1,5
 387 21 387 21 394 7 c 128,-1,6
 401 -7 401 -7 434 -26 c 0,7,8
 447 -35 447 -35 463 -39 c 128,-1,9
 479 -43 479 -43 498 -43 c 0,10,11
 560 -43 560 -43 603 9 c 128,-1,12
 646 61 646 61 646 185 c 2,13,-1
 646 979 l 1,14,-1
 447 979 l 1,15,-1
 447 1171 l 1,16,-1
 867 1171 l 1,17,-1
 867 194 l 2,18,19
 867 35 867 35 818 -62 c 128,-1,20
 769 -159 769 -159 684.5 -202.5 c 128,-1,21
 600 -246 600 -246 494 -246 c 0,0,1
32 143 m 1,22,-1
 34 335 l 1,23,-1
 129 335 l 1,24,-1
 129 1439 l 1,25,-1
 45 1439 l 1,26,-1
 45 1631 l 1,27,-1
 350 1631 l 1,28,-1
 350 335 l 1,29,-1
 535 335 l 1,30,-1
 535 143 l 1,31,-1
 32 143 l 1,22,-1
748 1348 m 0,32,33
 688 1348 688 1348 646.5 1390.5 c 128,-1,34
 605 1433 605 1433 605 1490 c 0,35,36
 605 1549 605 1549 645 1590 c 128,-1,37
 685 1631 685 1631 748 1631 c 0,38,39
 804 1631 804 1631 847 1589 c 128,-1,40
 890 1547 890 1547 890 1490 c 128,-1,41
 890 1433 890 1433 847 1390.5 c 128,-1,42
 804 1348 804 1348 748 1348 c 0,32,33
EndSplineSet
EndChar

StartChar: lslash
Encoding: 322 322 343
Width: 867
VWidth: 2424
GlyphClass: 1
Flags: HW
LayerCount: 2
Fore
SplineSet
32 0 m 1,0,-1
 32 211 l 1,1,-1
 305 211 l 1,2,-1
 305 613 l 1,3,-1
 150 553 l 1,4,-1
 150 803 l 1,5,-1
 305 863 l 1,6,-1
 305 1413 l 1,7,-1
 46 1413 l 1,8,-1
 46 1624 l 1,9,-1
 560 1624 l 1,10,-1
 560 958 l 1,11,-1
 740 1025 l 1,12,-1
 740 773 l 1,13,-1
 560 703 l 1,14,-1
 560 211 l 1,15,-1
 835 211 l 1,16,-1
 835 0 l 1,17,-1
 32 0 l 1,0,-1
EndSplineSet
EndChar

StartChar: m
Encoding: 109 109 344
Width: 922
VWidth: 2424
GlyphClass: 2
Flags: HW
AnchorPoint: "Anchor-2" 456 0 basechar 0
AnchorPoint: "Anchor-0" 507 1120 basechar 0
LayerCount: 2
Fore
SplineSet
32 0 m 1,0,-1
 32 1127 l 1,1,-1
 215 1127 l 1,2,-1
 215 1041 l 1,3,4
 275.469565217 1154.00869565 275.469565217 1154.00869565 369.350396975 1154.00869565 c 0,5,6
 370.173913043 1154.00869565 370.173913043 1154.00869565 371 1154 c 0,7,8
 420 1154 420 1154 460 1120.5 c 128,-1,9
 500 1087 500 1087 519 1013 c 1,10,11
 576 1154 576 1154 707 1154 c 0,12,13
 803 1154 803 1154 847.5 1069 c 0,14,15
 890.086021505 987.655913978 890.086021505 987.655913978 890.086021505 849.53046595 c 0,16,17
 890.086021505 843.322580645 890.086021505 843.322580645 890 837 c 2,18,-1
 890 0 l 1,19,-1
 698 0 l 1,20,-1
 698 780 l 2,21,22
 698 891 698 891 685.5 926.5 c 128,-1,23
 673 962 673 962 647 962 c 0,24,25
 609 962 609 962 580 899.5 c 128,-1,26
 551 837 551 837 551 732 c 2,27,-1
 551 0 l 1,28,-1
 371 0 l 1,29,-1
 371 771 l 2,30,31
 371 889 371 889 358 927 c 128,-1,32
 345 965 345 965 311 965 c 128,-1,33
 277 965 277 965 250.5 909.5 c 128,-1,34
 224 854 224 854 224 742 c 2,35,-1
 224 0 l 1,36,-1
 32 0 l 1,0,-1
EndSplineSet
EndChar

StartChar: n
Encoding: 110 110 346
Width: 922
VWidth: 2424
GlyphClass: 2
Flags: HW
AnchorPoint: "Anchor-2" 474 0 basechar 0
AnchorPoint: "Anchor-0" 478 1120 basechar 0
LayerCount: 2
Fore
SplineSet
32 0 m 1,0,-1
 32 1127 l 1,1,-1
 283 1127 l 1,2,-1
 283 970 l 1,3,4
 333 1053 333 1053 404.5 1103.5 c 128,-1,5
 476 1154 476 1154 569 1154 c 0,6,7
 655 1154 655 1154 728 1109 c 128,-1,8
 801 1064 801 1064 845.5 962.5 c 128,-1,9
 890 861 890 861 890 689 c 2,10,-1
 890 0 l 1,11,-1
 642 0 l 1,12,-1
 642 687 l 2,13,14
 642 826 642 826 604.5 887 c 128,-1,15
 567 948 567 948 498 948 c 0,16,17
 419 948 419 948 351 874 c 128,-1,18
 283 800 283 800 283 671 c 2,19,-1
 283 0 l 1,20,-1
 32 0 l 1,0,-1
EndSplineSet
EndChar

StartChar: eng
Encoding: 331 331 352
Width: 837
VWidth: 2273
GlyphClass: 1
Flags: HW
LayerCount: 2
Fore
SplineSet
448 -246 m 0,0,1
 393 -246 393 -246 331.5 -224.5 c 128,-1,2
 270 -203 270 -203 223 -158 c 1,3,-1
 308 29 l 1,4,5
 323 25 323 25 328.5 6.5 c 128,-1,6
 334 -12 334 -12 355.5 -28 c 128,-1,7
 377 -44 377 -44 434 -44 c 0,8,9
 588 -44 588 -44 589 229 c 2,10,-1
 589 736 l 2,11,12
 589 860 589 860 548 912 c 128,-1,13
 507 964 507 964 450 964 c 0,14,15
 366 964 366 964 311.5 894 c 128,-1,16
 257 824 257 824 257 711 c 2,17,-1
 257 135 l 1,18,-1
 32 135 l 1,19,-1
 32 1130 l 1,20,-1
 257 1130 l 1,21,-1
 257 991 l 1,22,23
 302 1066 302 1066 370 1109 c 128,-1,24
 438 1152 438 1152 516 1152 c 0,25,26
 597 1152 597 1152 662.5 1112 c 128,-1,27
 728 1072 728 1072 766.5 982.5 c 128,-1,28
 805 893 805 893 805 739 c 2,29,-1
 805 251 l 2,30,31
 805 73 805 73 757.5 -36 c 128,-1,32
 710 -145 710 -145 629 -195.5 c 128,-1,33
 548 -246 548 -246 448 -246 c 0,0,1
EndSplineSet
EndChar

StartChar: o
Encoding: 111 111 355
Width: 922
VWidth: 2424
GlyphClass: 2
Flags: HW
AnchorPoint: "Anchor-4" 462 560 basechar 0
AnchorPoint: "Anchor-3" 539 53 basechar 0
AnchorPoint: "Anchor-2" 462 0 basechar 0
AnchorPoint: "Anchor-1" 676 1069 basechar 0
AnchorPoint: "Anchor-0" 464 1120 basechar 0
LayerCount: 2
Fore
SplineSet
462 189 m 0,0,1
 552 189 552 189 608.5 288.5 c 128,-1,2
 665 388 665 388 665 565 c 0,3,4
 665 745 665 745 608.5 843 c 128,-1,5
 552 941 552 941 462 941 c 128,-1,6
 372 941 372 941 314.5 843 c 128,-1,7
 257 745 257 745 257 565 c 0,8,9
 257 387 257 387 313.5 288 c 128,-1,10
 370 189 370 189 462 189 c 0,0,1
462 -24 m 0,11,12
 339 -24 339 -24 241.5 45 c 128,-1,13
 144 114 144 114 88 246 c 128,-1,14
 32 378 32 378 32 562 c 0,15,16
 32 744 32 744 88 876.5 c 128,-1,17
 144 1009 144 1009 241.5 1081.5 c 128,-1,18
 339 1154 339 1154 462 1154 c 0,19,20
 582 1154 582 1154 679.5 1081.5 c 128,-1,21
 777 1009 777 1009 833.5 877 c 128,-1,22
 890 745 890 745 890 562 c 0,23,24
 890 377 890 377 833.5 246.5 c 128,-1,25
 777 116 777 116 679.5 46 c 128,-1,26
 582 -24 582 -24 462 -24 c 0,11,12
EndSplineSet
Substitution2: "Single Substitution lookup 29 subtable" ordmasculine
Substitution2: "'aalt' Access All Alternates in Latin lookup 0 subtable" ordmasculine
EndChar

StartChar: oslash
Encoding: 248 248 383
Width: 922
VWidth: 2424
GlyphClass: 2
Flags: HW
AnchorPoint: "Anchor-4" 462 560 basechar 0
AnchorPoint: "Anchor-3" 539 53 basechar 0
AnchorPoint: "Anchor-2" 462 0 basechar 0
AnchorPoint: "Anchor-1" 676 1069 basechar 0
AnchorPoint: "Anchor-0" 464 1120 basechar 0
LayerCount: 2
Fore
SplineSet
462 189 m 0,0,1
 552 189 552 189 608.5 288.5 c 128,-1,2
 665 388 665 388 665 565 c 0,3,4
 665 672 665 672 644 754 c 1,5,-1
 404 201 l 1,6,7
 432 189 432 189 462 189 c 0,0,1
257 565 m 0,8,9
 257 456 257 456 279 375 c 1,10,-1
 519 928 l 1,11,12
 491 940 491 940 462 941 c 0,13,14
 372 941 372 941 314.5 843 c 128,-1,15
 257 745 257 745 257 565 c 0,8,9
249 -155 m 1,16,-1
 90 -63 l 1,17,-1
 167 114 l 1,18,19
 103 189 103 189 67.5 301.5 c 128,-1,20
 32 414 32 414 32 562 c 0,21,22
 32 744 32 744 88 876.5 c 128,-1,23
 144 1009 144 1009 241.5 1081.5 c 128,-1,24
 339 1154 339 1154 462 1154 c 0,25,26
 537 1154 537 1154 603 1125 c 1,27,-1
 663 1265 l 1,28,-1
 824 1171 l 1,29,-1
 755 1009 l 1,30,31
 817 934 817 934 853.5 820 c 128,-1,32
 890 706 890 706 890 562 c 0,33,34
 890 377 890 377 833.5 246.5 c 128,-1,35
 777 116 777 116 679 46 c 128,-1,36
 581 -24 581 -24 462 -24 c 0,37,38
 384 -24 384 -24 318 2 c 1,39,-1
 249 -155 l 1,16,-1
EndSplineSet
EndChar

StartChar: oe
Encoding: 339 339 389
Width: 858
VWidth: 2424
GlyphClass: 1
Flags: HW
LayerCount: 2
Fore
SplineSet
278 172 m 0,0,1
 306 172 306 172 325.5 192.5 c 128,-1,2
 345 213 345 213 345 247 c 0,3,4
 345 259 345 259 344 270.5 c 128,-1,5
 343 282 343 282 341 301 c 0,6,7
 333 368 333 368 328 429 c 128,-1,8
 323 490 323 490 323 582 c 0,9,10
 323 716 323 716 334 781 c 128,-1,11
 345 846 345 846 345 863 c 0,12,13
 345 893 345 893 327 920.5 c 128,-1,14
 309 948 309 948 274 948 c 0,15,16
 227 948 227 948 192.5 866 c 128,-1,17
 158 784 158 784 158 590 c 0,18,19
 158 384 158 384 183.5 278 c 128,-1,20
 209 172 209 172 278 172 c 0,0,1
484 696 m 1,21,-1
 704 696 l 1,22,23
 702 827 702 827 679.5 889 c 128,-1,24
 657 951 657 951 599 951 c 0,25,26
 544 951 544 951 516 879 c 128,-1,27
 488 807 488 807 484 696 c 1,21,-1
619 -30 m 0,28,29
 566 -30 566 -30 518 -9 c 128,-1,30
 470 12 470 12 431 60 c 1,31,32
 392 11 392 11 350.5 -8 c 128,-1,33
 309 -27 309 -27 263 -27 c 0,34,35
 196 -27 196 -27 133 21.5 c 128,-1,36
 70 70 70 70 30 198.5 c 128,-1,37
 -10 327 -10 327 -10 560 c 0,38,39
 -10 775 -10 775 29 905 c 128,-1,40
 68 1035 68 1035 133 1092 c 128,-1,41
 198 1149 198 1149 274 1149 c 0,42,43
 372 1149 372 1149 433 1052 c 1,44,45
 491 1149 491 1149 592 1149 c 0,46,47
 713 1149 713 1149 780.5 1032.5 c 128,-1,48
 848 916 848 916 848 687 c 2,49,-1
 848 514 l 1,50,-1
 482 514 l 1,51,52
 484 371 484 371 502.5 294.5 c 128,-1,53
 521 218 521 218 554.5 190 c 128,-1,54
 588 162 588 162 631 162 c 0,55,56
 672 162 672 162 706.5 181.5 c 128,-1,57
 741 201 741 201 770 250 c 1,58,-1
 842 107 l 1,59,60
 795 37 795 37 742.5 3.5 c 128,-1,61
 690 -30 690 -30 619 -30 c 0,28,29
EndSplineSet
EndChar

StartChar: p
Encoding: 112 112 390
Width: 902
VWidth: 2293
GlyphClass: 2
Flags: HW
AnchorPoint: "Anchor-2" 468 118 basechar 0
AnchorPoint: "Anchor-0" 468 1126 basechar 0
LayerCount: 2
Fore
SplineSet
446 277 m 0,0,1
 502 277 502 277 546.5 308.5 c 128,-1,2
 591 340 591 340 617.5 416 c 128,-1,3
 644 492 644 492 644 629 c 0,4,5
 644 797 644 797 595 881 c 128,-1,6
 546 965 546 965 456 967 c 0,7,8
 453.977777778 967.044444444 453.977777778 967.044444444 451.974814815 967.044444444 c 0,9,10
 363.844444444 967.044444444 363.844444444 967.044444444 313 881 c 0,11,12
 261 793 261 793 261 601 c 0,13,14
 263 431 263 431 310 354 c 128,-1,15
 357 277 357 277 446 277 c 0,0,1
32 -246 m 1,16,-1
 32 1132 l 1,17,-1
 256 1132 l 1,18,-1
 256 990 l 1,19,20
 300 1073 300 1073 364.5 1113.5 c 128,-1,21
 429 1154 429 1154 511 1154 c 0,22,23
 609 1154 609 1154 690.5 1098.5 c 128,-1,24
 772 1043 772 1043 821 925.5 c 128,-1,25
 870 808 870 808 870 623 c 128,-1,26
 870 438 870 438 820 320.5 c 128,-1,27
 770 203 770 203 687.5 147 c 128,-1,28
 605 91 605 91 506 91 c 0,29,30
 432 91 432 91 367 121 c 128,-1,31
 302 151 302 151 263 209 c 1,32,-1
 263 -246 l 1,33,-1
 32 -246 l 1,16,-1
EndSplineSet
EndChar

StartChar: thorn
Encoding: 254 254 391
Width: 922
VWidth: 2360
GlyphClass: 1
Flags: HW
LayerCount: 2
Fore
SplineSet
456 291 m 0,0,1
 514 291 514 291 559.5 323 c 128,-1,2
 605 355 605 355 632 433 c 128,-1,3
 659 511 659 511 659 652 c 0,4,5
 659 824 659 824 608.5 910.5 c 128,-1,6
 558 997 558 997 466 999 c 0,7,8
 463.967567568 999.043243243 463.967567568 999.043243243 461.954302411 999.043243243 c 0,0,0
 370.854054054 999.043243243 370.854054054 999.043243243 319 910.5 c 128,-1,9
 266 820 266 820 266 624 c 0,10,11
 268 449 268 449 316.5 370 c 128,-1,12
 365 291 365 291 456 291 c 0,0,1
32 1624 m 1,13,-1
 281 1624 l 1,14,-1
 281 1605 l 1,15,16
 268 1592 268 1592 265 1575 c 128,-1,17
 262 1558 262 1558 262 1522 c 2,18,-1
 262 1023 l 1,19,20
 307 1108 307 1108 372.5 1149.5 c 128,-1,21
 438 1191 438 1191 523 1191 c 0,22,23
 623 1191 623 1191 706.5 1133.5 c 128,-1,24
 790 1076 790 1076 840 955.5 c 128,-1,25
 890 835 890 835 890 645 c 128,-1,26
 890 455 890 455 839 334.5 c 128,-1,27
 788 214 788 214 703.5 157 c 128,-1,28
 619 100 619 100 518 100 c 0,29,30
 442 100 442 100 375.5 130.5 c 128,-1,31
 309 161 309 161 268 221 c 1,32,-1
 268 -246 l 1,33,-1
 32 -246 l 1,34,-1
 32 1624 l 1,13,-1
EndSplineSet
EndChar

StartChar: q
Encoding: 113 113 392
Width: 905
VWidth: 2293
GlyphClass: 1
Flags: HW
LayerCount: 2
Fore
SplineSet
464 279 m 0,0,1
 543 279 543 279 593.5 359.5 c 128,-1,2
 644 440 644 440 644 635 c 0,3,4
 644 824 644 824 592.5 897.5 c 128,-1,5
 541 971 541 971 464 971 c 0,6,7
 377 971 377 971 319 894.5 c 128,-1,8
 261 818 261 818 261 629 c 0,9,10
 261 446 261 446 315.5 362.5 c 128,-1,11
 370 279 370 279 464 279 c 0,0,1
644 -246 m 1,12,-1
 644 218 l 1,13,14
 611 155 611 155 552 124 c 128,-1,15
 493 93 493 93 422 93 c 0,16,17
 237 93 237 93 134.5 236 c 128,-1,18
 32 379 32 379 32 623 c 0,19,20
 32 885 32 885 138 1019.5 c 128,-1,21
 244 1154 244 1154 429 1154 c 0,22,23
 510 1154 510 1154 563 1120 c 128,-1,24
 616 1086 616 1086 651 1023 c 1,25,-1
 651 1130 l 1,26,-1
 873 1130 l 1,27,-1
 873 -246 l 1,28,-1
 644 -246 l 1,12,-1
EndSplineSet
EndChar

StartChar: r
Encoding: 114 114 393
Width: 902
VWidth: 2424
GlyphClass: 2
Flags: HW
AnchorPoint: "Anchor-2" 468 0 basechar 0
AnchorPoint: "Anchor-0" 468 1120 basechar 0
LayerCount: 2
Fore
SplineSet
32 1127 m 1,0,-1
 294 1127 l 1,1,-1
 291 953 l 1,2,3
 332 1048 332 1048 414.5 1101 c 128,-1,4
 497 1154 497 1154 590 1154 c 0,5,6
 762 1154 762 1154 870 1023 c 1,7,-1
 766 810 l 1,8,-1
 756 788 l 1,9,-1
 738 798 l 1,10,11
 731 817 731 817 723 837.5 c 128,-1,12
 715 858 715 858 689 888 c 1,13,14
 625.3 936.02 625.3 936.02 555.8376 936.02 c 0,15,16
 554.42 936.02 554.42 936.02 553 936 c 0,17,18
 486 936 486 936 424.5 902 c 128,-1,19
 363 868 363 868 326 792.5 c 128,-1,20
 289 717 289 717 289 594 c 2,21,-1
 289 -2 l 1,22,-1
 32 -2 l 1,23,-1
 32 1127 l 1,0,-1
EndSplineSet
EndChar

StartChar: uni027B
Encoding: 635 635 399
Width: 873
VWidth: 2271
GlyphClass: 1
Flags: HW
LayerCount: 2
Fore
SplineSet
707 -246 m 0
 572 -246 572 -246 509 -158 c 0
 446 -70 446 -70 442 130 c 1
 442 271 l 1
 410 196 410 196 346 154 c 0
 284 112 284 112 218 111 c 0
 160 111 160 111 106 135 c 0
 52 159 52 159 3 214 c 1
 78 396 l 1
 84 415 l 1
 100 408 l 1
 106 393 106 393 112 376 c 0
 118 359 118 359 140 338 c 1
 162 322 162 322 184 314 c 0
 206 306 206 306 235 306 c 0
 283 306 283 306 331 340 c 0
 378 374 378 374 410 442 c 0
 442 510 442 510 442 606 c 2
 442 1132 l 1
 648 1132 l 1
 646 128 l 2
 646 -58 646 -58 734 -58 c 0
 748 -58 748 -58 762 -56 c 0
 776 -54 776 -54 790 -45 c 0
 804 -37 804 -37 807 -26 c 0
 810 -15 810 -15 819 -11 c 1
 861 -189 l 1
 796 -246 796 -246 707 -246 c 0
EndSplineSet
EndChar

StartChar: uni024D
Encoding: 589 589 402
Width: 922
VWidth: 2424
GlyphClass: 2
Flags: HW
AnchorPoint: "Anchor-2" 531 0 basechar 0
AnchorPoint: "Anchor-0" 531 1120 basechar 0
LayerCount: 2
Fore
SplineSet
32 384 m 1,0,-1
 32 594 l 1,1,-1
 143 594 l 1,2,-1
 143 1127 l 1,3,-1
 376 1127 l 1,4,-1
 374 953 l 1,5,6
 411 1048 411 1048 484.5 1101 c 128,-1,7
 558 1154 558 1154 640 1154 c 0,8,9
 793 1154 793 1154 890 1023 c 1,10,-1
 797 810 l 1,11,-1
 789 788 l 1,12,-1
 772 798 l 1,13,14
 766 817 766 817 759 837.5 c 128,-1,15
 752 858 752 858 729 888 c 1,16,17
 672.16 936.02 672.16 936.02 609.5576 936.02 c 0,18,19
 608.28 936.02 608.28 936.02 607 936 c 0,20,21
 547 936 547 936 492.5 902 c 128,-1,22
 438 868 438 868 405 792.5 c 128,-1,23
 372 717 372 717 372 594 c 1,24,-1
 607 594 l 1,25,-1
 607 384 l 1,26,-1
 372 384 l 1,27,-1
 372 -2 l 1,28,-1
 143 -2 l 1,29,-1
 143 384 l 1,30,-1
 32 384 l 1,0,-1
EndSplineSet
EndChar

StartChar: s
Encoding: 115 115 403
Width: 922
VWidth: 2424
GlyphClass: 1
Flags: HW
LayerCount: 2
Fore
SplineSet
480 -27 m 0,0,1
 343 -27 343 -27 230 12 c 128,-1,2
 117 51 117 51 32 134 c 1,3,-1
 136 344 l 1,4,-1
 147 366 l 1,5,-1
 164 356 l 1,6,7
 171 337 171 337 179 317.5 c 128,-1,8
 187 298 187 298 214 271 c 0,9,10
 266 227 266 227 329 203.5 c 128,-1,11
 392 180 392 180 480 180 c 128,-1,12
 568 180 568 180 617.5 217.5 c 128,-1,13
 667 255 667 255 667 313 c 0,14,15
 667 369 667 369 615 405.5 c 128,-1,16
 563 442 563 442 442 483 c 0,17,18
 282 534 282 534 185 615 c 128,-1,19
 88 696 88 696 88 835 c 0,20,21
 88 971 88 971 194 1062.5 c 128,-1,22
 300 1154 300 1154 480 1154 c 0,23,24
 730 1154 730 1154 878 990 c 1,25,-1
 761 812 l 1,26,-1
 746 793 l 1,27,-1
 730 805 l 1,28,29
 728 824 728 824 719.5 842.5 c 128,-1,30
 711 861 711 861 685 888 c 1,31,32
 642 920 642 920 591.5 935.5 c 128,-1,33
 541 951 541 951 487 951 c 0,34,35
 414 951 414 951 363.5 922 c 128,-1,36
 313 893 313 893 313 839 c 0,37,38
 313 788 313 788 368.5 751.5 c 128,-1,39
 424 715 424 715 556 674 c 0,40,41
 733 618 733 618 811.5 539.5 c 128,-1,42
 890 461 890 461 890 327 c 0,43,44
 890 177 890 177 784 75 c 128,-1,45
 678 -27 678 -27 480 -27 c 0,0,1
EndSplineSet
EndChar

StartChar: germandbls
Encoding: 223 223 414
Width: 922
VWidth: 2424
GlyphClass: 1
Flags: HW
LayerCount: 2
Fore
SplineSet
531 -30 m 0,0,1
 466 -30 466 -30 420.5 -12.5 c 128,-1,2
 375 5 375 5 323 39 c 1,3,-1
 406 240 l 1,4,5
 453 189 453 189 514 189 c 0,6,7
 583 189 583 189 623 274 c 128,-1,8
 663 359 663 359 663 470 c 0,9,10
 663 588 663 588 609.5 667.5 c 128,-1,11
 556 747 556 747 430 747 c 2,12,-1
 353 747 l 1,13,-1
 353 955 l 1,14,-1
 442 955 l 2,15,16
 507 955 507 955 552 1015.5 c 128,-1,17
 597 1076 597 1076 597 1185 c 0,18,19
 597 1287 597 1287 552 1352.5 c 128,-1,20
 507 1418 507 1418 430 1418 c 0,21,22
 349 1418 349 1418 302.5 1321 c 128,-1,23
 256 1224 256 1224 256 1060 c 2,24,-1
 256 0 l 1,25,-1
 32 0 l 1,26,-1
 32 1043 l 2,27,28
 32 1351 32 1351 139.5 1490 c 128,-1,29
 247 1629 247 1629 419 1629 c 0,30,31
 535 1629 535 1629 624 1572 c 128,-1,32
 713 1515 713 1515 762 1418 c 128,-1,33
 811 1321 811 1321 811 1203 c 0,34,35
 811 1099 811 1099 775.5 1013.5 c 128,-1,36
 740 928 740 928 661 875 c 1,37,38
 766 836 766 836 828 726 c 128,-1,39
 890 616 890 616 890 446 c 0,40,41
 890 228 890 228 790 99 c 128,-1,42
 690 -30 690 -30 531 -30 c 0,0,1
EndSplineSet
EndChar

StartChar: t
Encoding: 116 116 415
Width: 922
VWidth: 2424
GlyphClass: 2
Flags: HW
AnchorPoint: "Anchor-4" 363 735 basechar 0
AnchorPoint: "Anchor-2" 502 0 basechar 0
AnchorPoint: "Anchor-1" 564 1122 basechar 0
AnchorPoint: "Anchor-0" 420 1421 basechar 0
LayerCount: 2
Fore
SplineSet
557 -24 m 0,0,1
 438 -24 438 -24 360.5 30.5 c 128,-1,2
 283 85 283 85 250 219.5 c 0,3,4
 222.775 330.4625 222.775 330.4625 222.775 508.4665625 c 0,5,6
 222.775 546.225 222.775 546.225 224 587 c 2,7,-1
 237 909 l 1,8,-1
 32 909 l 1,9,-1
 34 1120 l 1,10,-1
 244 1120 l 1,11,-1
 253 1395 l 1,12,-1
 511 1428 l 1,13,-1
 532 1430 l 1,14,-1
 536 1409 l 1,15,16
 527 1392 527 1392 517 1373.5 c 128,-1,17
 507 1355 507 1355 504 1316 c 2,18,-1
 493 1120 l 1,19,-1
 811 1120 l 1,20,-1
 808 909 l 1,21,-1
 490 909 l 1,22,-1
 475 590 l 2,23,24
 472.869565217 541.304347826 472.869565217 541.304347826 472.869565217 499.324196597 c 0,25,26
 472.869565217 403.369565217 472.869565217 403.369565217 484 342.5 c 0,27,28
 500 255 500 255 534.5 221 c 128,-1,29
 569 187 569 187 616 187 c 0,30,31
 685 187 685 187 739.5 216 c 128,-1,32
 794 245 794 245 842 284 c 1,33,-1
 890 92 l 1,34,35
 744 -24 744 -24 557 -24 c 0,0,1
EndSplineSet
EndChar

StartChar: tbar
Encoding: 359 359 416
Width: 922
VWidth: 2424
GlyphClass: 2
Flags: HW
AnchorPoint: "Anchor-4" 368 735 basechar 0
AnchorPoint: "Anchor-2" 506 0 basechar 0
AnchorPoint: "Anchor-1" 567 1122 basechar 0
AnchorPoint: "Anchor-0" 425 1421 basechar 0
LayerCount: 2
Fore
SplineSet
32 502 m 1,0,-1
 32 715 l 1,1,-1
 236 715 l 1,2,-1
 244 909 l 1,3,-1
 41 909 l 1,4,-1
 44 1120 l 1,5,-1
 251 1120 l 1,6,-1
 260 1395 l 1,7,-1
 515 1428 l 1,8,-1
 536 1430 l 1,9,-1
 540 1409 l 1,10,11
 531 1392 531 1392 521 1373.5 c 128,-1,12
 511 1355 511 1355 508 1316 c 2,13,-1
 497 1120 l 1,14,-1
 811 1120 l 1,15,-1
 809 909 l 1,16,-1
 495 909 l 1,17,-1
 484 715 l 1,18,-1
 797 715 l 1,19,-1
 797 502 l 1,20,-1
 477 502 l 1,21,22
 479 315 479 315 517.5 251 c 128,-1,23
 556 187 556 187 619 187 c 0,24,25
 687 187 687 187 741 216 c 128,-1,26
 795 245 795 245 843 284 c 1,27,-1
 890 92 l 1,28,29
 745 -24 745 -24 560 -24 c 0,30,31
 451 -24 451 -24 378 23 c 128,-1,32
 305 70 305 70 268 185.5 c 128,-1,33
 231 301 231 301 229 502 c 1,34,-1
 32 502 l 1,0,-1
EndSplineSet
EndChar

StartChar: u
Encoding: 117 117 423
Width: 922
VWidth: 2424
GlyphClass: 2
Flags: HW
AnchorPoint: "Anchor-3" 692 0 basechar 0
AnchorPoint: "Anchor-2" 403 0 basechar 0
AnchorPoint: "Anchor-1" 854 1120 basechar 0
AnchorPoint: "Anchor-0" 455 1120 basechar 0
LayerCount: 2
Fore
SplineSet
375 -27 m 0,0,1
 222 -27 222 -27 126 85 c 0,2,3
 31.9591836735 194.714285714 31.9591836735 194.714285714 31.9591836735 458.924198251 c 0,4,5
 31.9591836735 464.428571429 31.9591836735 464.428571429 32 470 c 2,6,-1
 32 1127 l 1,7,-1
 278 1127 l 1,8,-1
 278 463 l 2,9,10
 278 303 278 303 320.5 244 c 128,-1,11
 363 185 363 185 426 185 c 0,12,13
 514 185 514 185 568 260 c 128,-1,14
 622 335 622 335 622 485 c 2,15,-1
 622 1127 l 1,16,-1
 868 1127 l 1,17,-1
 868 178 l 2,18,19
 868 129 868 129 871.5 85 c 128,-1,20
 875 41 875 41 890 0 c 1,21,-1
 663 0 l 1,22,23
 649 34 649 34 645.5 68 c 128,-1,24
 642 102 642 102 642 141 c 1,25,26
 599 58 599 58 528.5 15.5 c 128,-1,27
 458 -27 458 -27 375 -27 c 0,0,1
EndSplineSet
EndChar

StartChar: v
Encoding: 118 118 446
Width: 922
VWidth: 2424
GlyphClass: 2
Flags: HW
AnchorPoint: "Anchor-2" 467 0 basechar 0
AnchorPoint: "Anchor-0" 465 1122 basechar 0
LayerCount: 2
Fore
SplineSet
373 0 m 1,0,-1
 32 1127 l 1,1,-1
 269 1127 l 1,2,-1
 484 356 l 1,3,-1
 589 678 l 2,4,5
 626 799 626 799 649.5 913.5 c 128,-1,6
 673 1028 673 1028 677 1127 c 1,7,-1
 890 1127 l 1,8,9
 879 1020 879 1020 847 899 c 128,-1,10
 815 778 815 778 776 652 c 2,11,-1
 559 0 l 1,12,-1
 373 0 l 1,0,-1
EndSplineSet
EndChar

StartChar: w
Encoding: 119 119 447
Width: 888
VWidth: 2424
GlyphClass: 2
Flags: HW
AnchorPoint: "Anchor-2" 440 0 basechar 0
AnchorPoint: "Anchor-0" 440 1120 basechar 0
LayerCount: 2
Fore
SplineSet
160 -2 m 1,0,-1
 8 1127 l 1,1,-1
 187 1127 l 1,2,-1
 278 359 l 1,3,-1
 395 984 l 1,4,-1
 506 984 l 1,5,-1
 642 363 l 1,6,7
 662 569 662 569 672 702 c 128,-1,8
 682 835 682 835 686 920.5 c 128,-1,9
 690 1006 690 1006 690 1069 c 2,10,-1
 690 1127 l 1,11,-1
 866 1127 l 1,12,13
 850 856 850 856 815 561 c 128,-1,14
 780 266 780 266 742 -2 c 1,15,-1
 560 -2 l 1,16,-1
 448 590 l 1,17,-1
 342 -2 l 1,18,-1
 160 -2 l 1,0,-1
EndSplineSet
EndChar

StartChar: x
Encoding: 120 120 452
Width: 922
VWidth: 2424
GlyphClass: 2
Flags: HW
AnchorPoint: "Anchor-2" 458 0 basechar 0
AnchorPoint: "Anchor-0" 458 1122 basechar 0
LayerCount: 2
Fore
SplineSet
32 0 m 1,0,-1
 338 565 l 1,1,-1
 36 1127 l 1,2,-1
 268 1127 l 1,3,-1
 456 780 l 1,4,-1
 632 1127 l 1,5,-1
 854 1127 l 1,6,-1
 571 577 l 1,7,-1
 890 0 l 1,8,-1
 655 0 l 1,9,-1
 456 359 l 1,10,-1
 268 0 l 1,11,-1
 32 0 l 1,0,-1
EndSplineSet
EndChar

StartChar: y
Encoding: 121 121 453
Width: 914
VWidth: 2274
GlyphClass: 2
Flags: HW
AnchorPoint: "Anchor-2" 747 129 basechar 0
AnchorPoint: "Anchor-0" 497 1123 basechar 0
LayerCount: 2
Fore
SplineSet
244 -246 m 0,0,1
 180 -246 180 -246 129.5 -224.5 c 128,-1,2
 79 -203 79 -203 32 -160 c 1,3,-1
 106 4 l 1,4,-1
 116 24 l 1,5,-1
 133 15 l 1,6,7
 139 0 139 0 148 -16 c 128,-1,8
 157 -32 157 -32 184 -51 c 1,9,10
 212 -64 212 -64 247 -64 c 0,11,12
 305 -64 305 -64 339 -10.5 c 128,-1,13
 373 43 373 43 409 158 c 1,14,-1
 409 162 l 1,15,-1
 61 1127 l 1,16,-1
 285 1127 l 1,17,-1
 508 473 l 1,18,-1
 600 762 l 2,19,20
 630 854 630 854 650.5 944.5 c 128,-1,21
 671 1035 671 1035 676 1127 c 1,22,-1
 882 1127 l 1,23,24
 876 1031 876 1031 842.5 923.5 c 128,-1,25
 809 816 809 816 776 717 c 2,26,-1
 555 37 l 2,27,28
 504 -117 504 -117 424.5 -181.5 c 128,-1,29
 345 -246 345 -246 244 -246 c 0,0,1
EndSplineSet
EndChar

StartChar: z
Encoding: 122 122 463
Width: 922
VWidth: 2424
GlyphClass: 2
Flags: HW
AnchorPoint: "Anchor-2" 472 0 basechar 0
AnchorPoint: "Anchor-0" 477 1122 basechar 0
LayerCount: 2
Fore
SplineSet
32 160 m 1,0,-1
 554 909 l 1,1,-1
 73 909 l 1,2,-1
 73 1127 l 1,3,-1
 845 1127 l 1,4,-1
 845 960 l 1,5,-1
 331 218 l 1,6,-1
 786 218 l 2,7,8
 825 218 825 218 840.5 221.5 c 128,-1,9
 856 225 856 225 869 240 c 1,10,-1
 890 240 l 1,11,-1
 890 0 l 1,12,-1
 32 0 l 1,13,-1
 32 160 l 1,0,-1
EndSplineSet
EndChar

StartChar: u.i
Encoding: 65539 -1 468
Width: 876
VWidth: 2424
GlyphClass: 2
Flags: HW
AnchorPoint: "Anchor-3" 689 0 basechar 0
AnchorPoint: "Anchor-2" 384 0 basechar 0
AnchorPoint: "Anchor-1" 803 1122 basechar 0
AnchorPoint: "Anchor-0" 418 1122 basechar 0
LayerCount: 2
Fore
SplineSet
358 -27 m 0,0,1
 212 -27 212 -27 121 85 c 0,2,3
 31.9569892473 194.591397849 31.9569892473 194.591397849 31.9569892473 458.332523991 c 0,4,5
 31.9569892473 464.129032258 31.9569892473 464.129032258 32 470 c 2,6,-1
 32 1127 l 1,7,-1
 265 1127 l 1,8,-1
 265 463 l 2,9,10
 265 303 265 303 305 244 c 128,-1,11
 345 185 345 185 405 185 c 0,12,13
 488 185 488 185 540 260 c 128,-1,14
 592 335 592 335 592 485 c 2,15,-1
 592 1127 l 1,16,-1
 825 1127 l 1,17,-1
 825 178 l 2,18,19
 825 129 825 129 827.5 85 c 128,-1,20
 830 41 830 41 844 0 c 1,21,-1
 631 0 l 1,22,23
 617 34 617 34 613.5 68 c 128,-1,24
 610 102 610 102 610 141 c 1,25,26
 571 58 571 58 503.5 15.5 c 128,-1,27
 436 -27 436 -27 358 -27 c 0,0,1
EndSplineSet
EndChar

StartChar: r.serif
Encoding: 65540 -1 469
Width: 922
VWidth: 2424
GlyphClass: 1
Flags: HW
LayerCount: 2
Fore
SplineSet
32 0 m 1,0,-1
 32 206 l 1,1,-1
 147 206 l 1,2,-1
 147 919 l 1,3,-1
 36 919 l 1,4,-1
 36 1127 l 1,5,-1
 379 1127 l 1,6,-1
 379 953 l 1,7,8
 423 1050 423 1050 495.5 1102 c 128,-1,9
 568 1154 568 1154 649 1154 c 0,10,11
 714 1154 714 1154 777 1124 c 128,-1,12
 840 1094 840 1094 890 1032 c 1,13,-1
 809 800 l 1,14,15
 790 802 790 802 781 822 c 128,-1,16
 772 842 772 842 757 867.5 c 128,-1,17
 742 893 742 893 710 910.5 c 128,-1,18
 678 928 678 928 618 928 c 0,19,20
 560 928 560 928 504 886 c 128,-1,21
 448 844 448 844 410.5 769 c 128,-1,22
 373 694 373 694 373 592 c 2,23,-1
 373 206 l 1,24,-1
 537 206 l 1,25,-1
 537 0 l 1,26,-1
 32 0 l 1,0,-1
EndSplineSet
EndChar

StartChar: ordfeminine
Encoding: 170 170 470
Width: 862
VWidth: 2424
GlyphClass: 1
Flags: HW
LayerCount: 2
Fore
SplineSet
32 534 m 1,0,-1
 830 534 l 1,1,-1
 830 330 l 1,2,-1
 32 330 l 1,3,-1
 32 534 l 1,0,-1
289 907 m 0,4,5
 289 854 289 854 317 826 c 128,-1,6
 345 798 345 798 386 798 c 0,7,8
 461 798 461 798 501 853.5 c 128,-1,9
 541 909 541 909 546 1041 c 1,10,11
 534 1041 534 1041 521.5 1041 c 128,-1,12
 509 1041 509 1041 500 1041 c 0,13,14
 379 1041 379 1041 334 1003 c 128,-1,15
 289 965 289 965 289 907 c 0,4,5
340 625 m 0,16,17
 217 625 217 625 149 695.5 c 128,-1,18
 81 766 81 766 81 875 c 0,19,20
 81 1023 81 1023 187.5 1111.5 c 128,-1,21
 294 1200 294 1200 502 1200 c 0,22,23
 519 1200 519 1200 543 1198 c 1,24,25
 534 1305 534 1305 498.5 1337.5 c 128,-1,26
 463 1370 463 1370 403 1370 c 0,27,28
 352 1370 352 1370 311 1352.5 c 128,-1,29
 270 1335 270 1335 226 1287 c 1,30,-1
 112 1416 l 1,31,32
 175 1479 175 1479 252.5 1509 c 128,-1,33
 330 1539 330 1539 418 1539 c 0,34,35
 515 1539 515 1539 591.5 1506.5 c 128,-1,36
 668 1474 668 1474 711 1388 c 128,-1,37
 754 1302 754 1302 754 1145 c 2,38,-1
 754 648 l 1,39,-1
 543 648 l 1,40,-1
 543 727 l 1,41,42
 504 671 504 671 455.5 648 c 128,-1,43
 407 625 407 625 340 625 c 0,16,17
EndSplineSet
EndChar

StartChar: ordmasculine
Encoding: 186 186 471
Width: 862
VWidth: 2424
GlyphClass: 1
Flags: HW
LayerCount: 2
Fore
SplineSet
32 534 m 1,0,-1
 830 534 l 1,1,-1
 830 330 l 1,2,-1
 32 330 l 1,3,-1
 32 534 l 1,0,-1
430 805 m 128,-1,5
 500 805 500 805 541 878 c 128,-1,6
 582 951 582 951 582 1081 c 0,7,8
 582 1222 582 1222 539.5 1292.5 c 128,-1,9
 497 1363 497 1363 430 1363 c 128,-1,10
 363 1363 363 1363 320 1292.5 c 128,-1,11
 277 1222 277 1222 277 1081 c 0,12,13
 277 950 277 950 318.5 877.5 c 128,-1,4
 360 805 360 805 430 805 c 128,-1,5
430 627 m 0,14,15
 275 627 275 627 172 744 c 128,-1,16
 69 861 69 861 69 1081 c 0,17,18
 69 1299 69 1299 173 1419 c 128,-1,19
 277 1539 277 1539 430 1539 c 128,-1,20
 583 1539 583 1539 687 1419.5 c 128,-1,21
 791 1300 791 1300 791 1081 c 0,22,23
 791 861 791 861 687 744 c 128,-1,24
 583 627 583 627 430 627 c 0,14,15
EndSplineSet
EndChar

StartChar: uni2124
Encoding: 8484 8484 473
Width: 922
VWidth: 2424
GlyphClass: 1
Flags: HW
LayerCount: 2
Fore
SplineSet
736 1335 m 1,0,-1
 626 1335 l 1,1,-1
 184 172 l 1,2,-1
 297 172 l 1,3,-1
 736 1335 l 1,0,-1
890 1511 m 1,4,-1
 890 1348 l 1,5,-1
 440 172 l 1,6,-1
 782 172 l 2,7,8
 819 172 819 172 836 177 c 128,-1,9
 853 182 853 182 868 197 c 1,10,-1
 888 197 l 1,11,-1
 888 0 l 1,12,-1
 32 0 l 1,13,-1
 32 162 l 1,14,-1
 478 1335 l 1,15,-1
 36 1335 l 1,16,-1
 36 1511 l 1,17,-1
 890 1511 l 1,4,-1
EndSplineSet
EndChar

StartChar: zero
Encoding: 48 48 474
Width: 922
VWidth: 2424
GlyphClass: 1
Flags: HW
LayerCount: 2
Fore
SplineSet
462 178 m 0,0,1
 670 178 670 178 670 747 c 0,2,3
 670 837 670 837 666 912 c 1,4,-1
 287 378 l 1,5,6
 338 178 338 178 462 178 c 0,0,1
251 747 m 0,7,8
 251 652 251 652 257 572 c 1,9,-1
 634 1113 l 1,10,11
 583.248780488 1316.00487805 583.248780488 1316.00487805 463.17882213 1316.00487805 c 0,0,0
 462.590243902 1316.00487805 462.590243902 1316.00487805 462 1316 c 0,12,13
 359 1316 359 1316 305 1167 c 128,-1,14
 251 1018 251 1018 251 747 c 0,7,8
462 -27 m 128,-1,16
 265 -27 265 -27 148.5 167 c 128,-1,17
 32 361 32 361 32 747 c 0,18,19
 32 1125 32 1125 148.5 1327 c 128,-1,20
 265 1529 265 1529 462 1529 c 128,-1,21
 659 1529 659 1529 774.5 1327 c 128,-1,22
 890 1125 890 1125 890 747 c 0,23,24
 890 361 890 361 774.5 167 c 128,-1,15
 659 -27 659 -27 462 -27 c 128,-1,16
EndSplineSet
Substitution2: "'ss02' Style Set 2 in Latin lookup 36 subtable" zero.ss02
Substitution2: "'zero' Slashed Zero in Latin lookup 33 subtable" zero.zero
Substitution2: "'frac' Diagonal Fractions in Latin lookup 24 subtable" zero.numr
Substitution2: "'dnom' Denominators in Latin lookup 22 subtable" zero.dnom
Substitution2: "'numr' Numerators in Latin lookup 21 subtable" zero.numr
Substitution2: "'sups' Superscript in Latin lookup 20 subtable" uni2070
Substitution2: "'subs' Subscript in Latin lookup 19 subtable" uni2080
AlternateSubs2: "'aalt' Access All Alternates in Latin lookup 1 subtable" zero.zero zero.ss02 uni2080 zero.dnom zero.numr uni2070
EndChar

StartChar: one
Encoding: 49 49 475
Width: 614
VWidth: 2424
GlyphClass: 1
Flags: HW
LayerCount: 2
Fore
SplineSet
330 0 m 1,0,-1
 330 1215 l 1,1,-1
 85 1120 l 1,2,-1
 32 1300 l 1,3,-1
 398 1513 l 1,4,-1
 582 1513 l 1,5,-1
 582 0 l 1,6,-1
 330 0 l 1,0,-1
EndSplineSet
Substitution2: "'frac' Diagonal Fractions in Latin lookup 24 subtable" one.numr
Substitution2: "'dnom' Denominators in Latin lookup 22 subtable" one.dnom
Substitution2: "'numr' Numerators in Latin lookup 21 subtable" one.numr
Substitution2: "'sups' Superscript in Latin lookup 20 subtable" uni00B9
Substitution2: "'subs' Subscript in Latin lookup 19 subtable" uni2081
AlternateSubs2: "'aalt' Access All Alternates in Latin lookup 1 subtable" uni2081 one.dnom one.numr uni00B9
EndChar

StartChar: two
Encoding: 50 50 476
Width: 922
VWidth: 2424
GlyphClass: 1
Flags: HW
LayerCount: 2
Fore
SplineSet
64 192 m 1,0,1
 214 364 214 364 323.5 490 c 128,-1,2
 433 616 433 616 505.5 715 c 128,-1,3
 578 814 578 814 613 905.5 c 128,-1,4
 648 997 648 997 651 1096 c 0,5,6
 651 1309 651 1309 473 1309 c 0,7,8
 408 1309 408 1309 355.5 1285 c 128,-1,9
 303 1261 303 1261 262 1205 c 0,10,11
 241 1171 241 1171 236 1154.5 c 128,-1,12
 231 1138 231 1138 234 1118 c 1,13,-1
 222 1101 l 1,14,-1
 203 1113 l 1,15,-1
 32 1236 l 1,16,17
 102 1377 102 1377 217 1453 c 128,-1,18
 332 1529 332 1529 475 1529 c 0,19,20
 592 1529 592 1529 685 1477 c 128,-1,21
 778 1425 778 1425 831.5 1327 c 128,-1,22
 885 1229 885 1229 885 1094 c 0,23,24
 885 939 885 939 822 806.5 c 128,-1,25
 759 674 759 674 646.5 534.5 c 128,-1,26
 534 395 534 395 384 218 c 1,27,-1
 782 218 l 2,28,29
 820 218 820 218 838 221.5 c 128,-1,30
 856 225 856 225 869 240 c 1,31,-1
 890 240 l 1,32,-1
 890 0 l 1,33,-1
 64 0 l 1,34,-1
 64 192 l 1,0,1
EndSplineSet
Substitution2: "'frac' Diagonal Fractions in Latin lookup 24 subtable" two.numr
Substitution2: "'dnom' Denominators in Latin lookup 22 subtable" two.dnom
Substitution2: "'numr' Numerators in Latin lookup 21 subtable" two.numr
Substitution2: "'sups' Superscript in Latin lookup 20 subtable" uni00B2
Substitution2: "'subs' Subscript in Latin lookup 19 subtable" uni2082
AlternateSubs2: "'aalt' Access All Alternates in Latin lookup 1 subtable" uni2082 two.dnom two.numr uni00B2
EndChar

StartChar: three
Encoding: 51 51 477
Width: 922
VWidth: 2424
GlyphClass: 1
Flags: HW
LayerCount: 2
Fore
SplineSet
445 -27 m 0,0,1
 324 -27 324 -27 212.5 19 c 128,-1,2
 101 65 101 65 32 157 c 1,3,-1
 166 335 l 1,4,-1
 180 352 l 1,5,-1
 197 340 l 1,6,7
 199 321 199 321 205 302.5 c 128,-1,8
 211 284 211 284 237 255 c 1,9,10
 276 221 276 221 324 201.5 c 128,-1,11
 372 182 372 182 434 182 c 0,12,13
 532 182 532 182 586.5 247.5 c 128,-1,14
 641 313 641 313 641 426 c 0,15,16
 641 581 641 581 554 641 c 128,-1,17
 491.108433735 684.373493976 491.108433735 684.373493976 382.230512411 684.373493976 c 0,0,0
 340.493975904 684.373493976 340.493975904 684.373493976 292 678 c 1,18,-1
 292 885 l 1,19,20
 299.582089552 884.880597015 299.582089552 884.880597015 306.957451548 884.880597015 c 0,0,0
 423.119402985 884.880597015 423.119402985 884.880597015 488 914.5 c 128,-1,21
 557 946 557 946 583.5 1001.5 c 128,-1,22
 610 1057 610 1057 610 1122 c 0,23,24
 610 1212 610 1212 564 1264 c 128,-1,25
 518 1316 518 1316 438 1316 c 0,26,27
 376 1316 376 1316 317 1288.5 c 128,-1,28
 258 1261 258 1261 214 1203 c 1,29,-1
 62 1344 l 1,30,31
 139 1443 139 1443 242 1486 c 128,-1,32
 345 1529 345 1529 448 1529 c 0,33,34
 625 1529 625 1529 738 1424 c 128,-1,35
 851 1319 851 1319 851 1145 c 0,36,37
 851 1020 851 1020 790.5 931 c 128,-1,38
 730 842 730 842 644 803 c 1,39,40
 742 764 742 764 816 670.5 c 128,-1,41
 890 577 890 577 890 419 c 0,42,43
 890 288 890 288 836.5 188 c 128,-1,44
 783 88 783 88 682.5 30.5 c 128,-1,45
 582 -27 582 -27 445 -27 c 0,0,1
EndSplineSet
Substitution2: "'frac' Diagonal Fractions in Latin lookup 24 subtable" three.numr
Substitution2: "'dnom' Denominators in Latin lookup 22 subtable" three.dnom
Substitution2: "'numr' Numerators in Latin lookup 21 subtable" three.numr
Substitution2: "'sups' Superscript in Latin lookup 20 subtable" uni00B3
Substitution2: "'subs' Subscript in Latin lookup 19 subtable" uni2083
AlternateSubs2: "'aalt' Access All Alternates in Latin lookup 1 subtable" uni2083 three.dnom three.numr uni00B3
EndChar

StartChar: four
Encoding: 52 52 478
Width: 922
VWidth: 2424
GlyphClass: 1
Flags: HW
LayerCount: 2
Fore
SplineSet
259 567 m 1,0,-1
 518 567 l 1,1,-1
 518 1060 l 1,2,-1
 259 567 l 1,0,-1
514 0 m 1,3,-1
 514 356 l 1,4,-1
 32 356 l 1,5,-1
 32 536 l 1,6,-1
 567 1513 l 1,7,-1
 734 1513 l 1,8,-1
 734 569 l 1,9,-1
 890 569 l 1,10,-1
 890 354 l 1,11,-1
 734 354 l 1,12,-1
 734 0 l 1,13,-1
 514 0 l 1,3,-1
EndSplineSet
Substitution2: "'frac' Diagonal Fractions in Latin lookup 24 subtable" four.numr
Substitution2: "'dnom' Denominators in Latin lookup 22 subtable" four.dnom
Substitution2: "'numr' Numerators in Latin lookup 21 subtable" four.numr
Substitution2: "'sups' Superscript in Latin lookup 20 subtable" uni2074
Substitution2: "'subs' Subscript in Latin lookup 19 subtable" uni2084
AlternateSubs2: "'aalt' Access All Alternates in Latin lookup 1 subtable" uni2084 four.dnom four.numr uni2074
EndChar

StartChar: five
Encoding: 53 53 479
Width: 922
VWidth: 2424
GlyphClass: 1
Flags: HW
LayerCount: 2
Fore
SplineSet
453 -27 m 0,0,1
 315 -27 315 -27 204.5 30.5 c 128,-1,2
 94 88 94 88 32 208 c 1,3,-1
 205 349 l 1,4,-1
 221 363 l 1,5,-1
 235 347 l 1,6,7
 233 328 233 328 239 312 c 128,-1,8
 245 296 245 296 268 264 c 1,9,10
 337.113924051 186.987341772 337.113924051 186.987341772 445.221599103 186.987341772 c 0,0,0
 446.607594937 186.987341772 446.607594937 186.987341772 448 187 c 0,11,12
 542 187 542 187 599 269.5 c 128,-1,13
 656 352 656 352 656 481 c 0,14,15
 656 622 656 622 600 705 c 128,-1,16
 544 788 544 788 446 788 c 0,17,18
 315 788 315 788 235 674 c 1,19,-1
 86 713 l 1,20,-1
 132 1511 l 1,21,-1
 832 1511 l 1,22,-1
 832 1297 l 1,23,-1
 341 1297 l 1,24,-1
 322 944 l 1,25,26
 360 971 360 971 410 985 c 128,-1,27
 460 999 460 999 507 999 c 0,28,29
 680 999 680 999 785 870.5 c 128,-1,30
 890 742 890 742 890 495 c 128,-1,31
 890 248 890 248 767.5 110.5 c 128,-1,32
 645 -27 645 -27 453 -27 c 0,0,1
EndSplineSet
Substitution2: "'frac' Diagonal Fractions in Latin lookup 24 subtable" five.numr
Substitution2: "'dnom' Denominators in Latin lookup 22 subtable" five.dnom
Substitution2: "'numr' Numerators in Latin lookup 21 subtable" five.numr
Substitution2: "'sups' Superscript in Latin lookup 20 subtable" uni2075
Substitution2: "'subs' Subscript in Latin lookup 19 subtable" uni2085
AlternateSubs2: "'aalt' Access All Alternates in Latin lookup 1 subtable" uni2085 five.dnom five.numr uni2075
EndChar

StartChar: six
Encoding: 54 54 480
Width: 922
VWidth: 2424
GlyphClass: 1
Flags: HW
LayerCount: 2
Fore
SplineSet
481 187 m 0,0,1
 560 189 560 189 609.5 269 c 128,-1,2
 659 349 659 349 659 495 c 128,-1,3
 659 641 659 641 603.5 710.5 c 128,-1,4
 548 780 548 780 478 780 c 0,5,6
 414 780 414 780 365.5 737 c 128,-1,7
 317 694 317 694 281 623 c 1,8,9
 279.753846154 596.415384615 279.753846154 596.415384615 279.753846154 571.172781065 c 0,0,0
 279.753846154 414.107692308 279.753846154 414.107692308 328 309 c 128,-1,10
 384 187 384 187 481 187 c 0,0,1
476 -27 m 0,11,12
 260 -27 260 -27 146 164.5 c 128,-1,13
 32 356 32 356 32 691 c 0,14,15
 32 1101 32 1101 171 1316.5 c 128,-1,16
 310 1532 310 1532 533 1532 c 0,17,18
 623 1532 623 1532 712.5 1497 c 128,-1,19
 802 1462 802 1462 870 1382 c 1,20,-1
 735 1222 l 1,21,-1
 721 1203 l 1,22,-1
 707 1217 l 1,23,24
 705 1236 705 1236 693.5 1249.5 c 128,-1,25
 682 1263 682 1263 655 1287 c 1,26,27
 610 1314 610 1314 553 1314 c 0,28,29
 512 1314 512 1314 467 1297 c 128,-1,30
 422 1280 422 1280 381 1232.5 c 128,-1,31
 340 1185 340 1185 310.5 1097 c 128,-1,32
 281 1009 281 1009 274 865 c 1,33,34
 317 925 317 925 384 957.5 c 128,-1,35
 451 990 451 990 519 990 c 0,36,37
 678 990 678 990 784 866 c 128,-1,38
 890 742 890 742 890 497 c 0,39,40
 890 344 890 344 837 226.5 c 128,-1,41
 784 109 784 109 691.5 41 c 128,-1,42
 599 -27 599 -27 476 -27 c 0,11,12
EndSplineSet
Substitution2: "'frac' Diagonal Fractions in Latin lookup 24 subtable" six.numr
Substitution2: "'dnom' Denominators in Latin lookup 22 subtable" six.dnom
Substitution2: "'numr' Numerators in Latin lookup 21 subtable" six.numr
Substitution2: "'sups' Superscript in Latin lookup 20 subtable" uni2076
Substitution2: "'subs' Subscript in Latin lookup 19 subtable" uni2086
AlternateSubs2: "'aalt' Access All Alternates in Latin lookup 1 subtable" uni2086 six.dnom six.numr uni2076
EndChar

StartChar: seven
Encoding: 55 55 481
Width: 888
VWidth: 2424
GlyphClass: 1
Flags: HW
LayerCount: 2
Fore
SplineSet
157 0 m 1,0,1
 252 335 252 335 352.5 648.5 c 128,-1,2
 453 962 453 962 567 1284 c 1,3,-1
 32 1284 l 1,4,-1
 32 1511 l 1,5,-1
 856 1511 l 1,6,-1
 856 1365 l 1,7,8
 731 1028 731 1028 622.5 694.5 c 128,-1,9
 514 361 514 361 420 0 c 1,10,-1
 157 0 l 1,0,1
EndSplineSet
Substitution2: "'frac' Diagonal Fractions in Latin lookup 24 subtable" seven.numr
Substitution2: "'dnom' Denominators in Latin lookup 22 subtable" seven.dnom
Substitution2: "'numr' Numerators in Latin lookup 21 subtable" seven.numr
Substitution2: "'sups' Superscript in Latin lookup 20 subtable" uni2077
Substitution2: "'subs' Subscript in Latin lookup 19 subtable" uni2087
AlternateSubs2: "'aalt' Access All Alternates in Latin lookup 1 subtable" uni2087 seven.dnom seven.numr uni2077
EndChar

StartChar: eight
Encoding: 56 56 482
Width: 922
VWidth: 2424
GlyphClass: 1
Flags: HW
LayerCount: 2
Fore
SplineSet
464 192 m 0,0,1
 556 192 556 192 604.5 250 c 128,-1,2
 653 308 653 308 653 407 c 0,3,4
 653 509 653 509 592 583 c 128,-1,5
 531 657 531 657 427 701 c 1,6,7
 356 655 356 655 312.5 584.5 c 128,-1,8
 269 514 269 514 269 414 c 0,9,10
 269 312 269 312 321.5 252 c 128,-1,11
 374 192 374 192 464 192 c 0,0,1
501 888 m 1,12,13
 558 934 558 934 588 1002.5 c 128,-1,14
 618 1071 618 1071 618 1147 c 0,15,16
 618 1219 618 1219 577.5 1269 c 128,-1,17
 537 1319 537 1319 467 1319 c 0,18,19
 393 1319 393 1319 356 1270.5 c 128,-1,20
 319 1222 319 1222 319 1152 c 0,21,22
 319 1060 319 1060 370.5 997 c 128,-1,23
 422 934 422 934 501 888 c 1,12,13
460 -27 m 0,24,25
 329 -27 329 -27 233.5 26.5 c 128,-1,26
 138 80 138 80 85 173 c 128,-1,27
 32 266 32 266 32 386 c 0,28,29
 32 534 32 534 99 638 c 128,-1,30
 166 742 166 742 276 807 c 1,31,32
 193 865 193 865 143.5 955 c 128,-1,33
 94 1045 94 1045 94 1149 c 0,34,35
 94 1314 94 1314 195 1424 c 128,-1,36
 296 1534 296 1534 471 1534 c 0,37,38
 653 1534 653 1534 749.5 1427.5 c 128,-1,39
 846 1321 846 1321 846 1164 c 0,40,41
 846 1046 846 1046 800 952 c 128,-1,42
 754 858 754 858 671 798 c 1,43,44
 890 667 890 667 890 395 c 0,45,46
 890 208 890 208 772.5 90.5 c 128,-1,47
 655 -27 655 -27 460 -27 c 0,24,25
EndSplineSet
Substitution2: "'frac' Diagonal Fractions in Latin lookup 24 subtable" eight.numr
Substitution2: "'dnom' Denominators in Latin lookup 22 subtable" eight.dnom
Substitution2: "'numr' Numerators in Latin lookup 21 subtable" eight.numr
Substitution2: "'sups' Superscript in Latin lookup 20 subtable" uni2078
Substitution2: "'subs' Subscript in Latin lookup 19 subtable" uni2088
AlternateSubs2: "'aalt' Access All Alternates in Latin lookup 1 subtable" uni2088 eight.dnom eight.numr uni2078
EndChar

StartChar: nine
Encoding: 57 57 483
Width: 922
VWidth: 2424
GlyphClass: 1
Flags: HW
LayerCount: 2
Fore
SplineSet
265 1013 m 0,0,1
 265 884 265 884 321 818 c 128,-1,2
 377 752 377 752 460 752 c 0,3,4
 522 752 522 752 572 770 c 128,-1,5
 622 788 622 788 660 835 c 1,6,7
 658 1104 658 1104 608 1211.5 c 128,-1,8
 558 1319 558 1319 458 1319 c 0,9,10
 370 1319 370 1319 317.5 1240 c 128,-1,11
 265 1161 265 1161 265 1013 c 0,0,1
410 -27 m 0,12,13
 306 -27 306 -27 212 5 c 128,-1,14
 118 37 118 37 44 111 c 1,15,-1
 170 301 l 1,16,-1
 182 320 l 1,17,-1
 200 308 l 1,18,19
 202 289 202 289 211 272 c 128,-1,20
 220 255 220 255 250 231 c 1,21,22
 314 190 314 190 398 189 c 0,23,24
 505 189 505 189 569 305 c 128,-1,25
 633 421 633 421 653 606 c 1,26,27
 562 541 562 541 441 541 c 0,28,29
 327 541 327 541 234 599 c 128,-1,30
 141 657 141 657 86.5 764.5 c 128,-1,31
 32 872 32 872 32 1020 c 0,32,33
 32 1170 32 1170 89 1286 c 128,-1,34
 146 1402 146 1402 244.5 1465.5 c 128,-1,35
 343 1529 343 1529 465 1529 c 0,36,37
 676 1529 676 1529 783 1353.5 c 128,-1,38
 890 1178 890 1178 890 842 c 0,39,40
 890 408 890 408 766.5 191.5 c 128,-1,41
 643 -25 643 -25 410 -27 c 0,12,13
EndSplineSet
Substitution2: "'frac' Diagonal Fractions in Latin lookup 24 subtable" nine.numr
Substitution2: "'dnom' Denominators in Latin lookup 22 subtable" nine.dnom
Substitution2: "'numr' Numerators in Latin lookup 21 subtable" nine.numr
Substitution2: "'sups' Superscript in Latin lookup 20 subtable" uni2079
Substitution2: "'subs' Subscript in Latin lookup 19 subtable" uni2089
AlternateSubs2: "'aalt' Access All Alternates in Latin lookup 1 subtable" uni2089 nine.dnom nine.numr uni2079
EndChar

StartChar: zero.zero
Encoding: 65541 -1 484
Width: 922
VWidth: 2424
GlyphClass: 1
Flags: HW
LayerCount: 2
Fore
SplineSet
462 618 m 128,-1,1
 406 618 406 618 366.5 660.5 c 128,-1,2
 327 703 327 703 327 766 c 0,3,4
 327 824 327 824 367.5 866.5 c 128,-1,5
 408 909 408 909 462 909 c 0,6,7
 518 909 518 909 558.5 866.5 c 128,-1,8
 599 824 599 824 599 766 c 0,9,10
 599 706 599 706 558.5 662 c 128,-1,0
 518 618 518 618 462 618 c 128,-1,1
462 178 m 0,11,12
 670 178 670 178 670 747 c 0,13,14
 670 1018 670 1018 618.5 1167 c 128,-1,15
 567 1316 567 1316 462 1316 c 0,16,17
 359 1316 359 1316 305 1167 c 128,-1,18
 251 1018 251 1018 251 747 c 0,19,20
 251 178 251 178 462 178 c 0,11,12
462 -27 m 128,-1,22
 265 -27 265 -27 148.5 167 c 128,-1,23
 32 361 32 361 32 747 c 0,24,25
 32 1125 32 1125 148.5 1327 c 128,-1,26
 265 1529 265 1529 462 1529 c 128,-1,27
 659 1529 659 1529 774.5 1327 c 128,-1,28
 890 1125 890 1125 890 747 c 0,29,30
 890 361 890 361 774.5 167 c 128,-1,21
 659 -27 659 -27 462 -27 c 128,-1,22
EndSplineSet
EndChar

StartChar: zero.ss02
Encoding: 65542 -1 485
Width: 922
VWidth: 2424
GlyphClass: 1
Flags: HW
LayerCount: 2
Fore
SplineSet
462 178 m 0,0,1
 670 178 670 178 670 747 c 0,2,3
 670 1018 670 1018 618.5 1167 c 128,-1,4
 567 1316 567 1316 462 1316 c 0,5,6
 359 1316 359 1316 305 1167 c 128,-1,7
 251 1018 251 1018 251 747 c 0,8,9
 251 178 251 178 462 178 c 0,0,1
462 -27 m 128,-1,11
 265 -27 265 -27 148.5 167 c 128,-1,12
 32 361 32 361 32 747 c 0,13,14
 32 1125 32 1125 148.5 1327 c 128,-1,15
 265 1529 265 1529 462 1529 c 128,-1,16
 659 1529 659 1529 774.5 1327 c 128,-1,17
 890 1125 890 1125 890 747 c 0,18,19
 890 361 890 361 774.5 167 c 128,-1,10
 659 -27 659 -27 462 -27 c 128,-1,11
EndSplineSet
EndChar

StartChar: uni2070
Encoding: 8304 8304 516
Width: 704
VWidth: 2424
GlyphClass: 1
Flags: HW
LayerCount: 2
Fore
SplineSet
353 722 m 0,0,1
 506 722 506 722 506 1060 c 0,2,3
 506 1111 506 1111 503 1152 c 1,4,-1
 226 837 l 1,5,6
 265 722 265 722 353 722 c 0,0,1
200 1060 m 0,7,8
 200 1009 200 1009 202 967 c 1,9,-1
 476 1287 l 1,10,11
 439 1396 439 1396 353 1397 c 0,12,13
 278 1397 278 1397 239 1309.5 c 128,-1,14
 200 1222 200 1222 200 1060 c 0,7,8
353 579 m 128,-1,16
 207 579 207 579 119.5 700.5 c 128,-1,17
 32 822 32 822 32 1060 c 0,18,19
 32 1296 32 1296 119.5 1421.5 c 128,-1,20
 207 1547 207 1547 353 1547 c 128,-1,21
 499 1547 499 1547 585.5 1421 c 128,-1,22
 672 1295 672 1295 672 1060 c 0,23,24
 672 822 672 822 585.5 700.5 c 128,-1,15
 499 579 499 579 353 579 c 128,-1,16
EndSplineSet
Substitution2: "'ss02' Style Set 2 in Latin lookup 36 subtable" uni2070.ss02
Substitution2: "'zero' Slashed Zero in Latin lookup 33 subtable" uni2070.zero
AlternateSubs2: "'aalt' Access All Alternates in Latin lookup 1 subtable" uni2070.ss02 uni2070.zero
EndChar

StartChar: uni00B9
Encoding: 185 185 517
Width: 445
VWidth: 2424
GlyphClass: 1
Flags: HW
LayerCount: 2
Fore
SplineSet
231 597 m 1,0,-1
 231 1331 l 1,1,-1
 71 1270 l 1,2,-1
 32 1399 l 1,3,-1
 277 1534 l 1,4,-1
 413 1534 l 1,5,-1
 413 597 l 1,6,-1
 231 597 l 1,0,-1
EndSplineSet
EndChar

StartChar: uni00B2
Encoding: 178 178 518
Width: 675
VWidth: 2424
GlyphClass: 1
Flags: HW
LayerCount: 2
Fore
SplineSet
53 727 m 1,0,1
 196 870 196 870 287 961 c 128,-1,2
 378 1052 378 1052 421.5 1122.5 c 128,-1,3
 465 1193 465 1193 468 1273 c 0,4,5
 468 1391 468 1391 345 1392 c 0,6,7
 275 1392 275 1392 227 1360 c 1,8,9
 200 1330 200 1330 193.5 1313.5 c 128,-1,10
 187 1297 187 1297 187 1277 c 1,11,-1
 172 1263 l 1,12,-1
 155 1277 l 1,13,-1
 32 1365 l 1,14,15
 136 1547 136 1547 347 1547 c 0,16,17
 470 1547 470 1547 555 1474.5 c 128,-1,18
 640 1402 640 1402 640 1275 c 0,19,20
 640 1180 640 1180 600 1101.5 c 128,-1,21
 560 1023 560 1023 486 940.5 c 128,-1,22
 412 858 412 858 308 749 c 1,23,-1
 530 749 l 2,24,25
 571 749 571 749 588.5 754 c 128,-1,26
 606 759 606 759 620 771 c 1,27,-1
 643 771 l 1,28,-1
 643 597 l 1,29,-1
 53 597 l 1,30,-1
 53 727 l 1,0,1
EndSplineSet
EndChar

StartChar: uni00B3
Encoding: 179 179 519
Width: 668
VWidth: 2424
GlyphClass: 1
Flags: HW
LayerCount: 2
Fore
SplineSet
322 579 m 0,0,1
 234 579 234 579 156 608.5 c 128,-1,2
 78 638 78 638 32 696 c 1,3,-1
 123 814 l 1,4,-1
 141 835 l 1,5,-1
 157 819 l 1,6,7
 157 800 157 800 168.5 785.5 c 128,-1,8
 180 771 180 771 208 747 c 1,9,10
 257 726 257 726 313 724 c 0,11,12
 380 724 380 724 418 761 c 128,-1,13
 456 798 456 798 456 863 c 0,14,15
 456 955 456 955 395.5 987.5 c 0,16,17
 350.298850575 1011.7816092 350.298850575 1011.7816092 271.884925353 1011.7816092 c 0,18,19
 245.344827586 1011.7816092 245.344827586 1011.7816092 215 1009 c 1,20,-1
 215 1154 l 1,21,22
 229.827586207 1153.42528736 229.827586207 1153.42528736 243.532170696 1153.42528736 c 0,23,24
 349.057471264 1153.42528736 349.057471264 1153.42528736 388 1187.5 c 0,25,26
 432 1226 432 1226 432 1284 c 0,27,28
 432 1335 432 1335 401.5 1366 c 128,-1,29
 371 1397 371 1397 317 1397 c 0,30,31
 220 1397 220 1397 160 1326 c 1,32,-1
 51 1428 l 1,33,34
 104 1491 104 1491 177 1519 c 128,-1,35
 250 1547 250 1547 322 1547 c 0,36,37
 445 1547 445 1547 527 1481.5 c 128,-1,38
 609 1416 609 1416 609 1307 c 0,39,40
 609 1227 609 1227 567.5 1172.5 c 128,-1,41
 526 1118 526 1118 470 1096 c 1,42,43
 533 1072 533 1072 584.5 1015 c 128,-1,44
 636 958 636 958 636 858 c 0,45,46
 636 735 636 735 552 657 c 128,-1,47
 468 579 468 579 322 579 c 0,0,1
EndSplineSet
EndChar

StartChar: uni2074
Encoding: 8308 8308 520
Width: 719
VWidth: 2424
GlyphClass: 1
Flags: HW
LayerCount: 2
Fore
SplineSet
218 960 m 1,0,-1
 398 960 l 1,1,-1
 398 1231 l 1,2,-1
 218 960 l 1,0,-1
395 597 m 1,3,-1
 395 812 l 1,4,-1
 32 812 l 1,5,-1
 32 933 l 1,6,-1
 437 1534 l 1,7,-1
 567 1534 l 1,8,-1
 567 962 l 1,9,-1
 687 962 l 1,10,-1
 687 810 l 1,11,-1
 567 810 l 1,12,-1
 567 597 l 1,13,-1
 395 597 l 1,3,-1
EndSplineSet
EndChar

StartChar: uni2075
Encoding: 8309 8309 521
Width: 677
VWidth: 2424
GlyphClass: 1
Flags: HW
LayerCount: 2
Fore
SplineSet
330 579 m 0,0,1
 231 579 231 579 152 614.5 c 128,-1,2
 73 650 73 650 32 727 c 1,3,-1
 155 826 l 1,4,-1
 173 842 l 1,5,-1
 185 824 l 1,6,7
 185 805 185 805 195.5 791.5 c 128,-1,8
 206 778 206 778 233 752 c 1,9,10
 274 731 274 731 328 729 c 0,11,12
 391 729 391 729 432.5 775.5 c 128,-1,13
 474 822 474 822 474 895 c 0,14,15
 474 975 474 975 434.5 1023 c 128,-1,16
 395 1071 395 1071 326 1071 c 0,17,18
 234 1071 234 1071 180 1004 c 1,19,-1
 69 1032 l 1,20,-1
 102 1532 l 1,21,-1
 601 1532 l 1,22,-1
 601 1384 l 1,23,-1
 255 1384 l 1,24,-1
 243 1185 l 1,25,26
 270 1199 270 1199 306 1209 c 128,-1,27
 342 1219 342 1219 374 1219 c 0,28,29
 495 1219 495 1219 570 1141.5 c 128,-1,30
 645 1064 645 1064 645 907 c 0,31,32
 645 752 645 752 558 665.5 c 128,-1,33
 471 579 471 579 330 579 c 0,0,1
EndSplineSet
EndChar

StartChar: uni2076
Encoding: 8310 8310 522
Width: 668
VWidth: 2424
GlyphClass: 1
Flags: HW
LayerCount: 2
Fore
SplineSet
347 729 m 0,0,1
 400 729 400 729 434.5 776.5 c 128,-1,2
 469 824 469 824 469 907 c 128,-1,3
 469 990 469 990 431 1028.5 c 128,-1,4
 393 1067 393 1067 347 1067 c 0,5,6
 303 1067 303 1067 270.5 1043.5 c 128,-1,7
 238 1020 238 1020 211 979 c 1,8,9
 210.898734177 973.025316456 210.898734177 973.025316456 210.898734177 967.183944881 c 0,10,11
 210.898734177 857.658227848 210.898734177 857.658227848 246.5 795 c 0,12,13
 284 729 284 729 347 729 c 0,0,1
345 579 m 0,14,15
 192 579 192 579 112 699 c 128,-1,16
 32 819 32 819 32 1025 c 0,17,18
 32 1277 32 1277 130.5 1412 c 128,-1,19
 229 1547 229 1547 384 1547 c 0,20,21
 447 1547 447 1547 511 1525 c 128,-1,22
 575 1503 575 1503 624 1453 c 1,23,-1
 529 1344 l 1,24,-1
 514 1324 l 1,25,-1
 500 1338 l 1,26,27
 498 1357 498 1357 483.5 1364.5 c 128,-1,28
 469 1372 469 1372 434 1390 c 1,29,30
 420 1392 420 1392 398 1392 c 0,31,32
 361 1392 361 1392 320 1375 c 128,-1,33
 279 1358 279 1358 249 1304.5 c 128,-1,34
 219 1251 219 1251 208 1145 c 1,35,36
 238 1179 238 1179 284 1197 c 128,-1,37
 330 1215 330 1215 376 1215 c 0,38,39
 487 1215 487 1215 561.5 1139.5 c 128,-1,40
 636 1064 636 1064 636 909 c 0,41,42
 636 763 636 763 556 671 c 128,-1,43
 476 579 476 579 345 579 c 0,14,15
EndSplineSet
EndChar

StartChar: uni2077
Encoding: 8311 8311 523
Width: 635
VWidth: 2424
GlyphClass: 1
Flags: HW
LayerCount: 2
Fore
SplineSet
117 597 m 1,0,1
 182 801 182 801 251.5 989.5 c 128,-1,2
 321 1178 321 1178 399 1374 c 1,3,-1
 32 1374 l 1,4,-1
 32 1532 l 1,5,-1
 603 1532 l 1,6,-1
 603 1428 l 1,7,8
 518 1222 518 1222 443.5 1020.5 c 128,-1,9
 369 819 369 819 304 597 c 1,10,-1
 117 597 l 1,0,1
EndSplineSet
EndChar

StartChar: uni2078
Encoding: 8312 8312 524
Width: 687
VWidth: 2424
GlyphClass: 1
Flags: HW
LayerCount: 2
Fore
SplineSet
345 732 m 0,0,1
 477.029411765 732 477.029411765 732 477.029411765 850.438148789 c 0,2,3
 477.029411765 913.971910112 477.029411765 913.971910112 432.5 956.5 c 128,-1,4
 388 999 388 999 315 1023 c 1,5,6
 264 993 264 993 235 954.5 c 128,-1,7
 206 916 206 916 206 858 c 0,8,9
 206 798 206 798 244 765 c 128,-1,10
 282 732 282 732 345 732 c 0,0,1
371 1149 m 1,11,12
 412 1176 412 1176 432.5 1217 c 128,-1,13
 453 1258 453 1258 453 1300 c 0,14,15
 453 1341 453 1341 424 1369 c 128,-1,16
 395 1397 395 1397 347 1397 c 0,17,18
 298 1397 298 1397 270.5 1370.5 c 128,-1,19
 243 1344 243 1344 243 1305 c 0,20,21
 243 1252 243 1252 280.5 1214 c 128,-1,22
 318 1176 318 1176 371 1149 c 1,11,12
342 579 m 128,-1,24
 201 579 201 579 116.5 651.5 c 128,-1,25
 32 724 32 724 32 837 c 0,26,27
 32 932 32 932 76.5 994.5 c 128,-1,28
 121 1057 121 1057 197 1099 c 1,29,30
 141 1136 141 1136 108.5 1189 c 128,-1,31
 76 1242 76 1242 76 1305 c 0,32,33
 76 1412 76 1412 150.5 1481 c 128,-1,34
 225 1550 225 1550 352 1550 c 0,35,36
 481 1550 481 1550 552 1483 c 128,-1,37
 623 1416 623 1416 623 1314 c 0,38,39
 623 1166 623 1166 509 1091 c 1,40,41
 655 1008 655 1008 655 844 c 0,42,43
 655 726 655 726 569 652.5 c 128,-1,23
 483 579 483 579 342 579 c 128,-1,24
EndSplineSet
EndChar

StartChar: uni2079
Encoding: 8313 8313 525
Width: 668
VWidth: 2424
GlyphClass: 1
Flags: HW
LayerCount: 2
Fore
SplineSet
199 1219 m 0,0,1
 201 1147 201 1147 239 1109 c 128,-1,2
 277 1071 277 1071 335 1071 c 0,3,4
 374 1071 374 1071 408 1081 c 128,-1,5
 442 1091 442 1091 468 1118 c 1,6,7
 466 1278 466 1278 432 1338.5 c 128,-1,8
 398 1399 398 1399 333 1399 c 0,9,10
 273 1399 273 1399 236 1353 c 128,-1,11
 199 1307 199 1307 199 1219 c 0,0,1
298 579 m 0,12,13
 226 579 226 579 158 598.5 c 128,-1,14
 90 618 90 618 37 666 c 1,15,-1
 129 798 l 1,16,-1
 143 817 l 1,17,-1
 160 805 l 1,18,19
 165 786 165 786 177 773.5 c 128,-1,20
 189 761 189 761 220 740 c 1,21,22
 252 731 252 731 291 729 c 0,23,24
 358 729 358 729 402 791.5 c 128,-1,25
 446 854 446 854 461 960 c 1,26,27
 401 923 401 923 317 923 c 0,28,29
 196 923 196 923 114 1003 c 128,-1,30
 32 1083 32 1083 32 1226 c 128,-1,31
 32 1369 32 1369 120 1458 c 128,-1,32
 208 1547 208 1547 337 1547 c 0,33,34
 635 1547 635 1547 636 1113 c 0,35,36
 636 847 636 847 549.5 713 c 128,-1,37
 463 579 463 579 298 579 c 0,12,13
EndSplineSet
EndChar

StartChar: fraction
Encoding: 8260 8260 526
Width: 889
VWidth: 2424
GlyphClass: 1
Flags: HW
LayerCount: 2
Fore
SplineSet
175 -104 m 1,0,-1
 32 -19 l 1,1,-1
 714 1627 l 1,2,-1
 857 1539 l 1,3,-1
 175 -104 l 1,0,-1
EndSplineSet
EndChar

StartChar: onehalf
Encoding: 189 189 527
Width: 876
VWidth: 2424
GlyphClass: 1
Flags: HW
LayerCount: 2
Fore
SplineSet
473 -169 m 1,0,-1
 473 -58 l 1,1,2
 564 56 564 56 623 126.5 c 128,-1,3
 682 197 682 197 709.5 250 c 128,-1,4
 737 303 737 303 737 366 c 0,5,6
 737 403 737 403 719 426 c 128,-1,7
 701 449 701 449 661 449 c 128,-1,8
 621 449 621 449 594.5 430.5 c 128,-1,9
 568 412 568 412 545 363 c 1,10,-1
 457 442 l 1,11,12
 491 507 491 507 543.5 544.5 c 128,-1,13
 596 582 596 582 663 582 c 0,14,15
 744 582 744 582 801 525 c 128,-1,16
 858 468 858 468 858 368 c 0,17,18
 858 293 858 293 835 233.5 c 128,-1,19
 812 174 812 174 766.5 111.5 c 128,-1,20
 721 49 721 49 653 -39 c 1,21,-1
 860 -39 l 1,22,-1
 860 -169 l 1,23,-1
 473 -169 l 1,0,-1
205 -104 m 1,24,-1
 87 -19 l 1,25,-1
 646 1627 l 1,26,-1
 763 1539 l 1,27,-1
 205 -104 l 1,24,-1
130 921 m 1,28,-1
 130 1488 l 1,29,-1
 30 1441 l 1,30,-1
 2 1557 l 1,31,-1
 163 1663 l 1,32,-1
 259 1663 l 1,33,-1
 259 921 l 1,34,-1
 130 921 l 1,28,-1
EndSplineSet
EndChar

StartChar: onequarter
Encoding: 188 188 528
Width: 868
VWidth: 2424
GlyphClass: 1
Flags: HW
LayerCount: 2
Fore
SplineSet
562 125 m 1,0,-1
 663 125 l 1,1,-1
 663 315 l 1,2,-1
 562 125 l 1,0,-1
658 -169 m 1,3,-1
 658 -2 l 1,4,-1
 433 -2 l 1,5,-1
 433 102 l 1,6,-1
 688 572 l 1,7,-1
 781 572 l 1,8,-1
 781 129 l 1,9,-1
 856 129 l 1,10,-1
 856 -2 l 1,11,-1
 781 -2 l 1,12,-1
 781 -169 l 1,13,-1
 658 -169 l 1,3,-1
200 -104 m 1,14,-1
 83 -19 l 1,15,-1
 639 1627 l 1,16,-1
 756 1539 l 1,17,-1
 200 -104 l 1,14,-1
125 921 m 1,18,-1
 125 1488 l 1,19,-1
 26 1441 l 1,20,-1
 -2 1557 l 1,21,-1
 158 1663 l 1,22,-1
 254 1663 l 1,23,-1
 254 921 l 1,24,-1
 125 921 l 1,18,-1
EndSplineSet
EndChar

StartChar: threequarters
Encoding: 190 190 529
Width: 839
VWidth: 2424
GlyphClass: 1
Flags: HW
LayerCount: 2
Fore
SplineSet
640 125 m 1,0,-1
 640 315 l 1,1,-1
 542 125 l 1,2,-1
 640 125 l 1,0,-1
636 -2 m 1,3,-1
 418 -2 l 1,4,-1
 418 102 l 1,5,-1
 665 572 l 1,6,-1
 754 572 l 1,7,-1
 754 129 l 1,8,-1
 827 129 l 1,9,-1
 827 -2 l 1,10,-1
 754 -2 l 1,11,-1
 754 -169 l 1,12,-1
 636 -169 l 1,13,-1
 636 -2 l 1,3,-1
192 -104 m 1,14,-1
 79 -19 l 1,15,-1
 617 1627 l 1,16,-1
 730 1539 l 1,17,-1
 192 -104 l 1,14,-1
154 907 m 0,18,19
 99 907 99 907 48 930 c 128,-1,20
 -3 953 -3 953 -31 999 c 1,21,-1
 30 1103 l 1,22,-1
 42 1122 l 1,23,-1
 55 1110 l 1,24,25
 55 1093 55 1093 63.5 1080 c 128,-1,26
 72 1067 72 1067 95 1045 c 1,27,28
 116 1033 116 1033 148 1032 c 0,29,30
 230 1032 230 1032 230 1132 c 0,31,32
 230 1202 230 1202 195 1228 c 128,-1,33
 171.052631579 1245.78947368 171.052631579 1245.78947368 128.847645429 1245.78947368 c 0,0,0
 109.368421053 1245.78947368 109.368421053 1245.78947368 86 1242 c 1,34,-1
 86 1365 l 1,35,36
 91.2881355932 1364.86440678 91.2881355932 1364.86440678 96.3441539787 1364.86440678 c 0,0,0
 165.86440678 1364.86440678 165.86440678 1364.86440678 191.5 1390.5 c 128,-1,37
 219 1418 219 1418 219 1460 c 0,38,39
 219 1545 219 1545 148 1545 c 0,40,41
 89 1545 89 1545 53 1488 c 1,42,-1
 -20 1578 l 1,43,44
 13 1627 13 1627 60.5 1650 c 128,-1,45
 108 1673 108 1673 154 1673 c 0,46,47
 232 1673 232 1673 285 1621 c 128,-1,48
 338 1569 338 1569 338 1481 c 0,49,50
 338 1418 338 1418 311.5 1375.5 c 128,-1,51
 285 1333 285 1333 254 1316 c 1,52,53
 290 1297 290 1297 322.5 1252 c 128,-1,54
 355 1207 355 1207 355 1127 c 0,55,56
 355 1030 355 1030 300 968.5 c 128,-1,57
 245 907 245 907 154 907 c 0,18,19
EndSplineSet
EndChar

StartChar: uni2070.ss02
Encoding: 65566 -1 533
Width: 704
VWidth: 2424
GlyphClass: 1
Flags: HW
LayerCount: 2
Fore
SplineSet
353 722 m 128,-1,1
 506 722 506 722 506 1060 c 0,2,3
 506 1222 506 1222 468 1309.5 c 128,-1,4
 430 1397 430 1397 353 1397 c 0,5,6
 278 1397 278 1397 239 1309.5 c 128,-1,7
 200 1222 200 1222 200 1060 c 0,8,0
 200 722 200 722 353 722 c 128,-1,1
353 579 m 128,-1,10
 207 579 207 579 119.5 700.5 c 128,-1,11
 32 822 32 822 32 1060 c 0,12,13
 32 1296 32 1296 119.5 1421.5 c 128,-1,14
 207 1547 207 1547 353 1547 c 128,-1,15
 499 1547 499 1547 585.5 1421 c 128,-1,16
 672 1295 672 1295 672 1060 c 0,17,18
 672 822 672 822 585.5 700.5 c 128,-1,9
 499 579 499 579 353 579 c 128,-1,10
EndSplineSet
EndChar

StartChar: uni2070.zero
Encoding: 65570 -1 537
Width: 704
VWidth: 2424
GlyphClass: 1
Flags: HW
LayerCount: 2
Fore
SplineSet
358 1006 m 128,-1,1
 324 1006 324 1006 299.5 1030.5 c 128,-1,2
 275 1055 275 1055 275 1089 c 128,-1,3
 275 1123 275 1123 299 1147 c 128,-1,4
 323 1171 323 1171 358 1171 c 0,5,6
 392 1171 392 1171 417.5 1146.5 c 128,-1,7
 443 1122 443 1122 443 1089 c 0,8,9
 443 1055 443 1055 417.5 1030.5 c 128,-1,0
 392 1006 392 1006 358 1006 c 128,-1,1
353 722 m 128,-1,11
 506 722 506 722 506 1060 c 0,12,13
 506 1222 506 1222 468 1309.5 c 128,-1,14
 430 1397 430 1397 353 1397 c 0,15,16
 278 1397 278 1397 239 1309.5 c 128,-1,17
 200 1222 200 1222 200 1060 c 0,18,10
 200 722 200 722 353 722 c 128,-1,11
353 579 m 128,-1,20
 207 579 207 579 119.5 700.5 c 128,-1,21
 32 822 32 822 32 1060 c 0,22,23
 32 1296 32 1296 119.5 1421.5 c 128,-1,24
 207 1547 207 1547 353 1547 c 128,-1,25
 499 1547 499 1547 585.5 1421 c 128,-1,26
 672 1295 672 1295 672 1060 c 0,27,28
 672 822 672 822 585.5 700.5 c 128,-1,19
 499 579 499 579 353 579 c 128,-1,20
EndSplineSet
EndChar

StartChar: period
Encoding: 46 46 538
Width: 406
VWidth: 2590
GlyphClass: 1
Flags: HW
LayerCount: 2
Fore
SplineSet
204 136 m 0,0,1
 132 136 132 136 82 186 c 128,-1,2
 32 236 32 236 32 309 c 0,3,4
 32 379 32 379 81.5 429 c 128,-1,5
 131 479 131 479 204 479 c 0,6,7
 274 479 274 479 324 429 c 128,-1,8
 374 379 374 379 374 309 c 0,9,10
 374 237 374 237 324 186.5 c 128,-1,11
 274 136 274 136 204 136 c 0,0,1
EndSplineSet
EndChar

StartChar: comma
Encoding: 44 44 539
Width: 456
VWidth: 2590
GlyphClass: 1
Flags: HW
LayerCount: 2
Fore
SplineSet
172 -246 m 1,0,-1
 32 -132 l 1,1,2
 95 -69 95 -69 130 -6 c 128,-1,3
 165 57 165 57 165 101 c 0,4,5
 165 135 165 135 139.5 165.5 c 128,-1,6
 114 196 114 196 88.5 230.5 c 128,-1,7
 63 265 63 265 63 321 c 0,8,9
 63 396 63 396 114 438.5 c 128,-1,10
 165 481 165 481 236 481 c 0,11,12
 319 481 319 481 371.5 419.5 c 128,-1,13
 424 358 424 358 424 254 c 0,14,15
 424 25 424 25 172 -246 c 1,0,-1
EndSplineSet
EndChar

StartChar: colon
Encoding: 58 58 540
Width: 406
VWidth: 2699
GlyphClass: 1
Flags: HW
LayerCount: 2
Fore
SplineSet
201 245 m 128,-1,1
 129 245 129 245 80.5 296 c 128,-1,2
 32 347 32 347 32 416 c 0,3,4
 32 486 32 486 81.5 539 c 128,-1,5
 131 592 131 592 201 592 c 0,6,7
 266 592 266 592 320 540 c 128,-1,8
 374 488 374 488 374 416 c 0,9,10
 374 351 374 351 323.5 298 c 128,-1,0
 273 245 273 245 201 245 c 128,-1,1
201 990 m 0,11,12
 131 990 131 990 81.5 1042 c 128,-1,13
 32 1094 32 1094 32 1163 c 0,14,15
 32 1230 32 1230 81.5 1282.5 c 128,-1,16
 131 1335 131 1335 201 1335 c 0,17,18
 266 1335 266 1335 320 1285 c 128,-1,19
 374 1235 374 1235 374 1163 c 0,20,21
 374 1096 374 1096 323.5 1043 c 128,-1,22
 273 990 273 990 201 990 c 0,11,12
EndSplineSet
EndChar

StartChar: semicolon
Encoding: 59 59 541
Width: 457
VWidth: 2699
GlyphClass: 1
Flags: HW
LayerCount: 2
Fore
SplineSet
173 -137 m 1,0,-1
 32 -23 l 1,1,2
 95 40 95 40 130.5 103 c 128,-1,3
 166 166 166 166 166 210 c 0,4,5
 166 244 166 244 140.5 274.5 c 128,-1,6
 115 305 115 305 89.5 339.5 c 128,-1,7
 64 374 64 374 64 430 c 0,8,9
 64 505 64 505 115 547.5 c 128,-1,10
 166 590 166 590 236 590 c 0,11,12
 321 590 321 590 373 528.5 c 128,-1,13
 425 467 425 467 425 363 c 0,14,15
 425 134 425 134 173 -137 c 1,0,-1
224 990 m 0,16,17
 154 990 154 990 104 1042 c 128,-1,18
 54 1094 54 1094 54 1163 c 0,19,20
 54 1230 54 1230 104 1282.5 c 128,-1,21
 154 1335 154 1335 224 1335 c 0,22,23
 289 1335 289 1335 343 1285 c 128,-1,24
 397 1235 397 1235 397 1163 c 0,25,26
 397 1096 397 1096 346.5 1043 c 128,-1,27
 296 990 296 990 224 990 c 0,16,17
EndSplineSet
EndChar

StartChar: ellipsis
Encoding: 8230 8230 542
Width: 884
VWidth: 2424
GlyphClass: 1
Flags: HW
LayerCount: 2
Fore
SplineSet
123 -27 m 0,0,1
 72 -27 72 -27 36 18 c 128,-1,2
 0 63 0 63 0 125 c 0,3,4
 0 188 0 188 36 233.5 c 128,-1,5
 72 279 72 279 123 279 c 0,6,7
 172 279 172 279 209 234 c 128,-1,8
 246 189 246 189 246 125 c 0,9,10
 246 62 246 62 209 17.5 c 128,-1,11
 172 -27 172 -27 123 -27 c 0,0,1
429 -27 m 0,12,13
 378 -27 378 -27 342 18 c 128,-1,14
 306 63 306 63 306 125 c 0,15,16
 306 188 306 188 341 233.5 c 128,-1,17
 376 279 376 279 429 279 c 0,18,19
 478 279 478 279 514 234 c 128,-1,20
 550 189 550 189 550 125 c 0,21,22
 550 62 550 62 514 17.5 c 128,-1,23
 478 -27 478 -27 429 -27 c 0,12,13
737 -27 m 0,24,25
 686 -27 686 -27 650 18 c 128,-1,26
 614 63 614 63 614 125 c 0,27,28
 614 188 614 188 650 233.5 c 128,-1,29
 686 279 686 279 737 279 c 0,30,31
 786 279 786 279 822 234 c 128,-1,32
 858 189 858 189 858 125 c 0,33,34
 858 62 858 62 822 17.5 c 128,-1,35
 786 -27 786 -27 737 -27 c 0,24,25
EndSplineSet
EndChar

StartChar: exclam
Encoding: 33 33 543
Width: 423
VWidth: 2424
GlyphClass: 1
Flags: HW
LayerCount: 2
Fore
SplineSet
211 -27 m 0,0,1
 139 -27 139 -27 85.5 22.5 c 128,-1,2
 32 72 32 72 32 146 c 0,3,4
 32 213 32 213 85.5 265 c 128,-1,5
 139 317 139 317 211 317 c 0,6,7
 286 317 286 317 338.5 264 c 128,-1,8
 391 211 391 211 391 146 c 0,9,10
 391 76 391 76 336 24.5 c 128,-1,11
 281 -27 281 -27 211 -27 c 0,0,1
122 500 m 1,12,-1
 58 1421 l 2,13,14
 57.5145631068 1431.09708738 57.5145631068 1431.09708738 57.5145631068 1440.67103403 c 0,15,16
 57.5145631068 1529.70873786 57.5145631068 1529.70873786 99.5 1573.5 c 0,17,18
 146 1622 146 1622 211 1622 c 128,-1,19
 276 1622 276 1622 324 1573.5 c 0,20,21
 366.666666667 1530.38888889 366.666666667 1530.38888889 366.666666667 1433.94444444 c 0,22,23
 366.666666667 1421.88888889 366.666666667 1421.88888889 366 1409 c 2,24,-1
 298 500 l 1,25,-1
 122 500 l 1,12,-1
EndSplineSet
EndChar

StartChar: question
Encoding: 63 63 545
Width: 909
VWidth: 2424
GlyphClass: 1
Flags: HW
LayerCount: 2
Fore
SplineSet
477 -30 m 128,-1,1
 407 -30 407 -30 357.5 20 c 128,-1,2
 308 70 308 70 308 143 c 0,3,4
 308 213 308 213 357.5 263 c 128,-1,5
 407 313 407 313 477 313 c 128,-1,6
 547 313 547 313 597.5 263 c 128,-1,7
 648 213 648 213 648 143 c 0,8,9
 648 71 648 71 597.5 20.5 c 128,-1,0
 547 -30 547 -30 477 -30 c 128,-1,1
363 594 m 2,10,11
 363 696 363 696 391 763.5 c 128,-1,12
 419 831 419 831 461.5 880.5 c 128,-1,13
 504 930 504 930 545.5 976.5 c 128,-1,14
 587 1023 587 1023 616 1078.5 c 128,-1,15
 645 1134 645 1134 645 1217 c 0,16,17
 645 1314 645 1314 589 1361.5 c 128,-1,18
 533 1409 533 1409 451 1409 c 0,19,20
 340 1409 340 1409 255 1326 c 1,21,22
 231 1294 231 1294 224.5 1277.5 c 128,-1,23
 218 1261 218 1261 220 1242 c 1,24,-1
 208 1224 l 1,25,-1
 189 1239 l 1,26,-1
 32 1358 l 1,27,28
 107 1481 107 1481 212 1550 c 128,-1,29
 317 1619 317 1619 470 1619 c 0,30,31
 657 1619 657 1619 767 1508 c 128,-1,32
 877 1397 877 1397 877 1222 c 0,33,34
 877 1113 877 1113 848 1041.5 c 128,-1,35
 819 970 819 970 775.5 920 c 128,-1,36
 732 870 732 870 687.5 825 c 128,-1,37
 643 780 643 780 613.5 727 c 128,-1,38
 584 674 584 674 584 594 c 2,39,-1
 584 477 l 1,40,-1
 363 477 l 1,41,-1
 363 594 l 2,10,11
EndSplineSet
EndChar

StartChar: periodcentered
Encoding: 183 183 547
Width: 406
VWidth: 2424
GlyphClass: 1
Flags: HW
LayerCount: 2
Fore
SplineSet
204 638 m 0,0,1
 132 638 132 638 82 688 c 128,-1,2
 32 738 32 738 32 810 c 0,3,4
 32 880 32 880 83 929.5 c 128,-1,5
 134 979 134 979 204 979 c 0,6,7
 271 979 271 979 322.5 929.5 c 128,-1,8
 374 880 374 880 374 810 c 0,9,10
 374 738 374 738 324 688 c 128,-1,11
 274 638 274 638 204 638 c 0,0,1
EndSplineSet
Substitution2: "Single Substitution lookup 11 subtable" periodcentered.loclCAT
Substitution2: "Single Substitution lookup 10 subtable" periodcentered.loclCAT
Substitution2: "'aalt' Access All Alternates in Latin lookup 0 subtable" periodcentered.loclCAT
EndChar

StartChar: bullet
Encoding: 8226 8226 548
Width: 559
VWidth: 2424
GlyphClass: 1
Flags: HW
LayerCount: 2
Fore
SplineSet
279 472 m 0,0,1
 175 472 175 472 103.5 545 c 128,-1,2
 32 618 32 618 32 717 c 0,3,4
 32 784 32 784 65.5 842 c 128,-1,5
 99 900 99 900 156.5 932.5 c 128,-1,6
 214 965 214 965 279 965 c 0,7,8
 378 965 378 965 452.5 892 c 128,-1,9
 527 819 527 819 527 717 c 0,10,11
 527 618 527 618 454 545 c 128,-1,12
 381 472 381 472 279 472 c 0,0,1
EndSplineSet
EndChar

StartChar: asterisk
Encoding: 42 42 549
Width: 922
VWidth: 2424
GlyphClass: 1
Flags: HW
LayerCount: 2
Fore
SplineSet
276 264 m 1,0,-1
 94 432 l 1,1,-1
 334 752 l 1,2,-1
 32 856 l 1,3,-1
 113 1101 l 1,4,-1
 380 928 l 1,5,-1
 339 1314 l 1,6,-1
 602 1314 l 1,7,-1
 547 928 l 1,8,-1
 810 1083 l 1,9,-1
 890 851 l 1,10,-1
 587 754 l 1,11,-1
 821 432 l 1,12,-1
 637 264 l 1,13,-1
 460 625 l 1,14,-1
 276 264 l 1,0,-1
EndSplineSet
Substitution2: "'ss01' Style Set 1 in Latin lookup 35 subtable" asterisk.ss01
Substitution2: "'salt' Stylistic Alternatives in Latin lookup 34 subtable" asterisk.ss01
Substitution2: "'aalt' Access All Alternates in Latin lookup 0 subtable" asterisk.ss01
EndChar

StartChar: uni2E12
Encoding: 11794 11794 550
Width: 345
VWidth: 2175
GlyphClass: 1
Flags: HW
LayerCount: 2
Fore
SplineSet
32 -246 m 1,0,-1
 32 -95 l 1,1,2
 91 -95 91 -95 126.5 -53 c 128,-1,3
 162 -11 162 -11 162 52 c 0,4,5
 162 114 162 114 128 158 c 128,-1,6
 94 202 94 202 32 202 c 1,7,-1
 32 349 l 1,8,9
 160 349 160 349 236.5 267 c 128,-1,10
 313 185 313 185 313 50 c 0,11,12
 313 -80 313 -80 237.5 -163 c 128,-1,13
 162 -246 162 -246 32 -246 c 1,0,-1
EndSplineSet
EndChar

StartChar: numbersign
Encoding: 35 35 551
Width: 907
VWidth: 2424
GlyphClass: 1
Flags: HW
LayerCount: 2
Fore
SplineSet
364 601 m 1,0,-1
 514 601 l 1,1,-1
 546 941 l 1,2,-1
 396 941 l 1,3,-1
 364 601 l 1,0,-1
463 21 m 1,4,-1
 502 419 l 1,5,-1
 349 419 l 1,6,-1
 313 32 l 1,7,-1
 144 30 l 1,8,-1
 180 417 l 1,9,-1
 24 417 l 1,10,-1
 32 597 l 1,11,-1
 197 597 l 1,12,-1
 228 939 l 1,13,-1
 50 939 l 1,14,-1
 56 1120 l 1,15,-1
 241 1120 l 1,16,-1
 276 1515 l 1,17,-1
 447 1518 l 1,18,-1
 410 1125 l 1,19,-1
 560 1125 l 1,20,-1
 595 1511 l 1,21,-1
 774 1513 l 1,22,-1
 738 1129 l 1,23,-1
 882 1129 l 1,24,-1
 868 946 l 1,25,-1
 723 946 l 1,26,-1
 690 608 l 1,27,-1
 847 608 l 1,28,-1
 837 426 l 1,29,-1
 678 426 l 1,30,-1
 640 34 l 1,31,-1
 463 21 l 1,4,-1
EndSplineSet
EndChar

StartChar: slash
Encoding: 47 47 552
Width: 922
VWidth: 2424
GlyphClass: 1
Flags: HW
LayerCount: 2
Fore
SplineSet
258 -104 m 1,0,-1
 32 -7 l 1,1,-1
 669 1615 l 1,2,-1
 890 1506 l 1,3,-1
 258 -104 l 1,0,-1
EndSplineSet
Substitution2: "'frac' Diagonal Fractions in Latin lookup 23 subtable" fraction
Substitution2: "'aalt' Access All Alternates in Latin lookup 0 subtable" fraction
EndChar

StartChar: backslash
Encoding: 92 92 553
Width: 922
VWidth: 2424
GlyphClass: 1
Flags: HW
LayerCount: 2
Fore
SplineSet
669 -107 m 1,0,-1
 32 1511 l 1,1,-1
 255 1615 l 1,2,-1
 890 -5 l 1,3,-1
 669 -107 l 1,0,-1
EndSplineSet
EndChar

StartChar: asterisk.ss01
Encoding: 65572 -1 555
Width: 922
VWidth: 2424
GlyphClass: 1
Flags: HW
LayerCount: 2
Fore
SplineSet
276 410 m 1,0,-1
 94 577 l 1,1,-1
 334 897 l 1,2,-1
 32 1002 l 1,3,-1
 113 1247 l 1,4,-1
 380 1074 l 1,5,-1
 339 1460 l 1,6,-1
 602 1460 l 1,7,-1
 547 1074 l 1,8,-1
 810 1229 l 1,9,-1
 890 997 l 1,10,-1
 587 900 l 1,11,-1
 821 577 l 1,12,-1
 637 410 l 1,13,-1
 460 771 l 1,14,-1
 276 410 l 1,0,-1
EndSplineSet
EndChar

StartChar: parenleft
Encoding: 40 40 556
Width: 777
VWidth: 2429
GlyphClass: 1
Flags: HW
LayerCount: 2
Fore
SplineSet
668 -246 m 1,0,1
 463 -147 463 -147 321.5 12.5 c 128,-1,2
 180 172 180 172 106 370.5 c 128,-1,3
 32 569 32 569 32 786 c 0,4,5
 32 1001 32 1001 104.5 1196 c 128,-1,6
 177 1391 177 1391 316.5 1546 c 128,-1,7
 456 1701 456 1701 657 1797 c 1,8,-1
 731 1584 l 1,9,10
 518 1459 518 1459 398.5 1256 c 128,-1,11
 279 1053 279 1053 279 779 c 0,12,13
 279 513 279 513 402.5 296.5 c 128,-1,14
 526 80 526 80 745 -43 c 1,15,-1
 668 -246 l 1,0,1
EndSplineSet
EndChar

StartChar: parenright
Encoding: 41 41 557
Width: 777
VWidth: 2429
GlyphClass: 1
Flags: HW
LayerCount: 2
Fore
SplineSet
110 -246 m 1
 315 -147 315 -147 457 13 c 0
 599 172 599 172 672 370 c 0
 745 568 745 568 745 786 c 0
 745 1001 745 1001 673 1196 c 0
 601 1391 601 1391 462 1545 c 0
 323 1700 323 1700 122 1797 c 1
 47 1584 l 1
 260 1459 260 1459 379 1256 c 0
 498 1053 498 1053 500 779 c 0
 500 513 500 513 376 297 c 0
 253 81 253 81 32 -43 c 1
 110 -246 l 1
EndSplineSet
EndChar

StartChar: braceleft
Encoding: 123 123 558
Width: 890
VWidth: 2469
GlyphClass: 1
Flags: HW
LayerCount: 2
Fore
SplineSet
754 -166 m 2,0,1
 599 -166 599 -166 486 -128.5 c 128,-1,2
 373 -91 373 -91 311.5 3.5 c 128,-1,3
 251.937007874 95.0236220472 251.937007874 95.0236220472 251.937007874 259.242234484 c 0,0,0
 251.937007874 264.582677165 251.937007874 264.582677165 252 270 c 1,4,-1
 262 494 l 1,5,6
 262 635 262 635 219 675.5 c 128,-1,7
 176 716 176 716 102 716 c 2,8,-1
 32 716 l 1,9,-1
 32 925 l 1,10,-1
 99 925 l 2,11,12
 182 925 182 925 223 970 c 128,-1,13
 264 1015 264 1015 264 1136 c 2,14,-1
 262 1335 l 2,15,16
 262 1548 262 1548 379.5 1656 c 128,-1,17
 497 1764 497 1764 701 1764 c 2,18,-1
 858 1764 l 1,19,-1
 858 1558 l 1,20,-1
 667 1558 l 2,21,22
 502 1558 502 1558 502 1361 c 1,23,-1
 507 1165 l 2,24,25
 507 1044 507 1044 460.5 956.5 c 128,-1,26
 414 869 414 869 333 820 c 1,27,28
 413 779 413 779 457.5 687 c 128,-1,29
 502 595 502 595 502 459 c 2,30,-1
 497 270 l 2,31,32
 497 145 497 145 550.5 91.5 c 128,-1,33
 604 38 604 38 725 38 c 2,34,-1
 856 38 l 1,35,-1
 856 -166 l 1,36,-1
 754 -166 l 2,0,1
EndSplineSet
EndChar

StartChar: braceright
Encoding: 125 125 559
Width: 891
VWidth: 2469
GlyphClass: 1
Flags: HW
LayerCount: 2
Fore
SplineSet
136 -166 m 2
 291 -166 291 -166 405 -128 c 0
 517 -90 517 -90 579 4 c 0
 638.138461538 94.6153846154 638.138461538 94.6153846154 638.138461538 254.377278107 c 0,0,0
 638.138461538 262.107692308 638.138461538 262.107692308 638 270 c 2
 629 494 l 1
 629 635 629 635 671 675 c 0
 714 716 714 716 788 716 c 2
 859 716 l 1
 859 925 l 1
 791 925 l 2
 708 925 708 925 668 970 c 0
 627 1015 627 1015 626 1136 c 2
 629 1335 l 2
 629 1548 629 1548 511 1656 c 0
 394 1764 394 1764 189 1764 c 2
 32 1764 l 1
 32 1558 l 1
 224 1558 l 2
 389 1558 389 1558 388 1361 c 2
 384 1165 l 2
 384 1044 384 1044 430 957 c 0
 476 869 476 869 559 820 c 1
 479 779 479 779 433 688 c 0
 388 596 388 596 388 459 c 2
 393 270 l 2
 393 145 393 145 340 91 c 0
 287 38 287 38 166 38 c 2
 34 38 l 1
 34 -166 l 1
 136 -166 l 2
EndSplineSet
EndChar

StartChar: bracketleft
Encoding: 91 91 560
Width: 751
VWidth: 2499
GlyphClass: 1
Flags: HW
LayerCount: 2
Fore
SplineSet
32 -140 m 1,0,-1
 32 1699 l 1,1,-1
 715 1699 l 1,2,-1
 715 1481 l 1,3,-1
 275 1481 l 1,4,-1
 275 70 l 1,5,-1
 719 70 l 1,6,-1
 719 -140 l 1,7,-1
 32 -140 l 1,0,-1
EndSplineSet
EndChar

StartChar: bracketright
Encoding: 93 93 561
Width: 751
VWidth: 2499
GlyphClass: 1
Flags: HW
LayerCount: 2
Fore
SplineSet
719 -140 m 1
 719 1699 l 1
 34 1699 l 1
 34 1481 l 1
 476 1481 l 1
 476 70 l 1
 32 70 l 1
 32 -140 l 1
 719 -140 l 1
EndSplineSet
EndChar

StartChar: hyphen
Encoding: 45 45 562
Width: 703
VWidth: 2424
GlyphClass: 1
Flags: HW
LayerCount: 2
Fore
SplineSet
32 662 m 1,0,-1
 32 882 l 1,1,-1
 671 882 l 1,2,-1
 671 662 l 1,3,-1
 32 662 l 1,0,-1
EndSplineSet
EndChar

StartChar: endash
Encoding: 8211 8211 564
Width: 881
VWidth: 2424
GlyphClass: 1
Flags: HW
LayerCount: 2
Fore
SplineSet
32 662 m 1,0,-1
 32 882 l 1,1,-1
 849 882 l 1,2,-1
 849 662 l 1,3,-1
 32 662 l 1,0,-1
EndSplineSet
EndChar

StartChar: emdash
Encoding: 8212 8212 565
Width: 876
VWidth: 2424
GlyphClass: 1
Flags: HW
LayerCount: 2
Fore
SplineSet
2 662 m 1,0,-1
 2 882 l 1,1,-1
 860 882 l 1,2,-1
 860 662 l 1,3,-1
 2 662 l 1,0,-1
EndSplineSet
EndChar

StartChar: underscore
Encoding: 95 95 569
Width: 922
VWidth: 2424
GlyphClass: 1
Flags: HW
LayerCount: 2
Fore
SplineSet
32 -243 m 1,0,-1
 32 -32 l 1,1,-1
 890 -32 l 1,2,-1
 890 -243 l 1,3,-1
 32 -243 l 1,0,-1
EndSplineSet
EndChar

StartChar: quotedblleft
Encoding: 8220 8220 572
Width: 905
VWidth: 2424
GlyphClass: 1
Flags: HW
LayerCount: 2
Fore
SplineSet
294 1566 m 1,0,-1
 419 1453 l 1,1,2
 359 1390 359 1390 318.5 1326.5 c 128,-1,3
 278 1263 278 1263 278 1205 c 0,4,5
 278 1164 278 1164 303.5 1138.5 c 128,-1,6
 329 1113 329 1113 355 1084 c 128,-1,7
 381 1055 381 1055 381 1002 c 0,8,9
 381 935 381 935 335 887 c 128,-1,10
 289 839 289 839 213 839 c 0,11,12
 146 839 146 839 89 897 c 128,-1,13
 32 955 32 955 32 1048 c 0,14,15
 32 1275 32 1275 294 1566 c 1,0,-1
745 1566 m 1,16,-1
 873 1453 l 1,17,18
 810 1390 810 1390 769.5 1326.5 c 128,-1,19
 729 1263 729 1263 729 1205 c 0,20,21
 729 1164 729 1164 754.5 1138.5 c 128,-1,22
 780 1113 780 1113 805.5 1084 c 128,-1,23
 831 1055 831 1055 831 1002 c 0,24,25
 831 935 831 935 785.5 887 c 128,-1,26
 740 839 740 839 667 839 c 0,27,28
 597 839 597 839 540 897 c 128,-1,29
 483 955 483 955 483 1048 c 0,30,31
 483 1275 483 1275 745 1566 c 1,16,-1
EndSplineSet
EndChar

StartChar: quoteleft
Encoding: 8216 8216 574
Width: 457
VWidth: 2424
GlyphClass: 1
Flags: HW
LayerCount: 2
Fore
SplineSet
296 1566 m 1,0,-1
 425 1453 l 1,1,2
 365 1390 365 1390 323.5 1326.5 c 128,-1,3
 282 1263 282 1263 282 1205 c 0,4,5
 282 1164 282 1164 307.5 1138.5 c 128,-1,6
 333 1113 333 1113 358.5 1084 c 128,-1,7
 384 1055 384 1055 384 1002 c 0,8,9
 384 935 384 935 337.5 887 c 128,-1,10
 291 839 291 839 217 839 c 0,11,12
 147 839 147 839 89.5 897 c 128,-1,13
 32 955 32 955 32 1048 c 0,14,15
 32 1275 32 1275 296 1566 c 1,0,-1
EndSplineSet
EndChar

StartChar: quoteright
Encoding: 8217 8217 575
Width: 457
VWidth: 2424
GlyphClass: 1
Flags: HW
LayerCount: 2
Fore
SplineSet
161 839 m 1,0,-1
 32 953 l 1,1,2
 95 1016 95 1016 135 1079 c 128,-1,3
 175 1142 175 1142 175 1200 c 0,4,5
 175 1241 175 1241 149.5 1267 c 128,-1,6
 124 1293 124 1293 98.5 1322 c 128,-1,7
 73 1351 73 1351 73 1404 c 0,8,9
 73 1471 73 1471 119.5 1518.5 c 128,-1,10
 166 1566 166 1566 240 1566 c 0,11,12
 310 1566 310 1566 367.5 1508 c 128,-1,13
 425 1450 425 1450 425 1358 c 0,14,15
 425 1130 425 1130 161 839 c 1,0,-1
EndSplineSet
EndChar

StartChar: guillemotleft
Encoding: 171 171 576
Width: 922
VWidth: 2424
GlyphClass: 1
Flags: HW
LayerCount: 2
Fore
SplineSet
760 114 m 1,0,-1
 400 550 l 1,1,-1
 400 630 l 1,2,-1
 753 1013 l 1,3,-1
 875 875 l 1,4,-1
 606 587 l 1,5,-1
 890 243 l 1,6,-1
 760 114 l 1,0,-1
395 114 m 1,7,-1
 32 550 l 1,8,-1
 32 630 l 1,9,-1
 388 1013 l 1,10,-1
 501 882 l 1,11,-1
 242 587 l 1,12,-1
 517 240 l 1,13,-1
 395 114 l 1,7,-1
EndSplineSet
EndChar

StartChar: guilsinglleft
Encoding: 8249 8249 578
Width: 581
VWidth: 2424
GlyphClass: 1
Flags: HW
LayerCount: 2
Fore
SplineSet
395 104 m 1,0,-1
 32 541 l 1,1,-1
 32 623 l 1,2,-1
 391 1009 l 1,3,-1
 539 849 l 1,4,-1
 289 579 l 1,5,-1
 549 266 l 1,6,-1
 395 104 l 1,0,-1
EndSplineSet
EndChar

StartChar: guilsinglright
Encoding: 8250 8250 579
Width: 581
VWidth: 2424
GlyphClass: 1
Flags: HW
LayerCount: 2
Fore
SplineSet
185 104 m 1,0,-1
 32 266 l 1,1,-1
 291 579 l 1,2,-1
 43 849 l 1,3,-1
 189 1009 l 1,4,-1
 549 623 l 1,5,-1
 549 541 l 1,6,-1
 185 104 l 1,0,-1
EndSplineSet
EndChar

StartChar: quotedbl
Encoding: 34 34 580
Width: 646
VWidth: 2424
GlyphClass: 1
Flags: HW
LayerCount: 2
Fore
SplineSet
32 1612 m 1
 265 1612 l 1
 265 1466 265 1466 262 1379 c 0
 258 1291 258 1291 251 1232 c 0
 245 1173 245 1173 238 1119 c 0
 231 1065 231 1065 221 987 c 1
 76 987 l 1
 67 1065 67 1065 59 1119 c 0
 52 1173 52 1173 45 1231 c 0
 39 1289 39 1289 36 1378 c 0
 32 1466 32 1466 32 1612 c 1
381 1612 m 1
 614 1612 l 1
 614 1466 614 1466 610 1379 c 0
 606 1291 606 1291 600 1232 c 0
 594 1173 594 1173 587 1119 c 0
 580 1065 580 1065 571 987 c 1
 425 987 l 1
 416 1065 416 1065 407 1119 c 0
 400 1173 400 1173 394 1231 c 0
 388 1289 388 1289 385 1378 c 0
 381 1466 381 1466 381 1612 c 1
EndSplineSet
Substitution2: "'ss03' Style Set 3 in Latin lookup 37 subtable" quotedbl.ss03
Substitution2: "'aalt' Access All Alternates in Latin lookup 0 subtable" quotedbl.ss03
EndChar

StartChar: quotesingle
Encoding: 39 39 581
Width: 297
VWidth: 2424
GlyphClass: 1
Flags: HW
LayerCount: 2
Fore
SplineSet
32 1612 m 1,0,-1
 265 1612 l 1,1,2
 265 1466 265 1466 261.5 1379.5 c 128,-1,3
 258 1293 258 1293 252 1233 c 128,-1,4
 246 1173 246 1173 238.5 1118.5 c 128,-1,5
 231 1064 231 1064 221 987 c 1,6,-1
 76 987 l 1,7,8
 67 1065 67 1065 59.5 1119 c 128,-1,9
 52 1173 52 1173 46 1231.5 c 128,-1,10
 40 1290 40 1290 36 1378 c 128,-1,11
 32 1466 32 1466 32 1612 c 1,0,-1
EndSplineSet
Substitution2: "'ss03' Style Set 3 in Latin lookup 37 subtable" quotesingle.ss03
Substitution2: "'aalt' Access All Alternates in Latin lookup 0 subtable" quotesingle.ss03
EndChar

StartChar: quotesingle.ss03
Encoding: 65574 -1 583
Width: 391
VWidth: 2424
GlyphClass: 1
Flags: HW
LayerCount: 2
Fore
SplineSet
229 967 m 1,0,-1
 32 1013 l 1,1,2
 66 1122 66 1122 74.5 1193.5 c 0,3,4
 82.1052631579 1257.47368421 82.1052631579 1257.47368421 82.1052631579 1312.64127424 c 0,5,6
 82.1052631579 1319.13157895 82.1052631579 1319.13157895 82 1325.5 c 0,7,8
 81 1386 81 1386 81 1464 c 0,9,10
 81 1547 81 1547 118 1587 c 128,-1,11
 155 1627 155 1627 219 1627 c 0,12,13
 279 1627 279 1627 319 1588.5 c 128,-1,14
 359 1550 359 1550 359 1467 c 0,15,16
 359 1382 359 1382 325.5 1271.5 c 128,-1,17
 292 1161 292 1161 229 967 c 1,0,-1
EndSplineSet
EndChar

StartChar: hyphen_greater.dlig
Encoding: 65575 -1 584
Width: 922
VWidth: 2424
GlyphClass: 1
Flags: HW
LayerCount: 2
Fore
SplineSet
32 669 m 1,0,-1
 32 885 l 1,1,-1
 568 885 l 1,2,-1
 568 669 l 1,3,-1
 32 669 l 1,0,-1
396 72 m 1,4,-1
 396 327 l 1,5,-1
 760 778 l 1,6,-1
 397 1193 l 1,7,-1
 397 1443 l 1,8,-1
 890 856 l 1,9,-1
 890 706 l 1,10,-1
 396 72 l 1,4,-1
EndSplineSet
Ligature2: "'dlig' Discretionary Ligatures in Latin lookup 32 subtable" hyphen greater
EndChar

StartChar: exclam_equal_equal.dlig
Encoding: 65576 -1 585
Width: 906
VWidth: 2396
GlyphClass: 1
Flags: HW
LayerCount: 2
Fore
SplineSet
22 33 m 1,0,-1
 22 231 l 1,1,-1
 377 231 l 1,2,-1
 407 481 l 1,3,-1
 125 481 l 1,4,-1
 125 681 l 1,5,-1
 431 681 l 1,6,-1
 461 933 l 1,7,-1
 22 933 l 1,8,-1
 22 1131 l 1,9,-1
 485 1131 l 1,10,-1
 521 1448 l 1,11,-1
 572 1365 l 1,12,-1
 544 1131 l 1,13,-1
 880 1131 l 1,14,-1
 880 933 l 1,15,-1
 520 933 l 1,16,-1
 490 681 l 1,17,-1
 777 681 l 1,18,-1
 777 481 l 1,19,-1
 466 481 l 1,20,-1
 436 231 l 1,21,-1
 880 231 l 1,22,-1
 880 33 l 1,23,-1
 412 33 l 1,24,-1
 379 -246 l 1,25,-1
 330 -168 l 1,26,-1
 353 33 l 1,27,-1
 22 33 l 1,0,-1
EndSplineSet
Ligature2: "'dlig' Discretionary Ligatures in Latin lookup 32 subtable" exclam equal equal
EndChar

StartChar: uni20B5
Encoding: 8373 8373 594
Width: 922
VWidth: 2424
GlyphClass: 2
Flags: HW
AnchorPoint: "Anchor-2" 497 0 basechar 0
AnchorPoint: "Anchor-0" 489 1511 basechar 0
LayerCount: 2
Fore
SplineSet
253 759 m 0,0,1
 253 534 253 534 305 395.5 c 128,-1,2
 357 257 357 257 440 213 c 1,3,-1
 440 1290 l 1,4,5
 361 1244 361 1244 307 1113 c 128,-1,6
 253 982 253 982 253 759 c 0,0,1
440 -172 m 1,7,-1
 440 -21 l 1,8,9
 325 -2 325 -2 233 83.5 c 128,-1,10
 141 169 141 169 86.5 333 c 128,-1,11
 32 497 32 497 32 747 c 0,12,13
 32 1016 32 1016 91.5 1180 c 128,-1,14
 151 1344 151 1344 245.5 1423.5 c 128,-1,15
 340 1503 340 1503 440 1522 c 1,16,-1
 440 1636 l 1,17,-1
 599 1636 l 1,18,-1
 599 1522 l 1,19,20
 701 1503 701 1503 774.5 1434 c 128,-1,21
 848 1365 848 1365 890 1258 c 1,22,-1
 758 1118 l 1,23,-1
 743 1103 l 1,24,-1
 730 1120 l 1,25,26
 732 1137 732 1137 729 1157.5 c 128,-1,27
 726 1178 726 1178 708 1212 c 1,28,29
 682 1249 682 1249 654.5 1271 c 128,-1,30
 627 1293 627 1293 599 1302 c 1,31,-1
 599 208 l 1,32,33
 678 242 678 242 732 356 c 1,34,-1
 874 208 l 1,35,36
 821 106 821 106 753.5 52 c 128,-1,37
 686 -2 686 -2 599 -19 c 1,38,-1
 599 -172 l 1,39,-1
 440 -172 l 1,7,-1
EndSplineSet
EndChar

StartChar: cent
Encoding: 162 162 595
Width: 922
VWidth: 2424
GlyphClass: 2
Flags: HW
AnchorPoint: "Anchor-2" 510 104 basechar 0
AnchorPoint: "Anchor-0" 510 1229 basechar 0
LayerCount: 2
Fore
SplineSet
269 662 m 0,0,1
 269 551 269 551 300 472 c 128,-1,2
 331 393 331 393 380 347 c 1,3,-1
 459 1032 l 1,4,5
 380 1008 380 1008 324.5 916 c 128,-1,6
 269 824 269 824 269 662 c 0,0,1
517 -178 m 1,7,-1
 322 -178 l 1,8,-1
 354 104 l 1,9,10
 209 157 209 157 120.5 303 c 128,-1,11
 32 449 32 449 32 659 c 0,12,13
 32 831 32 831 91 962.5 c 128,-1,14
 150 1094 150 1094 252 1171.5 c 128,-1,15
 354 1249 354 1249 483 1256 c 1,16,-1
 512 1511 l 1,17,-1
 700 1511 l 1,18,-1
 668 1234 l 1,19,20
 811 1185 811 1185 890 1052 c 1,21,-1
 768 888 l 1,22,-1
 754 870 l 1,23,-1
 738 882 l 1,24,25
 736 901 736 901 733 922.5 c 128,-1,26
 730 944 730 944 704 972 c 0,27,28
 677 1002 677 1002 647 1016 c 1,29,-1
 568 294 l 1,30,31
 619 303 619 303 667 332 c 128,-1,32
 715 361 715 361 758 421 c 1,33,-1
 879 247 l 1,34,35
 812 164 812 164 724 123.5 c 128,-1,36
 636 83 636 83 544 78 c 1,37,-1
 517 -178 l 1,7,-1
EndSplineSet
EndChar

StartChar: colonmonetary
Encoding: 8353 8353 596
Width: 922
VWidth: 2424
GlyphClass: 2
Flags: HW
AnchorPoint: "Anchor-2" 497 0 basechar 0
AnchorPoint: "Anchor-0" 489 1511 basechar 0
LayerCount: 2
Fore
SplineSet
253 759 m 0,0,1
 253 655 253 655 265 569 c 128,-1,2
 277 483 277 483 297 417 c 1,3,-1
 480 1307 l 1,4,5
 387 1280 387 1280 320 1144.5 c 128,-1,6
 253 1009 253 1009 253 759 c 0,0,1
353 296 m 1,7,8
 377 262 377 262 402 238 c 1,9,-1
 619 1295 l 1,10,11
 593 1307 593 1307 560 1312 c 1,12,-1
 353 296 l 1,7,8
177 -172 m 1,13,-1
 230 88 l 1,14,15
 141 176 141 176 86.5 338 c 128,-1,16
 32 500 32 500 32 747 c 0,17,18
 32 975 32 975 75.5 1126 c 128,-1,19
 119 1277 119 1277 191.5 1366 c 128,-1,20
 264 1455 264 1455 348.5 1492 c 128,-1,21
 433 1529 433 1529 516 1529 c 2,22,-1
 527 1529 l 1,23,-1
 548 1636 l 1,24,-1
 629 1636 l 1,25,-1
 605 1522 l 1,26,27
 635 1515 635 1515 663 1503 c 1,28,-1
 690 1636 l 1,29,-1
 771 1636 l 1,30,-1
 735 1464 l 1,31,32
 837 1397 837 1397 890 1258 c 1,33,-1
 758 1118 l 1,34,-1
 743 1103 l 1,35,-1
 730 1120 l 1,36,37
 732 1137 732 1137 729 1157.5 c 128,-1,38
 726 1178 726 1178 708 1212 c 0,39,40
 700 1224 700 1224 688 1236 c 1,41,-1
 476 199 l 1,42,43
 495 194 495 194 518 194 c 0,44,45
 654 194 654 194 732 356 c 1,46,-1
 874 208 l 1,47,48
 809 79 809 79 719 26 c 128,-1,49
 629 -27 629 -27 508 -27 c 0,50,51
 468 -27 468 -27 431 -19 c 1,52,-1
 400 -172 l 1,53,-1
 317 -172 l 1,54,-1
 353 2 l 1,55,56
 325 14 325 14 297 32 c 1,57,-1
 257 -172 l 1,58,-1
 177 -172 l 1,13,-1
EndSplineSet
EndChar

StartChar: currency
Encoding: 164 164 597
Width: 922
VWidth: 2424
GlyphClass: 1
Flags: HW
LayerCount: 2
Fore
SplineSet
462 640 m 128,-1,1
 542 640 542 640 581 697 c 128,-1,2
 620 754 620 754 620 837 c 128,-1,3
 620 920 620 920 580 977.5 c 128,-1,4
 540 1035 540 1035 462 1035 c 0,5,6
 382 1035 382 1035 343 977 c 128,-1,7
 304 919 304 919 304 837 c 0,8,9
 304 754 304 754 343 697 c 128,-1,0
 382 640 382 640 462 640 c 128,-1,1
178 366 m 1,10,-1
 32 502 l 1,11,-1
 150 648 l 1,12,13
 102 740 102 740 102 839 c 0,14,15
 102 890 102 890 112.5 938.5 c 128,-1,16
 123 987 123 987 150 1035 c 1,17,-1
 32 1173 l 1,18,-1
 178 1312 l 1,19,-1
 288 1180 l 1,20,21
 329 1201 329 1201 375 1215 c 128,-1,22
 421 1229 421 1229 464 1229 c 0,23,24
 548 1229 548 1229 634 1183 c 1,25,-1
 744 1312 l 1,26,-1
 890 1176 l 1,27,-1
 773 1038 l 1,28,29
 800 989 800 989 811.5 939.5 c 128,-1,30
 823 890 823 890 823 839 c 0,31,32
 823 732 823 732 773 640 c 1,33,-1
 890 502 l 1,34,-1
 744 366 l 1,35,-1
 636 495 l 1,36,37
 595 471 595 471 552.5 460 c 128,-1,38
 510 449 510 449 464 449 c 0,39,40
 366 449 366 449 288 497 c 1,41,-1
 178 366 l 1,10,-1
EndSplineSet
EndChar

StartChar: dollar
Encoding: 36 36 598
Width: 922
VWidth: 2424
GlyphClass: 1
Flags: HW
LayerCount: 2
Fore
SplineSet
553 228 m 1,0,1
 616 247 616 247 655.5 304 c 128,-1,2
 695 361 695 361 695 429 c 0,3,4
 695 501 695 501 657 547.5 c 128,-1,5
 619 594 619 594 553 618 c 1,6,-1
 553 228 l 1,0,1
392 912 m 1,7,-1
 392 1236 l 1,8,9
 336 1227 336 1227 296 1190.5 c 128,-1,10
 256 1154 256 1154 256 1094 c 0,11,12
 256 979 256 979 392 912 c 1,7,-1
397 -111 m 1,13,-1
 397 27 l 1,14,15
 297 34 297 34 199 79.5 c 128,-1,16
 101 125 101 125 32 208 c 1,17,-1
 141 410 l 1,18,19
 159 401 159 401 161.5 380 c 128,-1,20
 164 359 164 359 177 342 c 0,21,22
 257 250 257 250 392 225 c 1,23,-1
 392 676 l 1,24,25
 232 746 232 746 144.5 837 c 128,-1,26
 57 928 57 928 57 1081 c 0,27,28
 57 1180 57 1180 103.5 1254 c 128,-1,29
 150 1328 150 1328 227 1374.5 c 128,-1,30
 304 1421 304 1421 397 1435 c 1,31,-1
 397 1578 l 1,32,-1
 553 1578 l 1,33,34
 560 1573 560 1573 559 1564 c 0,35,36
 559 1557 559 1557 553.5 1541 c 128,-1,37
 548 1525 548 1525 548 1503 c 2,38,-1
 548 1437 l 1,39,40
 639 1423 639 1423 718 1380.5 c 128,-1,41
 797 1338 797 1338 852 1261 c 1,42,-1
 745 1099 l 1,43,44
 725 1101 725 1101 722 1121.5 c 128,-1,45
 719 1142 719 1142 708 1152 c 0,46,47
 683 1186 683 1186 640.5 1207.5 c 128,-1,48
 598 1229 598 1229 553 1236 c 1,49,-1
 553 844 l 1,50,51
 730 772 730 772 810 685.5 c 128,-1,52
 890 599 890 599 890 442 c 0,53,54
 890 340 890 340 847.5 252.5 c 128,-1,55
 805 165 805 165 727.5 104.5 c 128,-1,56
 650 44 650 44 548 30 c 1,57,-1
 548 -111 l 1,58,-1
 397 -111 l 1,13,-1
EndSplineSet
EndChar

StartChar: dong
Encoding: 8363 8363 599
Width: 922
VWidth: 2424
GlyphClass: 2
Flags: HW
AnchorPoint: "Anchor-4" 604 1333 basechar 0
AnchorPoint: "Anchor-2" 410 269 basechar 0
AnchorPoint: "Anchor-1" 798 1154 basechar 0
AnchorPoint: "Anchor-0" 410 1154 basechar 0
LayerCount: 2
Fore
SplineSet
71 153 m 1,0,-1
 830 153 l 1,1,-1
 830 0 l 1,2,-1
 71 0 l 1,3,-1
 71 153 l 1,0,-1
400 414 m 0,4,5
 557 414 557 414 557 715 c 0,6,7
 557 1020 557 1020 398 1020 c 0,8,9
 229 1020 229 1020 228 724 c 0,10,11
 228 571 228 571 279 492.5 c 128,-1,12
 330 414 330 414 400 414 c 0,4,5
363 247 m 0,13,14
 273 247 273 247 198.5 295.5 c 128,-1,15
 124 344 124 344 78 448.5 c 128,-1,16
 32 553 32 553 32 717 c 0,17,18
 32 960 32 960 128 1071.5 c 128,-1,19
 224 1183 224 1183 363 1183 c 0,20,21
 428 1183 428 1183 481 1156 c 128,-1,22
 534 1129 534 1129 562 1071 c 1,23,-1
 562 1251 l 1,24,-1
 289 1251 l 1,25,-1
 289 1413 l 1,26,-1
 562 1413 l 1,27,-1
 562 1552 l 1,28,-1
 781 1552 l 1,29,-1
 781 1534 l 1,30,31
 762.95 1517.85 762.95 1517.85 762.95 1469.21 c 0,32,33
 762.95 1466.65 762.95 1466.65 763 1464 c 2,34,-1
 763 1413 l 1,35,-1
 890 1413 l 1,36,-1
 890 1251 l 1,37,-1
 761 1251 l 1,38,-1
 761 393 l 2,39,40
 761 361 761 361 763.5 331 c 128,-1,41
 766 301 766 301 781 269 c 1,42,-1
 582 269 l 1,43,44
 570 299 570 299 567.5 318 c 128,-1,45
 565 337 565 337 565 368 c 1,46,47
 531 308 531 308 477 277.5 c 128,-1,48
 423 247 423 247 363 247 c 0,13,14
EndSplineSet
EndChar

StartChar: Euro
Encoding: 8364 8364 600
Width: 922
VWidth: 2424
GlyphClass: 1
Flags: HW
LayerCount: 2
Fore
SplineSet
587 -34 m 0,0,1
 419 -34 419 -34 299 93 c 128,-1,2
 179 220 179 220 144 477 c 1,3,-1
 32 477 l 1,4,-1
 70 689 l 1,5,-1
 127 689 l 1,6,7
 127 716 127 716 128 752 c 128,-1,8
 129 788 129 788 129 817 c 1,9,-1
 32 817 l 1,10,-1
 72 1032 l 1,11,-1
 157 1032 l 1,12,13
 188 1212 188 1212 256.5 1320 c 128,-1,14
 325 1428 325 1428 415.5 1476.5 c 128,-1,15
 506 1525 506 1525 603 1525 c 0,16,17
 779 1525 779 1525 890 1379 c 1,18,-1
 825 1164 l 1,19,20
 798 1181 798 1181 778.5 1217.5 c 128,-1,21
 759 1254 759 1254 720.5 1285 c 128,-1,22
 682 1316 682 1316 599 1316 c 0,23,24
 518 1316 518 1316 451.5 1246 c 128,-1,25
 385 1176 385 1176 362 1032 c 1,26,-1
 792 1032 l 1,27,-1
 730 817 l 1,28,-1
 335 817 l 1,29,30
 333 790 333 790 332 759.5 c 128,-1,31
 331 729 331 729 331 689 c 1,32,-1
 694 689 l 1,33,-1
 632 477 l 1,34,-1
 349 477 l 1,35,36
 372 329 372 329 437 257 c 128,-1,37
 502 185 502 185 597 185 c 0,38,39
 655 185 655 185 704 210.5 c 128,-1,40
 753 236 753 236 797 296 c 1,41,-1
 879 107 l 1,42,43
 815 32 815 32 743.5 -1 c 128,-1,44
 672 -34 672 -34 587 -34 c 0,0,1
EndSplineSet
EndChar

StartChar: florin
Encoding: 402 402 601
Width: 876
VWidth: 2355
GlyphClass: 1
Flags: HW
LayerCount: 2
Fore
SplineSet
183 -246 m 0,0,1
 78 -246 78 -246 0 -151 c 1,2,-1
 96 46 l 1,3,4
 108 44 108 44 110.5 25 c 128,-1,5
 113 6 113 6 125 -13 c 128,-1,6
 137 -32 137 -32 179 -32 c 128,-1,7
 221 -32 221 -32 240.5 32.5 c 128,-1,8
 260 97 260 97 266 213 c 2,9,-1
 306 828 l 1,10,-1
 113 828 l 1,11,-1
 113 1023 l 1,12,-1
 313 1023 l 1,13,-1
 327 1200 l 2,14,15
 342 1437 342 1437 421.5 1539 c 128,-1,16
 501 1641 501 1641 633 1641 c 0,17,18
 766 1641 766 1641 858 1511 c 1,19,-1
 784 1309 l 1,20,21
 772 1309 772 1309 768.5 1318 c 128,-1,22
 765 1327 765 1327 761 1344 c 0,23,24
 751 1386 751 1386 721.5 1415 c 128,-1,25
 692 1444 692 1444 652 1444 c 0,26,27
 603 1444 603 1444 570 1385.5 c 128,-1,28
 537 1327 537 1327 529 1173 c 2,29,-1
 521 1023 l 1,30,-1
 714 1023 l 1,31,-1
 714 828 l 1,32,-1
 508 828 l 1,33,-1
 466 203 l 2,34,35
 449 -36 449 -36 370.5 -141 c 128,-1,36
 292 -246 292 -246 183 -246 c 0,0,1
EndSplineSet
EndChar

StartChar: uni20B2
Encoding: 8370 8370 603
Width: 922
VWidth: 2424
GlyphClass: 1
Flags: HW
LayerCount: 2
Fore
SplineSet
253 773 m 0,0,1
 253 565 253 565 294.5 423.5 c 128,-1,2
 336 282 336 282 405 218 c 1,3,-1
 405 1293 l 1,4,5
 342 1244 342 1244 297.5 1120 c 128,-1,6
 253 996 253 996 253 773 c 0,0,1
405 -172 m 1,7,-1
 405 -24 l 1,8,9
 224 25 224 25 128 231 c 128,-1,10
 32 437 32 437 32 752 c 0,11,12
 34 951 34 951 66.5 1088.5 c 128,-1,13
 99 1226 99 1226 154.5 1317.5 c 128,-1,14
 210 1409 210 1409 276 1458.5 c 128,-1,15
 342 1508 342 1508 405 1527 c 1,16,-1
 405 1636 l 1,17,-1
 553 1636 l 1,18,-1
 553 1545 l 1,19,20
 687 1536 687 1536 766 1461 c 128,-1,21
 845 1386 845 1386 890 1275 c 1,22,-1
 778 1101 l 1,23,24
 766 1108 766 1108 754 1139.5 c 128,-1,25
 742 1171 742 1171 720.5 1211 c 128,-1,26
 699 1251 699 1251 659.5 1283.5 c 128,-1,27
 620 1316 620 1316 553 1326 c 1,28,-1
 553 178 l 1,29,30
 630 190 630 190 687 247 c 1,31,-1
 687 541 l 1,32,-1
 606 541 l 1,33,-1
 606 761 l 1,34,-1
 890 761 l 1,35,-1
 890 131 l 1,36,37
 811 48 811 48 727.5 8 c 128,-1,38
 644 -32 644 -32 553 -39 c 1,39,-1
 553 -172 l 1,40,-1
 405 -172 l 1,7,-1
EndSplineSet
EndChar

StartChar: uni20AD
Encoding: 8365 8365 604
Width: 826
VWidth: 2424
GlyphClass: 1
Flags: HW
LayerCount: 2
Fore
SplineSet
-28 775 m 1,0,-1
 -28 933 l 1,1,-1
 45 933 l 1,2,-1
 45 1511 l 1,3,-1
 260 1511 l 1,4,-1
 260 1488 l 1,5,6
 249 1474 249 1474 246 1457.5 c 128,-1,7
 243 1441 243 1441 243 1399 c 2,8,-1
 243 900 l 1,9,-1
 590 1522 l 1,10,11
 617 1517 617 1517 658 1514 c 128,-1,12
 699 1511 699 1511 722 1511 c 2,13,-1
 808 1511 l 1,14,-1
 486 933 l 1,15,-1
 774 933 l 1,16,-1
 774 775 l 1,17,-1
 490 775 l 1,18,-1
 830 0 l 1,19,-1
 603 -9 l 1,20,-1
 310 674 l 1,21,-1
 243 555 l 1,22,-1
 243 0 l 1,23,-1
 45 0 l 1,24,-1
 45 775 l 1,25,-1
 -28 775 l 1,0,-1
EndSplineSet
EndChar

StartChar: uni20BA
Encoding: 8378 8378 606
Width: 922
VWidth: 2424
GlyphClass: 1
Flags: HW
LayerCount: 2
Fore
SplineSet
178 0 m 1,0,-1
 178 678 l 1,1,-1
 32 611 l 1,2,-1
 32 771 l 1,3,-1
 178 839 l 1,4,-1
 178 955 l 1,5,-1
 32 888 l 1,6,-1
 32 1048 l 1,7,-1
 178 1115 l 1,8,-1
 178 1511 l 1,9,-1
 412 1511 l 1,10,11
 412 1487 412 1487 407 1479 c 128,-1,12
 402 1471 402 1471 398 1425 c 1,13,-1
 398 1215 l 1,14,-1
 671 1338 l 1,15,-1
 671 1178 l 1,16,-1
 398 1055 l 1,17,-1
 398 939 l 1,18,-1
 671 1062 l 1,19,-1
 671 902 l 1,20,-1
 398 778 l 1,21,-1
 398 220 l 1,22,23
 475 220 475 220 546 244.5 c 128,-1,24
 617 269 617 269 663 341.5 c 128,-1,25
 709 414 709 414 709 562 c 1,26,-1
 890 562 l 1,27,28
 890 395 890 395 841 268 c 128,-1,29
 792 141 792 141 680 70.5 c 128,-1,30
 568 0 568 0 389 0 c 2,31,-1
 178 0 l 1,0,-1
EndSplineSet
EndChar

StartChar: uni20BC
Encoding: 8380 8380 607
Width: 922
VWidth: 2424
GlyphClass: 1
Flags: HW
LayerCount: 2
Fore
SplineSet
371 220 m 1,0,-1
 371 1251 l 1,1,2
 286 1221 286 1221 254 1136.5 c 128,-1,3
 222 1052 222 1052 222 919 c 2,4,-1
 222 83 l 2,5,6
 222 44 222 44 228.5 35.5 c 128,-1,7
 235 27 235 27 235 0 c 1,8,-1
 32 0 l 1,9,-1
 32 916 l 2,10,11
 32 1163 32 1163 119 1304 c 128,-1,12
 206 1445 206 1445 371 1471 c 1,13,-1
 371 1631 l 1,14,-1
 553 1631 l 1,15,-1
 553 1471 l 1,16,17
 707 1444 707 1444 798.5 1308.5 c 128,-1,18
 890 1173 890 1173 890 909 c 2,19,-1
 890 0 l 1,20,-1
 707 0 l 1,21,-1
 707 912 l 2,22,23
 707 1051 707 1051 673.5 1136.5 c 128,-1,24
 640 1222 640 1222 553 1251 c 1,25,-1
 553 220 l 1,26,-1
 371 220 l 1,0,-1
EndSplineSet
EndChar

StartChar: uni20A6
Encoding: 8358 8358 608
Width: 889
VWidth: 2424
GlyphClass: 2
Flags: HW
AnchorPoint: "Anchor-2" 437 0 basechar 0
AnchorPoint: "Anchor-0" 437 1511 basechar 0
LayerCount: 2
Fore
SplineSet
620 536 m 1,0,-1
 618 684 l 1,1,-1
 570 684 l 1,2,-1
 620 536 l 1,0,-1
260 1038 m 1,3,-1
 260 814 l 1,4,-1
 334 814 l 1,5,-1
 260 1038 l 1,3,-1
13 684 m 1,6,-1
 13 814 l 1,7,-1
 89 814 l 1,8,-1
 89 1511 l 1,9,-1
 282 1511 l 1,10,-1
 523 814 l 1,11,-1
 618 814 l 1,12,-1
 612 1511 l 1,13,-1
 796 1511 l 1,14,-1
 796 1488 l 1,15,16
 786 1474 786 1474 783.5 1457.5 c 128,-1,17
 781 1441 781 1441 781 1399 c 2,18,-1
 781 814 l 1,19,-1
 871 814 l 1,20,-1
 871 684 l 1,21,-1
 781 684 l 1,22,-1
 781 0 l 1,23,-1
 610 0 l 1,24,-1
 378 684 l 1,25,-1
 260 684 l 1,26,-1
 260 0 l 1,27,-1
 89 0 l 1,28,-1
 89 684 l 1,29,-1
 13 684 l 1,6,-1
EndSplineSet
EndChar

StartChar: peseta
Encoding: 8359 8359 609
Width: 950
VWidth: 2424
GlyphClass: 1
Flags: HW
LayerCount: 2
Fore
SplineSet
448 -30 m 0,0,1
 352 -30 352 -30 315 43 c 128,-1,2
 283.162790698 105.813953488 283.162790698 105.813953488 283.162790698 229.340724716 c 0,0,0
 283.162790698 249.372093023 283.162790698 249.372093023 284 271 c 2,3,-1
 292 492 l 1,4,-1
 213 490 l 1,5,-1
 226 630 l 1,6,-1
 301 630 l 1,7,-1
 301 740 l 1,8,-1
 424 764 l 1,9,-1
 444 768 l 1,10,-1
 448 747 l 1,11,12
 438 730 438 730 431 712 c 128,-1,13
 424 694 424 694 424 655 c 2,14,-1
 422 630 l 1,15,-1
 510 630 l 1,16,-1
 498 492 l 1,17,-1
 416 492 l 1,18,-1
 410 279 l 2,19,20
 409.03030303 255.96969697 409.03030303 255.96969697 409.03030303 236.318640955 c 0,0,0
 409.03030303 174.909090909 409.03030303 174.909090909 418.5 146.5 c 128,-1,21
 431 109 431 109 470 109 c 0,22,23
 494 109 494 109 514 129 c 1,24,-1
 546 208 l 1,25,-1
 552 231 l 1,26,-1
 565 223 l 1,27,28
 569 206 569 206 572.5 189 c 128,-1,29
 576 172 576 172 594 148 c 1,30,31
 638 107 638 107 700 107 c 0,32,33
 738 107 738 107 757 125 c 128,-1,34
 776 143 776 143 776 169 c 0,35,36
 774 196 774 196 756.5 216 c 128,-1,37
 739 236 739 236 688 257 c 0,38,39
 623 284 623 284 578.5 329.5 c 128,-1,40
 534 375 534 375 534 465 c 0,41,42
 534 545 534 545 580 595 c 128,-1,43
 626 645 626 645 704 645 c 0,44,45
 756 645 756 645 801 624.5 c 128,-1,46
 846 604 846 604 884 553 c 1,47,-1
 822 449 l 1,48,-1
 812 429 l 1,49,-1
 804 437 l 1,50,51
 802 454 802 454 798 464.5 c 128,-1,52
 794 475 794 475 776 492 c 1,53,54
 744 513 744 513 710 514 c 0,55,56
 650 514 650 514 649 465 c 0,57,58
 649 441 649 441 666.5 420.5 c 128,-1,59
 684 400 684 400 742 378 c 1,60,61
 826 339 826 339 858 295.5 c 128,-1,62
 890 252 890 252 890 182 c 0,63,64
 890 92 890 92 842 30 c 128,-1,65
 794 -32 794 -32 708 -34 c 0,66,67
 626 -34 626 -34 558 17 c 1,68,69
 510 -30 510 -30 448 -30 c 0,0,1
208 914 m 2,70,71
 294 914 294 914 332 971 c 128,-1,72
 370 1028 370 1028 370 1140 c 0,73,74
 370 1237 370 1237 333 1294 c 128,-1,75
 296 1351 296 1351 210 1351 c 2,76,-1
 181 1351 l 1,77,-1
 181 914 l 1,78,-1
 208 914 l 2,70,71
32 1511 m 1,79,-1
 213 1511 l 2,80,81
 322 1511 322 1511 392 1460 c 128,-1,82
 462 1409 462 1409 497 1325.5 c 128,-1,83
 532 1242 532 1242 532 1145 c 0,84,85
 532 980 532 980 449 872 c 128,-1,86
 366 764 366 764 221 764 c 2,87,-1
 181 764 l 1,88,-1
 181 0 l 1,89,-1
 32 0 l 1,90,-1
 32 1511 l 1,79,-1
EndSplineSet
EndChar

StartChar: uni20B1
Encoding: 8369 8369 610
Width: 853
VWidth: 2424
GlyphClass: 2
Flags: HW
AnchorPoint: "Anchor-2" 283 0 basechar 0
AnchorPoint: "Anchor-0" 409 1511 basechar 0
LayerCount: 2
Fore
SplineSet
259 854 m 1,0,-1
 419 854 l 2,1,2
 519 854 519 854 562 941 c 1,3,-1
 259 941 l 1,4,-1
 259 854 l 1,0,-1
590 1067 m 0,5,6
 590 1088 590 1088 588 1108 c 1,7,-1
 259 1108 l 1,8,-1
 259 1032 l 1,9,-1
 588 1032 l 1,10,11
 590 1050 590 1050 590 1067 c 0,5,6
259 1282 m 1,12,-1
 259 1200 l 1,13,-1
 560 1200 l 1,14,15
 517.511904762 1282.01190476 517.511904762 1282.01190476 423.278202948 1282.01190476 c 0,16,17
 422.142857143 1282.01190476 422.142857143 1282.01190476 421 1282 c 2,18,-1
 259 1282 l 1,12,-1
51 0 m 1,19,-1
 51 930 l 1,20,-1
 -6 930 l 1,21,-1
 -6 1032 l 1,22,-1
 51 1032 l 1,23,-1
 51 1099 l 1,24,-1
 -6 1099 l 1,25,-1
 -6 1200 l 1,26,-1
 51 1200 l 1,27,-1
 51 1511 l 1,28,-1
 424 1511 l 2,29,30
 580 1511 580 1511 670.5 1424.5 c 128,-1,31
 761 1338 761 1338 789 1200 c 1,32,-1
 852 1200 l 1,33,-1
 852 1099 l 1,34,-1
 798 1099 l 1,35,36
 800 1085 800 1085 800 1069 c 0,37,38
 800 1050 800 1050 798 1032 c 1,39,-1
 852 1032 l 1,40,-1
 852 930 l 1,41,-1
 787 930 l 1,42,43
 757 796 757 796 668.5 714.5 c 128,-1,44
 580 633 580 633 432 633 c 2,45,-1
 259 633 l 1,46,-1
 259 0 l 1,47,-1
 51 0 l 1,19,-1
EndSplineSet
EndChar

StartChar: uni20BD
Encoding: 8381 8381 611
Width: 920
VWidth: 2424
GlyphClass: 2
Flags: HW
AnchorPoint: "Anchor-2" 348 0 basechar 0
AnchorPoint: "Anchor-0" 479 1511 basechar 0
LayerCount: 2
Fore
SplineSet
326 854 m 1,0,-1
 489 854 l 2,1,2
 575 854 575 854 621.5 913 c 128,-1,3
 668 972 668 972 668 1067 c 0,4,5
 668 1166 668 1166 621.5 1224 c 128,-1,6
 575 1282 575 1282 492 1282 c 2,7,-1
 326 1282 l 1,8,-1
 326 854 l 1,0,-1
106 0 m 1,9,-1
 106 276 l 1,10,-1
 29 276 l 1,11,-1
 29 497 l 1,12,-1
 106 497 l 1,13,-1
 106 633 l 1,14,-1
 29 633 l 1,15,-1
 29 854 l 1,16,-1
 106 854 l 1,17,-1
 106 1511 l 1,18,-1
 496 1511 l 2,19,20
 697 1511 697 1511 792 1384.5 c 128,-1,21
 887 1258 887 1258 887 1069 c 0,22,23
 887 882 887 882 791.5 757.5 c 128,-1,24
 696 633 696 633 506 633 c 2,25,-1
 326 633 l 1,26,-1
 326 497 l 1,27,-1
 557 497 l 1,28,-1
 557 276 l 1,29,-1
 326 276 l 1,30,-1
 326 0 l 1,31,-1
 106 0 l 1,9,-1
EndSplineSet
EndChar

StartChar: uni20B9
Encoding: 8377 8377 612
Width: 922
VWidth: 2424
GlyphClass: 1
Flags: HW
LayerCount: 2
Fore
SplineSet
32 842 m 1,0,-1
 284 842 l 2,1,2
 370 842 370 842 417 877 c 128,-1,3
 464 912 464 912 481 974 c 1,4,-1
 32 974 l 1,5,-1
 32 1142 l 1,6,-1
 484 1142 l 1,7,8
 468 1212 468 1212 420 1252.5 c 128,-1,9
 372 1293 372 1293 284 1293 c 2,10,-1
 32 1293 l 1,11,-1
 32 1511 l 1,12,-1
 890 1511 l 1,13,-1
 890 1348 l 1,14,-1
 586 1348 l 1,15,16
 700 1278 700 1278 731 1142 c 1,17,-1
 890 1142 l 1,18,-1
 890 974 l 1,19,-1
 740 974 l 1,20,21
 724 860 724 860 656.5 777 c 128,-1,22
 589 694 589 694 487 657 c 1,23,-1
 797 0 l 1,24,-1
 524 0 l 1,25,-1
 249 625 l 1,26,-1
 32 625 l 1,27,-1
 32 842 l 1,0,-1
EndSplineSet
EndChar

StartChar: sterling
Encoding: 163 163 613
Width: 922
VWidth: 2424
GlyphClass: 1
Flags: HW
LayerCount: 2
Fore
SplineSet
103 -30 m 1,0,-1
 32 174 l 1,1,2
 107 218 107 218 151 260.5 c 128,-1,3
 195 303 195 303 213.5 367.5 c 128,-1,4
 232 432 232 432 232 543 c 0,5,6
 232 584 232 584 226.5 635.5 c 128,-1,7
 221 687 221 687 210 747 c 1,8,-1
 91 747 l 1,9,-1
 91 955 l 1,10,-1
 176 955 l 1,11,12
 166 1020 166 1020 165 1083 c 0,13,14
 165 1219 165 1219 214.5 1317.5 c 128,-1,15
 264 1416 264 1416 345 1467 c 128,-1,16
 426 1518 426 1518 525 1518 c 0,17,18
 682 1518 682 1518 797 1374 c 1,19,-1
 686 1196 l 1,20,21
 658 1242 658 1242 620.5 1274.5 c 128,-1,22
 583 1307 583 1307 514 1307 c 0,23,24
 454 1307 454 1307 415.5 1248 c 128,-1,25
 377 1189 377 1189 377 1087 c 0,26,27
 377 1038 377 1038 388 955 c 1,28,-1
 622 955 l 1,29,-1
 622 747 l 1,30,-1
 424 747 l 1,31,32
 441 636 441 636 442 546 c 0,33,34
 442 468 442 468 431 401.5 c 128,-1,35
 420 335 420 335 390 271 c 1,36,37
 402.576271186 272.661016949 402.576271186 272.661016949 414.786555587 272.661016949 c 0,38,39
 454.033898305 272.661016949 454.033898305 272.661016949 489.5 255.5 c 0,40,41
 536 233 536 233 583.5 207.5 c 128,-1,42
 631 182 631 182 682 182 c 0,43,44
 744 182 744 182 823 259 c 1,45,-1
 890 72 l 1,46,47
 835 19 835 19 782 -9 c 128,-1,48
 729 -37 729 -37 669 -37 c 0,49,50
 620 -37 620 -37 563 -10 c 128,-1,51
 506 17 506 17 447 43.5 c 128,-1,52
 388 70 388 70 336 70 c 0,53,54
 283 70 283 70 230.5 44.5 c 128,-1,55
 178 19 178 19 103 -30 c 1,0,-1
EndSplineSet
EndChar

StartChar: uni20A9
Encoding: 8361 8361 614
Width: 889
VWidth: 2424
GlyphClass: 2
Flags: HW
AnchorPoint: "Anchor-2" 439 0 basechar 0
AnchorPoint: "Anchor-0" 447 1511 basechar 0
LayerCount: 2
Fore
SplineSet
628 587 m 1,0,-1
 633 696 l 1,1,-1
 610 696 l 1,2,-1
 628 587 l 1,0,-1
276 585 m 1,3,-1
 292 696 l 1,4,-1
 266 696 l 1,5,-1
 276 585 l 1,3,-1
443 900 m 1,6,-1
 431 819 l 1,7,-1
 455 819 l 1,8,-1
 443 900 l 1,6,-1
180 0 m 1,9,-1
 117 696 l 1,10,-1
 13 696 l 1,11,-1
 13 819 l 1,12,-1
 107 819 l 1,13,-1
 44 1511 l 1,14,-1
 207 1511 l 1,15,-1
 257 819 l 1,16,-1
 312 819 l 1,17,-1
 403 1374 l 1,18,-1
 499 1374 l 1,19,-1
 589 819 l 1,20,-1
 640 819 l 1,21,-1
 681 1511 l 1,22,-1
 833 1511 l 1,23,-1
 773 819 l 1,24,-1
 871 819 l 1,25,-1
 871 696 l 1,26,-1
 760 696 l 1,27,-1
 700 0 l 1,28,-1
 583 0 l 1,29,-1
 475 696 l 1,30,-1
 411 696 l 1,31,-1
 300 0 l 1,32,-1
 180 0 l 1,9,-1
EndSplineSet
EndChar

StartChar: yen
Encoding: 165 165 615
Width: 915
VWidth: 2424
GlyphClass: 1
Flags: HW
LayerCount: 2
Fore
SplineSet
574 0 m 1,0,-1
 367 0 l 1,1,-1
 367 264 l 1,2,-1
 132 264 l 1,3,-1
 132 421 l 1,4,-1
 367 421 l 1,5,-1
 367 546 l 1,6,-1
 132 546 l 1,7,-1
 132 706 l 1,8,-1
 361 706 l 1,9,-1
 28 1511 l 1,10,-1
 260 1511 l 1,11,-1
 471 944 l 1,12,-1
 668 1511 l 1,13,-1
 886 1511 l 1,14,-1
 576 706 l 1,15,-1
 798 706 l 1,16,-1
 798 546 l 1,17,-1
 574 546 l 1,18,-1
 574 421 l 1,19,-1
 798 421 l 1,20,-1
 798 264 l 1,21,-1
 574 264 l 1,22,-1
 574 0 l 1,0,-1
EndSplineSet
EndChar

StartChar: asteriskmath
Encoding: 8727 8727 616
Width: 922
VWidth: 2424
GlyphClass: 1
Flags: HW
LayerCount: 2
Fore
SplineSet
276 296 m 1,0,-1
 94 463 l 1,1,-1
 334 784 l 1,2,-1
 32 888 l 1,3,-1
 113 1132 l 1,4,-1
 380 960 l 1,5,-1
 339 1346 l 1,6,-1
 602 1346 l 1,7,-1
 547 960 l 1,8,-1
 810 1115 l 1,9,-1
 890 882 l 1,10,-1
 587 786 l 1,11,-1
 821 463 l 1,12,-1
 637 296 l 1,13,-1
 460 657 l 1,14,-1
 276 296 l 1,0,-1
EndSplineSet
EndChar

StartChar: uni2215
Encoding: 8725 8725 618
Width: 913
VWidth: 2392
GlyphClass: 1
Flags: HW
LayerCount: 2
Fore
SplineSet
206 -246 m 1,0,-1
 32 -198 l 1,1,-1
 707 1908 l 1,2,-1
 881 1858 l 1,3,-1
 206 -246 l 1,0,-1
EndSplineSet
EndChar

StartChar: element
Encoding: 8712 8712 619
Width: 922
VWidth: 2424
GlyphClass: 1
Flags: HW
LayerCount: 2
Fore
SplineSet
542 -19 m 2,0,1
 305 -19 305 -19 168.5 131.5 c 128,-1,2
 32 282 32 282 32 546 c 0,3,4
 32 724 32 724 94.5 852.5 c 128,-1,5
 157 981 157 981 271 1054 c 128,-1,6
 385 1127 385 1127 538 1127 c 2,7,-1
 890 1127 l 1,8,-1
 890 972 l 1,9,-1
 570 972 l 2,10,11
 385 972 385 972 290.5 888.5 c 128,-1,12
 196 805 196 805 180 625 c 1,13,-1
 890 625 l 1,14,-1
 890 470 l 1,15,-1
 180 470 l 1,16,17
 193 290 193 290 284.5 213 c 128,-1,18
 376 136 376 136 570 136 c 2,19,-1
 890 136 l 1,20,-1
 890 -19 l 1,21,-1
 542 -19 l 2,0,1
EndSplineSet
EndChar

StartChar: plus
Encoding: 43 43 621
Width: 922
VWidth: 2424
GlyphClass: 1
Flags: HW
LayerCount: 2
Fore
SplineSet
366 252 m 1,0,-1
 366 678 l 1,1,-1
 32 678 l 1,2,-1
 32 890 l 1,3,-1
 366 890 l 1,4,-1
 366 1280 l 1,5,-1
 567 1280 l 1,6,-1
 567 890 l 1,7,-1
 890 890 l 1,8,-1
 890 678 l 1,9,-1
 567 678 l 1,10,-1
 567 252 l 1,11,-1
 366 252 l 1,0,-1
EndSplineSet
EndChar

StartChar: minus
Encoding: 8722 8722 622
Width: 922
VWidth: 2424
GlyphClass: 1
Flags: HW
LayerCount: 2
Fore
SplineSet
32 678 m 1,0,-1
 32 890 l 1,1,-1
 890 890 l 1,2,-1
 890 678 l 1,3,-1
 32 678 l 1,0,-1
EndSplineSet
Substitution2: "'sups' Superscript in Latin lookup 20 subtable" uni207B
Substitution2: "'aalt' Access All Alternates in Latin lookup 0 subtable" uni207B
EndChar

StartChar: multiply
Encoding: 215 215 623
Width: 881
VWidth: 2424
GlyphClass: 1
Flags: HW
LayerCount: 2
Fore
SplineSet
687 342 m 1,0,-1
 434 645 l 1,1,-1
 185 354 l 1,2,-1
 32 514 l 1,3,-1
 287 814 l 1,4,-1
 32 1122 l 1,5,-1
 192 1284 l 1,6,-1
 437 990 l 1,7,-1
 687 1282 l 1,8,-1
 849 1127 l 1,9,-1
 587 817 l 1,10,-1
 842 509 l 1,11,-1
 687 342 l 1,0,-1
EndSplineSet
EndChar

StartChar: divide
Encoding: 247 247 624
Width: 886
VWidth: 2424
GlyphClass: 1
Flags: HW
LayerCount: 2
Fore
SplineSet
453 231 m 128,-1,1
 400 231 400 231 362 268 c 128,-1,2
 324 305 324 305 324 359 c 0,3,4
 324 415 324 415 363.5 452.5 c 128,-1,5
 403 490 403 490 453 490 c 0,6,7
 504 490 504 490 543 450 c 128,-1,8
 582 410 582 410 582 359 c 0,9,10
 582 306 582 306 544 268.5 c 128,-1,0
 506 231 506 231 453 231 c 128,-1,1
32 645 m 1,11,-1
 32 877 l 1,12,-1
 854 877 l 1,13,-1
 854 645 l 1,14,-1
 32 645 l 1,11,-1
451 1025 m 0,15,16
 400 1025 400 1025 362 1063 c 128,-1,17
 324 1101 324 1101 324 1154 c 128,-1,18
 324 1207 324 1207 363.5 1247 c 128,-1,19
 403 1287 403 1287 451 1287 c 0,20,21
 507 1287 507 1287 544.5 1246 c 128,-1,22
 582 1205 582 1205 582 1154 c 0,23,24
 582 1101 582 1101 544.5 1063 c 128,-1,25
 507 1025 507 1025 451 1025 c 0,15,16
EndSplineSet
EndChar

StartChar: equal
Encoding: 61 61 625
Width: 922
VWidth: 2424
GlyphClass: 1
Flags: HW
LayerCount: 2
Fore
SplineSet
32 410 m 1,0,-1
 32 618 l 1,1,-1
 890 618 l 1,2,-1
 890 410 l 1,3,-1
 32 410 l 1,0,-1
32 914 m 1,4,-1
 32 1122 l 1,5,-1
 890 1122 l 1,6,-1
 890 914 l 1,7,-1
 32 914 l 1,4,-1
EndSplineSet
EndChar

StartChar: notequal
Encoding: 8800 8800 626
Width: 922
VWidth: 2424
GlyphClass: 1
Flags: HW
LayerCount: 2
Fore
SplineSet
32 410 m 1,0,-1
 32 618 l 1,1,-1
 300 618 l 1,2,-1
 444 914 l 1,3,-1
 32 914 l 1,4,-1
 32 1122 l 1,5,-1
 544 1122 l 1,6,-1
 721 1494 l 1,7,-1
 856 1413 l 1,8,-1
 717 1122 l 1,9,-1
 890 1122 l 1,10,-1
 890 914 l 1,11,-1
 617 914 l 1,12,-1
 473 618 l 1,13,-1
 890 618 l 1,14,-1
 890 410 l 1,15,-1
 373 410 l 1,16,-1
 195 41 l 1,17,-1
 59 118 l 1,18,-1
 200 410 l 1,19,-1
 32 410 l 1,0,-1
EndSplineSet
EndChar

StartChar: greater
Encoding: 62 62 627
Width: 922
VWidth: 2424
GlyphClass: 1
Flags: HW
LayerCount: 2
Fore
SplineSet
32 92 m 1,0,-1
 32 352 l 1,1,-1
 653 778 l 1,2,-1
 34 1154 l 1,3,-1
 34 1404 l 1,4,-1
 890 854 l 1,5,-1
 890 708 l 1,6,-1
 32 92 l 1,0,-1
EndSplineSet
EndChar

StartChar: less
Encoding: 60 60 628
Width: 922
VWidth: 2424
GlyphClass: 1
Flags: HW
LayerCount: 2
Fore
SplineSet
890 92 m 1,0,-1
 32 708 l 1,1,-1
 32 854 l 1,2,-1
 884 1404 l 1,3,-1
 884 1154 l 1,4,-1
 267 778 l 1,5,-1
 890 359 l 1,6,-1
 890 92 l 1,0,-1
EndSplineSet
EndChar

StartChar: lessequal
Encoding: 8804 8804 630
Width: 922
VWidth: 2424
GlyphClass: 1
Flags: HW
LayerCount: 2
Fore
SplineSet
59 53 m 1,0,-1
 59 252 l 1,1,-1
 890 252 l 1,2,-1
 890 53 l 1,3,-1
 59 53 l 1,0,-1
890 335 m 1,4,-1
 32 805 l 1,5,-1
 32 948 l 1,6,-1
 890 1425 l 1,7,-1
 890 1191 l 1,8,-1
 273 875 l 1,9,-1
 890 572 l 1,10,-1
 890 335 l 1,4,-1
EndSplineSet
EndChar

StartChar: plusminus
Encoding: 177 177 631
Width: 922
VWidth: 2424
GlyphClass: 1
Flags: HW
LayerCount: 2
Fore
SplineSet
32 7 m 1,0,-1
 32 228 l 1,1,-1
 890 228 l 1,2,-1
 890 7 l 1,3,-1
 32 7 l 1,0,-1
367 368 m 1,4,-1
 367 796 l 1,5,-1
 34 796 l 1,6,-1
 34 1006 l 1,7,-1
 367 1006 l 1,8,-1
 367 1399 l 1,9,-1
 569 1399 l 1,10,-1
 569 1006 l 1,11,-1
 890 1006 l 1,12,-1
 890 796 l 1,13,-1
 569 796 l 1,14,-1
 569 368 l 1,15,-1
 367 368 l 1,4,-1
EndSplineSet
EndChar

StartChar: asciitilde
Encoding: 126 126 633
Width: 922
VWidth: 2424
GlyphClass: 1
Flags: HW
LayerCount: 2
Fore
SplineSet
635 606 m 0,0,1
 568 606 568 606 519 638.5 c 128,-1,2
 470 671 470 671 428.5 704.5 c 128,-1,3
 387 738 387 738 340 738 c 0,4,5
 241 738 241 738 179 625 c 1,6,-1
 32 756 l 1,7,8
 75 836 75 836 147 894.5 c 128,-1,9
 219 953 219 953 314 953 c 0,10,11
 381 953 381 953 432.5 921.5 c 128,-1,12
 484 890 484 890 527 857 c 128,-1,13
 570 824 570 824 614 824 c 0,14,15
 657 824 657 824 693.5 858.5 c 128,-1,16
 730 893 730 893 764 946 c 1,17,-1
 890 796 l 1,18,19
 836 708 836 708 773 657 c 128,-1,20
 710 606 710 606 635 606 c 0,0,1
EndSplineSet
Substitution2: "'ss01' Style Set 1 in Latin lookup 35 subtable" asciitilde.ss01
Substitution2: "'salt' Stylistic Alternatives in Latin lookup 34 subtable" asciitilde.ss01
Substitution2: "'aalt' Access All Alternates in Latin lookup 0 subtable" asciitilde.ss01
EndChar

StartChar: logicalnot
Encoding: 172 172 634
Width: 812
VWidth: 2424
GlyphClass: 1
Flags: HW
LayerCount: 2
Fore
SplineSet
539 373 m 1,0,-1
 539 657 l 1,1,-1
 32 657 l 1,2,-1
 32 888 l 1,3,-1
 780 888 l 1,4,-1
 780 373 l 1,5,-1
 539 373 l 1,0,-1
EndSplineSet
EndChar

StartChar: asciicircum
Encoding: 94 94 635
Width: 828
VWidth: 2424
GlyphClass: 1
Flags: HW
LayerCount: 2
Fore
SplineSet
226 807 m 1,0,-1
 32 900 l 1,1,-1
 365 1513 l 1,2,-1
 490 1513 l 1,3,-1
 796 902 l 1,4,-1
 601 810 l 1,5,-1
 420 1168 l 1,6,-1
 226 807 l 1,0,-1
EndSplineSet
Substitution2: "'ss01' Style Set 1 in Latin lookup 35 subtable" asciicircum.ss01
Substitution2: "'salt' Stylistic Alternatives in Latin lookup 34 subtable" asciicircum.ss01
Substitution2: "'aalt' Access All Alternates in Latin lookup 0 subtable" asciicircum.ss01
EndChar

StartChar: infinity
Encoding: 8734 8734 636
Width: 899
VWidth: 2424
GlyphClass: 1
Flags: HW
LayerCount: 2
Fore
SplineSet
724 729 m 0,0,1
 724 778 724 778 701.5 811 c 128,-1,2
 679 844 679 844 644 844 c 0,3,4
 588 844 588 844 532 729 c 1,5,6
 584 608 584 608 646 608 c 0,7,8
 681 608 681 608 702.5 642 c 128,-1,9
 724 676 724 676 724 729 c 0,0,1
362 729 m 1,10,11
 316 847 316 847 254 849 c 0,12,13
 215 849 215 849 194 814.5 c 128,-1,14
 173 780 173 780 173 729 c 0,15,16
 173 683 173 683 194.5 648 c 128,-1,17
 216 613 216 613 256 613 c 0,18,19
 287 613 287 613 312 643 c 128,-1,20
 337 673 337 673 362 729 c 1,10,11
878 724 m 0,21,22
 878 639 878 639 850 568 c 128,-1,23
 822 497 822 497 771 453.5 c 128,-1,24
 720 410 720 410 654 410 c 0,25,26
 528 410 528 410 447 562 c 1,27,28
 403 495 403 495 352 453.5 c 128,-1,29
 301 412 301 412 246 412 c 0,30,31
 149 412 149 412 84.5 501 c 128,-1,32
 20 590 20 590 20 729 c 0,33,34
 20 863 20 863 82 955.5 c 128,-1,35
 144 1048 144 1048 246 1048 c 0,36,37
 304 1048 304 1048 356 1012.5 c 128,-1,38
 408 977 408 977 451 895 c 1,39,40
 492 967 492 967 541 1006 c 128,-1,41
 590 1045 590 1045 654 1045 c 0,42,43
 753 1045 753 1045 815.5 957.5 c 128,-1,44
 878 870 878 870 878 724 c 0,21,22
EndSplineSet
EndChar

StartChar: emptyset
Encoding: 8709 8709 637
Width: 899
VWidth: 2424
GlyphClass: 1
Flags: HW
LayerCount: 2
Fore
SplineSet
446 446 m 0,0,1
 515 446 515 446 570.5 492.5 c 128,-1,2
 626 539 626 539 659.5 617.5 c 128,-1,3
 693 696 693 696 693 791 c 0,4,5
 693 876 693 876 664 946 c 1,6,-1
 313 502 l 1,7,8
 373 446 373 446 446 446 c 0,0,1
203 791 m 0,9,10
 203 706 203 706 230 633 c 1,11,-1
 581 1074 l 1,12,13
 522.052631579 1129.01754386 522.052631579 1129.01754386 448.626962142 1129.01754386 c 0,0,0
 447.315789474 1129.01754386 447.315789474 1129.01754386 446 1129 c 0,14,15
 379 1129 379 1129 323.5 1083.5 c 128,-1,16
 268 1038 268 1038 235.5 962 c 128,-1,17
 203 886 203 886 203 791 c 0,9,10
113 250 m 1,18,-1
 18 366 l 1,19,-1
 117 490 l 1,20,21
 84 553 84 553 66 630.5 c 128,-1,22
 48 708 48 708 48 791 c 0,23,24
 48 939 48 939 101.5 1058.5 c 128,-1,25
 155 1178 155 1178 245 1249.5 c 128,-1,26
 335 1321 335 1321 446 1321 c 0,27,28
 517 1321 517 1321 578 1292 c 128,-1,29
 639 1263 639 1263 693 1212 c 1,30,-1
 783 1328 l 1,31,-1
 876 1212 l 1,32,-1
 779 1089 l 1,33,34
 812 1026 812 1026 829.5 949 c 128,-1,35
 847 872 847 872 847 791 c 0,36,37
 847 645 847 645 794 523.5 c 128,-1,38
 741 402 741 402 649.5 329.5 c 128,-1,39
 558 257 558 257 446 257 c 0,40,41
 377 257 377 257 315.5 286 c 128,-1,42
 254 315 254 315 203 366 c 1,43,-1
 113 250 l 1,18,-1
EndSplineSet
EndChar

StartChar: integral
Encoding: 8747 8747 638
Width: 797
VWidth: 2342
GlyphClass: 1
Flags: HW
LayerCount: 2
Fore
SplineSet
191 -246 m 0,0,1
 105 -246 105 -246 32 -208 c 1,2,-1
 32 -12 l 1,3,4
 62 -26 62 -26 94 -36.5 c 128,-1,5
 126 -47 126 -47 155 -47 c 0,6,7
 217 -47 217 -47 251 1 c 128,-1,8
 285 49 285 49 285 156 c 2,9,-1
 285 1453 l 2,10,11
 285 1658 285 1658 371.5 1750 c 128,-1,12
 458 1842 458 1842 609 1842 c 0,13,14
 655 1842 655 1842 692 1833 c 128,-1,15
 729 1824 729 1824 765 1807 c 1,16,-1
 765 1611 l 1,17,18
 733 1623 733 1623 699 1633.5 c 128,-1,19
 665 1644 665 1644 638 1644 c 0,20,21
 576 1644 576 1644 542 1598 c 128,-1,22
 508 1552 508 1552 508 1427 c 2,23,-1
 508 134 l 2,24,25
 508 -63 508 -63 419.5 -154.5 c 128,-1,26
 331 -246 331 -246 191 -246 c 0,0,1
EndSplineSet
EndChar

StartChar: uni2126
Encoding: 8486 8486 639
Width: 901
VWidth: 2424
GlyphClass: 1
Flags: HW
LayerCount: 2
Fore
SplineSet
452 1355 m 128,-1,1
 349 1355 349 1355 295 1237.5 c 128,-1,2
 241 1120 241 1120 241 897 c 0,3,4
 241 686 241 686 282.5 538.5 c 128,-1,5
 324 391 324 391 397 315 c 1,6,-1
 397 0 l 1,7,-1
 22 0 l 1,8,-1
 22 245 l 1,9,-1
 210 245 l 1,10,11
 125 349 125 349 75.5 528.5 c 128,-1,12
 26 708 26 708 26 946 c 0,13,14
 26 1283 26 1283 139.5 1459.5 c 128,-1,15
 253 1636 253 1636 450 1636 c 0,16,17
 641 1636 641 1636 757.5 1461.5 c 128,-1,18
 874 1287 874 1287 874 946 c 0,19,20
 874 469 874 469 688 245 c 1,21,-1
 880 245 l 1,22,-1
 880 0 l 1,23,-1
 501 0 l 1,24,-1
 501 315 l 1,25,26
 586 395 586 395 622.5 543 c 128,-1,27
 659 691 659 691 659 900 c 0,28,29
 659 1123 659 1123 607 1239 c 128,-1,0
 555 1355 555 1355 452 1355 c 128,-1,1
EndSplineSet
EndChar

StartChar: uni2206
Encoding: 8710 8710 640
Width: 922
VWidth: 2424
GlyphClass: 1
Flags: HW
LayerCount: 2
Fore
SplineSet
661 225 m 1,0,-1
 465 1384 l 1,1,-1
 461 1384 l 1,2,-1
 258 225 l 1,3,-1
 661 225 l 1,0,-1
595 1636 m 1,4,-1
 890 157 l 1,5,-1
 888 0 l 1,6,-1
 32 0 l 1,7,-1
 32 160 l 1,8,-1
 329 1636 l 1,9,-1
 595 1636 l 1,4,-1
EndSplineSet
EndChar

StartChar: product
Encoding: 8719 8719 641
Width: 883
VWidth: 2323
GlyphClass: 1
Flags: HW
LayerCount: 2
Fore
SplineSet
32 -246 m 1,0,-1
 32 1511 l 1,1,-1
 851 1511 l 1,2,3
 851 1492 851 1492 845.5 1482 c 128,-1,4
 840 1472 840 1472 836 1435 c 1,5,-1
 836 -246 l 1,6,-1
 609 -246 l 1,7,-1
 609 1323 l 1,8,-1
 261 1323 l 1,9,-1
 261 -246 l 1,10,-1
 32 -246 l 1,0,-1
EndSplineSet
EndChar

StartChar: summation
Encoding: 8721 8721 642
Width: 922
VWidth: 2356
GlyphClass: 1
Flags: HW
LayerCount: 2
Fore
SplineSet
32 -246 m 1,0,-1
 32 -68 l 1,1,-1
 406 688 l 1,2,-1
 42 1441 l 1,3,-1
 42 1619 l 1,4,-1
 863 1619 l 1,5,-1
 863 1415 l 1,6,-1
 278 1415 l 1,7,-1
 615 692 l 1,8,-1
 255 -42 l 1,9,-1
 890 -42 l 1,10,-1
 890 -246 l 1,11,-1
 32 -246 l 1,0,-1
EndSplineSet
EndChar

StartChar: radical
Encoding: 8730 8730 643
Width: 868
VWidth: 2424
GlyphClass: 1
Flags: HW
LayerCount: 2
Fore
SplineSet
311 -17 m 1,0,-1
 145 636 l 1,1,-1
 -2 636 l 1,2,-1
 -2 839 l 1,3,-1
 263 839 l 1,4,-1
 376 386 l 1,5,-1
 671 1636 l 1,6,-1
 856 1636 l 1,7,-1
 465 -17 l 1,8,-1
 311 -17 l 1,0,-1
EndSplineSet
EndChar

StartChar: uni00B5
Encoding: 181 181 644
Width: 867
VWidth: 2313
GlyphClass: 1
Flags: HW
LayerCount: 2
Fore
SplineSet
2 -246 m 1,0,1
 2 -161 2 -161 17.5 45.5 c 128,-1,2
 33 252 33 252 33 548 c 2,3,-1
 33 1127 l 1,4,-1
 234 1127 l 1,5,-1
 234 502 l 2,6,7
 234 364 234 364 264 314 c 128,-1,8
 294 264 294 264 346 264 c 0,9,10
 460 264 460 264 459 497 c 2,11,-1
 459 1127 l 1,12,-1
 657 1127 l 1,13,-1
 657 373 l 2,14,15
 657 280 657 280 708 280 c 0,16,17
 724 280 724 280 743.5 300 c 128,-1,18
 763 320 763 320 773 344 c 2,19,-1
 785 377 l 1,20,-1
 860 202 l 1,21,22
 822 136 822 136 777.5 103 c 128,-1,23
 733 70 733 70 687 70 c 128,-1,24
 641 70 641 70 607.5 106 c 128,-1,25
 574 142 574 142 558 191 c 1,26,27
 532 136 532 136 482.5 106 c 128,-1,28
 433 76 433 76 372 76 c 0,29,30
 321 76 321 76 269.5 104.5 c 128,-1,31
 218 133 218 133 192 193 c 1,32,33
 192 136 192 136 191 53.5 c 128,-1,34
 190 -29 190 -29 189 -109 c 128,-1,35
 188 -189 188 -189 188 -246 c 1,36,-1
 2 -246 l 1,0,1
EndSplineSet
EndChar

StartChar: partialdiff
Encoding: 8706 8706 645
Width: 922
VWidth: 2424
GlyphClass: 1
Flags: HW
LayerCount: 2
Fore
SplineSet
417 169 m 0,0,1
 500 169 500 169 553 251 c 128,-1,2
 606 333 606 333 634 462.5 c 128,-1,3
 662 592 662 592 670 738 c 1,4,5
 603.387283237 909.005780347 603.387283237 909.005780347 484.385512379 909.005780347 c 0,0,0
 483.693641618 909.005780347 483.693641618 909.005780347 483 909 c 0,6,7
 416 909 416 909 370 864 c 128,-1,8
 324 819 324 819 296 745 c 128,-1,9
 268 671 268 671 257.5 585.5 c 128,-1,10
 251.540540541 536.972972973 251.540540541 536.972972973 251.540540541 488.284879474 c 0,0,0
 251.540540541 451.189189189 251.540540541 451.189189189 255 414 c 0,11,12
 265 289 265 289 307.5 229 c 128,-1,13
 350 169 350 169 417 169 c 0,0,1
409 -27 m 0,14,15
 235 -27 235 -27 143.5 102 c 128,-1,16
 52 231 52 231 36 424 c 0,17,18
 32.3636363636 468 32.3636363636 468 32.3636363636 511.801652893 c 0,0,0
 32.3636363636 588.454545455 32.3636363636 588.454545455 43.5 664.5 c 128,-1,19
 61 784 61 784 109.5 881.5 c 128,-1,20
 158 979 158 979 238 1039 c 128,-1,21
 318 1099 318 1099 429 1099 c 0,22,23
 506 1099 506 1099 566.5 1062 c 128,-1,24
 627 1025 627 1025 672 960 c 1,25,26
 672 984 672 984 670 1006 c 128,-1,27
 668 1028 668 1028 666 1052 c 0,28,29
 656 1205 656 1205 598 1305.5 c 128,-1,30
 540 1406 540 1406 415 1406 c 0,31,32
 365 1406 365 1406 303 1389 c 128,-1,33
 241 1372 241 1372 190 1333 c 1,34,-1
 170 1539 l 1,35,36
 226 1571 226 1571 290.5 1587 c 128,-1,37
 355 1603 355 1603 417 1603 c 0,38,39
 575 1603 575 1603 672.5 1528 c 128,-1,40
 770 1453 770 1453 819.5 1315.5 c 128,-1,41
 869 1178 869 1178 884 994 c 0,42,43
 889.882352941 911.058823529 889.882352941 911.058823529 889.882352941 827.079584775 c 0,0,0
 889.882352941 768.294117647 889.882352941 768.294117647 887 709 c 128,-1,44
 880 565 880 565 849.5 433 c 128,-1,45
 819 301 819 301 762.5 198 c 128,-1,46
 706 95 706 95 618.5 34 c 128,-1,47
 531 -27 531 -27 409 -27 c 0,14,15
EndSplineSet
EndChar

StartChar: percent
Encoding: 37 37 646
Width: 907
VWidth: 2424
GlyphClass: 1
Flags: HW
LayerCount: 2
Fore
SplineSet
666 141 m 128,-1,1
 701 141 701 141 721.5 182 c 128,-1,2
 742 223 742 223 742 294 c 0,3,4
 742 361 742 361 722.5 406 c 128,-1,5
 703 451 703 451 666 451 c 0,6,7
 631 451 631 451 609.5 411 c 128,-1,8
 588 371 588 371 588 296 c 128,-1,9
 588 221 588 221 609.5 181 c 128,-1,0
 631 141 631 141 666 141 c 128,-1,1
666 -24 m 0,10,11
 576 -24 576 -24 512 65.5 c 128,-1,12
 448 155 448 155 448 296 c 128,-1,13
 448 437 448 437 512 527.5 c 128,-1,14
 576 618 576 618 666 618 c 0,15,16
 758 618 758 618 821 526 c 128,-1,17
 884 434 884 434 884 296 c 0,18,19
 884 153 884 153 821 64.5 c 128,-1,20
 758 -24 758 -24 666 -24 c 0,10,11
244 1060 m 0,21,22
 318 1060 318 1060 318 1215 c 0,23,24
 318 1290 318 1290 297.5 1330 c 128,-1,25
 277 1370 277 1370 242 1370 c 0,26,27
 209 1370 209 1370 188.5 1330 c 128,-1,28
 168 1290 168 1290 168 1215 c 128,-1,29
 168 1140 168 1140 188.5 1100 c 128,-1,30
 209 1060 209 1060 244 1060 c 0,21,22
52 0 m 1,31,-1
 695 1511 l 1,32,-1
 853 1511 l 1,33,-1
 207 0 l 1,34,-1
 52 0 l 1,31,-1
244 893 m 0,35,36
 154 893 154 893 90 983.5 c 128,-1,37
 26 1074 26 1074 26 1217 c 0,38,39
 26 1356 26 1356 90 1446.5 c 128,-1,40
 154 1537 154 1537 244 1537 c 128,-1,41
 334 1537 334 1537 398 1445 c 128,-1,42
 462 1353 462 1353 462 1215 c 0,43,44
 462 1069 462 1069 400 981 c 128,-1,45
 338 893 338 893 244 893 c 0,35,36
EndSplineSet
EndChar

StartChar: perthousand
Encoding: 8240 8240 647
Width: 922
VWidth: 2424
GlyphClass: 1
Flags: HW
LayerCount: 2
Fore
SplineSet
683 129 m 0,0,1
 710 129 710 129 730.5 164 c 128,-1,2
 751 199 751 199 751 266 c 0,3,4
 751 329 751 329 731.5 368 c 128,-1,5
 712 407 712 407 679 407 c 0,6,7
 652 407 652 407 631 374.5 c 128,-1,8
 610 342 610 342 610 271 c 0,9,10
 610 196 610 196 632 162.5 c 128,-1,11
 654 129 654 129 683 129 c 0,0,1
235 129 m 0,12,13
 262 129 262 129 282.5 164 c 128,-1,14
 303 199 303 199 303 266 c 0,15,16
 303 329 303 329 283.5 368 c 128,-1,17
 264 407 264 407 230 407 c 0,18,19
 203 407 203 407 183 374.5 c 128,-1,20
 163 342 163 342 163 271 c 0,21,22
 163 196 163 196 184.5 162.5 c 128,-1,23
 206 129 206 129 235 129 c 0,12,13
681 -24 m 0,24,25
 602 -24 602 -24 543.5 57.5 c 128,-1,26
 485 139 485 139 485 269 c 0,27,28
 485 398 485 398 543.5 481.5 c 128,-1,29
 602 565 602 565 681 565 c 0,30,31
 764 565 764 565 819.5 482.5 c 128,-1,32
 875 400 875 400 875 269 c 128,-1,33
 875 138 875 138 816.5 57 c 128,-1,34
 758 -24 758 -24 681 -24 c 0,24,25
233 -24 m 0,35,36
 154 -24 154 -24 96 57.5 c 128,-1,37
 38 139 38 139 38 269 c 0,38,39
 38 398 38 398 96 481.5 c 128,-1,40
 154 565 154 565 233 565 c 0,41,42
 316 565 316 565 373 481.5 c 128,-1,43
 430 398 430 398 430 269 c 0,44,45
 430 138 430 138 370 57 c 128,-1,46
 310 -24 310 -24 233 -24 c 0,35,36
32 539 m 1,47,-1
 32 701 l 1,48,-1
 890 1302 l 1,49,-1
 890 1140 l 1,50,-1
 32 539 l 1,47,-1
235 1101 m 0,51,52
 262 1101 262 1101 282.5 1137 c 128,-1,53
 303 1173 303 1173 303 1242 c 0,54,55
 303 1305 303 1305 283.5 1344.5 c 128,-1,56
 264 1384 264 1384 230 1384 c 0,57,58
 203 1384 203 1384 183 1350 c 128,-1,59
 163 1316 163 1316 163 1247 c 0,60,61
 163 1172 163 1172 184.5 1136.5 c 128,-1,62
 206 1101 206 1101 235 1101 c 0,51,52
233 951 m 0,63,64
 154 951 154 951 96 1032 c 128,-1,65
 38 1113 38 1113 38 1244 c 0,66,67
 38 1373 38 1373 96 1456 c 128,-1,68
 154 1539 154 1539 233 1539 c 0,69,70
 316 1539 316 1539 373 1456.5 c 128,-1,71
 430 1374 430 1374 430 1244 c 0,72,73
 430 1113 430 1113 370 1032 c 128,-1,74
 310 951 310 951 233 951 c 0,63,64
EndSplineSet
EndChar

StartChar: circleplus
Encoding: 8853 8853 648
Width: 922
VWidth: 2424
GlyphClass: 1
Flags: HW
LayerCount: 2
Fore
SplineSet
401 429 m 1,0,-1
 401 684 l 1,1,-1
 216 684 l 1,2,-1
 216 824 l 1,3,-1
 401 824 l 1,4,-1
 401 1055 l 1,5,-1
 528 1055 l 1,6,-1
 528 824 l 1,7,-1
 706 824 l 1,8,-1
 706 684 l 1,9,-1
 528 684 l 1,10,-1
 528 429 l 1,11,-1
 401 429 l 1,0,-1
459 363 m 128,-1,13
 543 363 543 363 613 415.5 c 128,-1,14
 683 468 683 468 723.5 554 c 128,-1,15
 764 640 764 640 764 747 c 128,-1,16
 764 854 764 854 723.5 939.5 c 128,-1,17
 683 1025 683 1025 613 1076 c 128,-1,18
 543 1127 543 1127 459 1127 c 128,-1,19
 375 1127 375 1127 306.5 1076 c 128,-1,20
 238 1025 238 1025 197.5 939.5 c 128,-1,21
 157 854 157 854 157 747 c 128,-1,22
 157 640 157 640 197.5 554 c 128,-1,23
 238 468 238 468 306.5 415.5 c 128,-1,12
 375 363 375 363 459 363 c 128,-1,13
459 220 m 128,-1,25
 341 220 341 220 243.5 290.5 c 128,-1,26
 146 361 146 361 89 480 c 128,-1,27
 32 599 32 599 32 747 c 128,-1,28
 32 895 32 895 89 1013.5 c 128,-1,29
 146 1132 146 1132 243.5 1202.5 c 128,-1,30
 341 1273 341 1273 459 1273 c 128,-1,31
 577 1273 577 1273 675 1202.5 c 128,-1,32
 773 1132 773 1132 831.5 1013.5 c 128,-1,33
 890 895 890 895 890 747 c 128,-1,34
 890 599 890 599 831.5 480 c 128,-1,35
 773 361 773 361 675 290.5 c 128,-1,24
 577 220 577 220 459 220 c 128,-1,25
EndSplineSet
EndChar

StartChar: arrowup
Encoding: 8593 8593 651
Width: 922
VWidth: 2424
GlyphClass: 1
Flags: HW
LayerCount: 2
Fore
SplineSet
356 0 m 1,0,-1
 356 1009 l 1,1,-1
 189 749 l 1,2,-1
 32 914 l 1,3,-1
 405 1492 l 1,4,-1
 517 1492 l 1,5,-1
 890 914 l 1,6,-1
 733 749 l 1,7,-1
 567 1006 l 1,8,-1
 567 0 l 1,9,-1
 356 0 l 1,0,-1
EndSplineSet
EndChar

StartChar: uni2197
Encoding: 8599 8599 652
Width: 954
VWidth: 2424
GlyphClass: 1
Flags: HW
LayerCount: 2
Fore
SplineSet
32 470 m 1,0,-1
 517 1120 l 1,1,-1
 242 1074 l 1,2,-1
 227 1319 l 1,3,-1
 811 1402 l 1,4,-1
 890 1300 l 1,5,-1
 831 572 l 1,6,-1
 629 594 l 1,7,-1
 661 941 l 1,8,-1
 182 303 l 1,9,-1
 32 470 l 1,0,-1
EndSplineSet
EndChar

StartChar: arrowright
Encoding: 8594 8594 653
Width: 920
VWidth: 2424
GlyphClass: 1
Flags: HW
LayerCount: 2
Fore
SplineSet
23 842 m 1,0,-1
 526 842 l 1,1,-1
 307 1087 l 1,2,-1
 442 1263 l 1,3,-1
 881 784 l 1,4,-1
 881 655 l 1,5,-1
 442 174 l 1,6,-1
 307 352 l 1,7,-1
 524 594 l 1,8,-1
 23 594 l 1,9,-1
 23 842 l 1,0,-1
EndSplineSet
EndChar

StartChar: arrowboth
Encoding: 8596 8596 659
Width: 876
VWidth: 2424
GlyphClass: 1
Flags: HW
LayerCount: 2
Fore
SplineSet
618 1189 m 1,0,-1
 860 771 l 1,1,-1
 860 659 l 1,2,-1
 616 247 l 1,3,-1
 473 349 l 1,4,-1
 602 592 l 1,5,-1
 257 592 l 1,6,-1
 388 349 l 1,7,-1
 244 247 l 1,8,-1
 2 659 l 1,9,-1
 2 771 l 1,10,-1
 244 1189 l 1,11,-1
 390 1094 l 1,12,-1
 255 842 l 1,13,-1
 604 842 l 1,14,-1
 473 1094 l 1,15,-1
 618 1189 l 1,0,-1
EndSplineSet
EndChar

StartChar: arrowupdn
Encoding: 8597 8597 660
Width: 920
VWidth: 2424
GlyphClass: 1
Flags: HW
LayerCount: 2
Fore
SplineSet
888 456 m 1,0,-1
 508 125 l 1,1,-1
 408 125 l 1,2,-1
 32 458 l 1,3,-1
 127 645 l 1,4,-1
 335 475 l 1,5,-1
 335 1020 l 1,6,-1
 127 851 l 1,7,-1
 32 1038 l 1,8,-1
 408 1367 l 1,9,-1
 508 1367 l 1,10,-1
 888 1038 l 1,11,-1
 798 846 l 1,12,-1
 582 1023 l 1,13,-1
 582 472 l 1,14,-1
 798 645 l 1,15,-1
 888 456 l 1,0,-1
EndSplineSet
EndChar

StartChar: uni21E7
Encoding: 8679 8679 661
Width: 922
VWidth: 2424
GlyphClass: 1
Flags: HW
LayerCount: 2
Fore
SplineSet
351 125 m 1,0,-1
 573 125 l 1,1,-1
 573 1013 l 1,2,-1
 730 1013 l 1,3,-1
 462 1374 l 1,4,-1
 200 1013 l 1,5,-1
 351 1013 l 1,6,-1
 351 125 l 1,0,-1
239 0 m 1,7,-1
 239 885 l 1,8,-1
 32 885 l 1,9,-1
 32 992 l 1,10,-1
 435 1543 l 1,11,-1
 489 1543 l 1,12,-1
 890 992 l 1,13,-1
 890 885 l 1,14,-1
 686 885 l 1,15,-1
 686 0 l 1,16,-1
 239 0 l 1,7,-1
EndSplineSet
EndChar

StartChar: uni21E8
Encoding: 8680 8680 662
Width: 876
VWidth: 2424
GlyphClass: 1
Flags: HW
LayerCount: 2
Fore
SplineSet
104 831 m 1,0,-1
 104 543 l 1,1,-1
 479 543 l 1,2,-1
 479 373 l 1,3,-1
 741 689 l 1,4,-1
 479 1006 l 1,5,-1
 479 831 l 1,6,-1
 104 831 l 1,0,-1
2 958 m 1,7,-1
 375 958 l 1,8,-1
 375 1215 l 1,9,-1
 455 1215 l 1,10,-1
 860 720 l 1,11,-1
 860 655 l 1,12,-1
 455 162 l 1,13,-1
 375 162 l 1,14,-1
 375 417 l 1,15,-1
 2 417 l 1,16,-1
 2 958 l 1,7,-1
EndSplineSet
EndChar

StartChar: uni2B06
Encoding: 11014 11014 665
Width: 922
VWidth: 2424
GlyphClass: 1
Flags: HW
LayerCount: 2
Fore
SplineSet
890 992 m 1,0,-1
 890 885 l 1,1,-1
 684 885 l 1,2,-1
 684 0 l 1,3,-1
 241 0 l 1,4,-1
 241 885 l 1,5,-1
 32 885 l 1,6,-1
 32 992 l 1,7,-1
 435 1543 l 1,8,-1
 489 1543 l 1,9,-1
 890 992 l 1,0,-1
EndSplineSet
EndChar

StartChar: uni2B05
Encoding: 11013 11013 668
Width: 876
VWidth: 2424
GlyphClass: 1
Flags: HW
LayerCount: 2
Fore
SplineSet
860 417 m 1,0,-1
 487 417 l 1,1,-1
 487 162 l 1,2,-1
 407 162 l 1,3,-1
 2 655 l 1,4,-1
 2 720 l 1,5,-1
 407 1215 l 1,6,-1
 487 1215 l 1,7,-1
 487 958 l 1,8,-1
 860 958 l 1,9,-1
 860 417 l 1,0,-1
EndSplineSet
EndChar

StartChar: dneighthblock
Encoding: 9601 9601 669
Width: -740
VWidth: 2423
GlyphClass: 1
Flags: HW
LayerCount: 2
Fore
SplineSet
0 -246 m 1,0,-1
 0 -546 l 1,1,-1
 -772 -546 l 1,2,-1
 -772 -246 l 1,3,-1
 0 -246 l 1,0,-1
EndSplineSet
EndChar

StartChar: dnquarterblock
Encoding: 9602 9602 670
Width: 126
VWidth: 254
GlyphClass: 1
Flags: HW
LayerCount: 2
Fore
SplineSet
-33 -246 m 1,0,-1
 -33 -121 l 1,1,-1
 128 -121 l 1,2,-1
 128 -246 l 1,3,-1
 -33 -246 l 1,0,-1
EndSplineSet
EndChar

StartChar: dnthreeeighthsblock
Encoding: 9603 9603 671
Width: 437
VWidth: 1217
GlyphClass: 1
Flags: HW
LayerCount: 2
Fore
SplineSet
-33 -246 m 1,0,-1
 -33 303 l 1,1,-1
 438 303 l 1,2,-1
 438 -246 l 1,3,-1
 -33 -246 l 1,0,-1
EndSplineSet
EndChar

StartChar: dnhalfblock
Encoding: 9604 9604 672
Width: 592
VWidth: 1699
GlyphClass: 1
Flags: HW
LayerCount: 2
Fore
SplineSet
-33 -246 m 1,0,-1
 -33 727 l 1,1,-1
 593 727 l 1,2,-1
 593 -246 l 1,3,-1
 -33 -246 l 1,0,-1
EndSplineSet
EndChar

StartChar: dnfiveeighthsblock
Encoding: 9605 9605 673
Width: 684
VWidth: 1989
GlyphClass: 1
Flags: HW
LayerCount: 2
Fore
SplineSet
-33 -246 m 1,0,-1
 -33 1152 l 1,1,-1
 686 1152 l 1,2,-1
 686 -246 l 1,3,-1
 -33 -246 l 1,0,-1
EndSplineSet
EndChar

StartChar: dnthreequartersblock
Encoding: 9606 9606 674
Width: 746
VWidth: 2181
GlyphClass: 1
Flags: HW
LayerCount: 2
Fore
SplineSet
-33 -246 m 1,0,-1
 -33 1576 l 1,1,-1
 748 1576 l 1,2,-1
 748 -246 l 1,3,-1
 -33 -246 l 1,0,-1
EndSplineSet
EndChar

StartChar: dnseveneighthsblock
Encoding: 9607 9607 675
Width: 790
VWidth: 2319
GlyphClass: 1
Flags: HW
LayerCount: 2
Fore
SplineSet
-34 -246 m 1,0,-1
 -34 2001 l 1,1,-1
 792 2001 l 1,2,-1
 792 -246 l 1,3,-1
 -34 -246 l 1,0,-1
EndSplineSet
EndChar

StartChar: fullblock
Encoding: 9608 9608 676
Width: 822
VWidth: 2424
GlyphClass: 1
Flags: HW
LayerCount: 2
Fore
SplineSet
-34 -246 m 1,0,-1
 -34 2424 l 1,1,-1
 824 2424 l 1,2,-1
 824 -246 l 1,3,-1
 -34 -246 l 1,0,-1
EndSplineSet
EndChar

StartChar: uphalfblock
Encoding: 9600 9600 677
Width: 822
VWidth: 2424
GlyphClass: 1
Flags: HW
LayerCount: 2
Fore
SplineSet
-34 727 m 1,0,-1
 -34 2424 l 1,1,-1
 824 2424 l 1,2,-1
 824 727 l 1,3,-1
 -34 727 l 1,0,-1
EndSplineSet
EndChar

StartChar: upeighthblock
Encoding: 9620 9620 678
Width: 822
VWidth: 2424
GlyphClass: 1
Flags: HW
LayerCount: 2
Fore
SplineSet
-34 2001 m 1,0,-1
 -34 2424 l 1,1,-1
 824 2424 l 1,2,-1
 824 2001 l 1,3,-1
 -34 2001 l 1,0,-1
EndSplineSet
EndChar

StartChar: lefteighthblock
Encoding: 9615 9615 679
Width: 141
VWidth: 2424
GlyphClass: 1
Flags: HW
LayerCount: 2
Fore
SplineSet
0 -246 m 1,0,-1
 0 2424 l 1,1,-1
 109 2424 l 1,2,-1
 109 -246 l 1,3,-1
 0 -246 l 1,0,-1
EndSplineSet
EndChar

StartChar: leftquarterblock
Encoding: 9614 9614 680
Width: 247
VWidth: 2424
GlyphClass: 1
Flags: HW
LayerCount: 2
Fore
SplineSet
0 -246 m 1,0,-1
 0 2424 l 1,1,-1
 215 2424 l 1,2,-1
 215 -246 l 1,3,-1
 0 -246 l 1,0,-1
EndSplineSet
EndChar

StartChar: leftthreeeighthsblock
Encoding: 9613 9613 681
Width: 354
VWidth: 2424
GlyphClass: 1
Flags: HW
LayerCount: 2
Fore
SplineSet
0 -246 m 1,0,-1
 0 2424 l 1,1,-1
 322 2424 l 1,2,-1
 322 -246 l 1,3,-1
 0 -246 l 1,0,-1
EndSplineSet
EndChar

StartChar: lefthalfblock
Encoding: 9612 9612 682
Width: 461
VWidth: 2424
GlyphClass: 1
Flags: HW
LayerCount: 2
Fore
SplineSet
0 -246 m 1,0,-1
 0 2424 l 1,1,-1
 429 2424 l 1,2,-1
 429 -246 l 1,3,-1
 0 -246 l 1,0,-1
EndSplineSet
EndChar

StartChar: leftfiveeighthsblock
Encoding: 9611 9611 683
Width: 570
VWidth: 2424
GlyphClass: 1
Flags: HW
LayerCount: 2
Fore
SplineSet
0 -246 m 1,0,-1
 0 2424 l 1,1,-1
 538 2424 l 1,2,-1
 538 -246 l 1,3,-1
 0 -246 l 1,0,-1
EndSplineSet
EndChar

StartChar: leftthreequartersblock
Encoding: 9610 9610 684
Width: 677
VWidth: 2424
GlyphClass: 1
Flags: HW
LayerCount: 2
Fore
SplineSet
0 -246 m 1,0,-1
 0 2424 l 1,1,-1
 645 2424 l 1,2,-1
 645 -246 l 1,3,-1
 0 -246 l 1,0,-1
EndSplineSet
EndChar

StartChar: leftseveneighthsblock
Encoding: 9609 9609 685
Width: 784
VWidth: 2424
GlyphClass: 1
Flags: HW
LayerCount: 2
Fore
SplineSet
0 -246 m 1,0,-1
 0 2424 l 1,1,-1
 752 2424 l 1,2,-1
 752 -246 l 1,3,-1
 0 -246 l 1,0,-1
EndSplineSet
EndChar

StartChar: righthalfblock
Encoding: 9616 9616 686
Width: 889
VWidth: 2424
GlyphClass: 1
Flags: HW
LayerCount: 2
Fore
SplineSet
32 -246 m 1,0,-1
 32 2424 l 1,1,-1
 461 2424 l 1,2,-1
 461 -246 l 1,3,-1
 32 -246 l 1,0,-1
EndSplineSet
EndChar

StartChar: righteighthblock
Encoding: 9621 9621 687
Width: 889
VWidth: 2424
GlyphClass: 1
Flags: HW
LayerCount: 2
Fore
SplineSet
32 -246 m 1,0,-1
 32 2424 l 1,1,-1
 139 2424 l 1,2,-1
 139 -246 l 1,3,-1
 32 -246 l 1,0,-1
EndSplineSet
EndChar

StartChar: dnleftquadrant
Encoding: 9622 9622 688
Width: 345
VWidth: 1699
GlyphClass: 1
Flags: HW
LayerCount: 2
Fore
SplineSet
0 -246 m 1,0,-1
 0 727 l 1,1,-1
 313 727 l 1,2,-1
 313 -246 l 1,3,-1
 0 -246 l 1,0,-1
EndSplineSet
EndChar

StartChar: dnrightquadrant
Encoding: 9623 9623 689
Width: 657
VWidth: 1699
GlyphClass: 1
Flags: HW
LayerCount: 2
Fore
SplineSet
32 -246 m 1,0,-1
 32 727 l 1,1,-1
 345 727 l 1,2,-1
 345 -246 l 1,3,-1
 32 -246 l 1,0,-1
EndSplineSet
EndChar

StartChar: upleftquadrant
Encoding: 9624 9624 690
Width: 578
VWidth: 2424
GlyphClass: 1
Flags: HW
LayerCount: 2
Fore
SplineSet
0 727 m 1,0,-1
 0 2424 l 1,1,-1
 546 2424 l 1,2,-1
 546 727 l 1,3,-1
 0 727 l 1,0,-1
EndSplineSet
EndChar

StartChar: upleftdnleftdnrightquadrant
Encoding: 9625 9625 691
Width: 822
VWidth: 2424
GlyphClass: 1
Flags: HW
LayerCount: 2
Fore
SplineSet
-34 -246 m 1,0,-1
 -34 2424 l 1,1,-1
 395 2424 l 1,2,-1
 395 1089 l 1,3,-1
 824 1089 l 1,4,-1
 824 -246 l 1,5,-1
 -34 -246 l 1,0,-1
EndSplineSet
EndChar

StartChar: upleftdnrightquadrant
Encoding: 9626 9626 692
Width: 822
VWidth: 2424
GlyphClass: 1
Flags: HW
LayerCount: 2
Fore
SplineSet
395 1089 m 1,0,-1
 824 1089 l 1,1,-1
 824 -246 l 1,2,-1
 395 -246 l 1,3,-1
 395 1089 l 1,0,-1
395 1089 m 1,4,-1
 -34 1089 l 1,5,-1
 -34 2424 l 1,6,-1
 395 2424 l 1,7,-1
 395 1089 l 1,4,-1
EndSplineSet
EndChar

StartChar: upleftuprightdnleftquadrant
Encoding: 9627 9627 693
Width: 822
VWidth: 2424
GlyphClass: 1
Flags: HW
LayerCount: 2
Fore
SplineSet
-34 -246 m 1,0,-1
 -34 2424 l 1,1,-1
 824 2424 l 1,2,-1
 824 1089 l 1,3,-1
 395 1089 l 1,4,-1
 395 -246 l 1,5,-1
 -34 -246 l 1,0,-1
EndSplineSet
EndChar

StartChar: upleftuprightdnrightquadrant
Encoding: 9628 9628 694
Width: 822
VWidth: 2424
GlyphClass: 1
Flags: HW
LayerCount: 2
Fore
SplineSet
395 -246 m 1,0,-1
 395 1089 l 1,1,-1
 -34 1089 l 1,2,-1
 -34 2424 l 1,3,-1
 824 2424 l 1,4,-1
 824 -246 l 1,5,-1
 395 -246 l 1,0,-1
EndSplineSet
EndChar

StartChar: uprightquadrant
Encoding: 9629 9629 695
Width: 1122
VWidth: 2424
GlyphClass: 1
Flags: HW
LayerCount: 2
Fore
SplineSet
32 727 m 1,0,-1
 32 2424 l 1,1,-1
 578 2424 l 1,2,-1
 578 727 l 1,3,-1
 32 727 l 1,0,-1
EndSplineSet
EndChar

StartChar: uprightdnleftquadrant
Encoding: 9630 9630 696
Width: 822
VWidth: 2424
GlyphClass: 1
Flags: HW
LayerCount: 2
Fore
SplineSet
-34 -246 m 1,0,-1
 -34 1089 l 1,1,-1
 395 1089 l 1,2,-1
 395 -246 l 1,3,-1
 -34 -246 l 1,0,-1
395 1089 m 1,4,-1
 395 2424 l 1,5,-1
 824 2424 l 1,6,-1
 824 1089 l 1,7,-1
 395 1089 l 1,4,-1
EndSplineSet
EndChar

StartChar: uprightdnleftdnrightquadrant
Encoding: 9631 9631 697
Width: 822
VWidth: 2424
GlyphClass: 1
Flags: HW
LayerCount: 2
Fore
SplineSet
-34 -246 m 1,0,-1
 -34 1089 l 1,1,-1
 395 1089 l 1,2,-1
 395 2424 l 1,3,-1
 824 2424 l 1,4,-1
 824 -246 l 1,5,-1
 -34 -246 l 1,0,-1
EndSplineSet
EndChar

StartChar: lightshade
Encoding: 9617 9617 698
Width: 852
VWidth: 2413
GlyphClass: 1
Flags: HW
LayerCount: 2
Fore
SplineSet
5 -246 m 1
 5 -126 l 1
 113 -126 l 1
 113 -246 l 1
 5 -246 l 1
293 -246 m 1
 293 -126 l 1
 400 -126 l 1
 400 -246 l 1
 293 -246 l 1
584 -246 m 1
 584 -126 l 1
 690 -126 l 1
 690 -246 l 1
 584 -246 l 1
150 -53 m 1
 150 65 l 1
 256 65 l 1
 256 -53 l 1
 150 -53 l 1
439 -53 m 1
 439 65 l 1
 547 65 l 1
 547 -53 l 1
 439 -53 l 1
726 -53 m 1
 726 65 l 1
 834 65 l 1
 834 -53 l 1
 726 -53 l 1
5 139 m 1
 5 258 l 1
 113 258 l 1
 113 139 l 1
 5 139 l 1
293 139 m 1
 293 258 l 1
 400 258 l 1
 400 139 l 1
 293 139 l 1
584 139 m 1
 584 258 l 1
 690 258 l 1
 690 139 l 1
 584 139 l 1
726 332 m 1
 726 451 l 1
 834 451 l 1
 834 332 l 1
 726 332 l 1
439 332 m 1
 439 451 l 1
 547 451 l 1
 547 332 l 1
 439 332 l 1
150 332 m 1
 150 451 l 1
 256 451 l 1
 256 332 l 1
 150 332 l 1
5 525 m 1
 5 644 l 1
 113 644 l 1
 113 525 l 1
 5 525 l 1
293 525 m 1
 293 644 l 1
 400 644 l 1
 400 525 l 1
 293 525 l 1
584 525 m 1
 584 644 l 1
 690 644 l 1
 690 525 l 1
 584 525 l 1
150 718 m 1
 150 837 l 1
 256 837 l 1
 256 718 l 1
 150 718 l 1
439 718 m 1
 439 837 l 1
 547 837 l 1
 547 718 l 1
 439 718 l 1
726 718 m 1
 726 837 l 1
 834 837 l 1
 834 718 l 1
 726 718 l 1
5 910 m 1
 5 1029 l 1
 113 1029 l 1
 113 910 l 1
 5 910 l 1
293 910 m 1
 293 1029 l 1
 400 1029 l 1
 400 910 l 1
 293 910 l 1
584 910 m 1
 584 1029 l 1
 690 1029 l 1
 690 910 l 1
 584 910 l 1
150 1102 m 1
 150 1222 l 1
 256 1222 l 1
 256 1102 l 1
 150 1102 l 1
439 1102 m 1
 439 1222 l 1
 547 1222 l 1
 547 1102 l 1
 439 1102 l 1
726 1102 m 1
 726 1222 l 1
 834 1222 l 1
 834 1102 l 1
 726 1102 l 1
5 1295 m 1
 5 1415 l 1
 113 1415 l 1
 113 1295 l 1
 5 1295 l 1
293 1295 m 1
 293 1415 l 1
 400 1415 l 1
 400 1295 l 1
 293 1295 l 1
584 1295 m 1
 584 1415 l 1
 690 1415 l 1
 690 1295 l 1
 584 1295 l 1
150 1488 m 1
 150 1608 l 1
 256 1608 l 1
 256 1488 l 1
 150 1488 l 1
439 1488 m 1
 439 1608 l 1
 547 1608 l 1
 547 1488 l 1
 439 1488 l 1
726 1488 m 1
 726 1608 l 1
 834 1608 l 1
 834 1488 l 1
 726 1488 l 1
584 1681 m 1
 584 1801 l 1
 690 1801 l 1
 690 1681 l 1
 584 1681 l 1
293 1681 m 1
 293 1801 l 1
 400 1801 l 1
 400 1681 l 1
 293 1681 l 1
5 1681 m 1
 5 1801 l 1
 113 1801 l 1
 113 1681 l 1
 5 1681 l 1
150 1874 m 1
 150 1992 l 1
 256 1992 l 1
 256 1874 l 1
 150 1874 l 1
439 1874 m 1
 439 1992 l 1
 547 1992 l 1
 547 1874 l 1
 439 1874 l 1
726 1874 m 1
 726 1992 l 1
 834 1992 l 1
 834 1874 l 1
 726 1874 l 1
5 2066 m 1
 5 2185 l 1
 113 2185 l 1
 113 2066 l 1
 5 2066 l 1
293 2066 m 1
 293 2185 l 1
 400 2185 l 1
 400 2066 l 1
 293 2066 l 1
584 2066 m 1
 584 2185 l 1
 690 2185 l 1
 690 2066 l 1
 584 2066 l 1
150 2259 m 1
 150 2378 l 1
 256 2378 l 1
 256 2259 l 1
 150 2259 l 1
439 2259 m 1
 439 2378 l 1
 547 2378 l 1
 547 2259 l 1
 439 2259 l 1
726 2259 m 1
 726 2378 l 1
 834 2378 l 1
 834 2259 l 1
 726 2259 l 1
EndSplineSet
EndChar

StartChar: mediumshade
Encoding: 9618 9618 699
Width: 826
VWidth: 2419
GlyphClass: 1
Flags: HW
LayerCount: 2
Fore
SplineSet
-31 -246 m 1
 -31 -81 l 1
 113 -81 l 1
 113 -246 l 1
 -31 -246 l 1
252 -246 m 1
 252 -81 l 1
 400 -81 l 1
 400 -246 l 1
 252 -246 l 1
539 -246 m 1
 539 -81 l 1
 687 -81 l 1
 687 -246 l 1
 539 -246 l 1
109 -54 m 1
 109 110 l 1
 256 110 l 1
 256 -54 l 1
 109 -54 l 1
396 -54 m 1
 396 110 l 1
 543 110 l 1
 543 -54 l 1
 396 -54 l 1
683 -54 m 1
 683 110 l 1
 827 110 l 1
 827 -54 l 1
 683 -54 l 1
-31 137 m 1
 -31 302 l 1
 113 302 l 1
 113 137 l 1
 -31 137 l 1
252 137 m 1
 252 302 l 1
 400 302 l 1
 400 137 l 1
 252 137 l 1
539 137 m 1
 539 302 l 1
 687 302 l 1
 687 137 l 1
 539 137 l 1
683 329 m 1
 683 493 l 1
 827 493 l 1
 827 329 l 1
 683 329 l 1
396 329 m 1
 396 493 l 1
 543 493 l 1
 543 329 l 1
 396 329 l 1
109 329 m 1
 109 493 l 1
 256 493 l 1
 256 329 l 1
 109 329 l 1
-31 520 m 1
 -31 684 l 1
 113 684 l 1
 113 520 l 1
 -31 520 l 1
252 520 m 1
 252 684 l 1
 400 684 l 1
 400 520 l 1
 252 520 l 1
539 520 m 1
 539 684 l 1
 687 684 l 1
 687 520 l 1
 539 520 l 1
109 711 m 1
 109 876 l 1
 256 876 l 1
 256 711 l 1
 109 711 l 1
396 711 m 1
 396 876 l 1
 543 876 l 1
 543 711 l 1
 396 711 l 1
683 711 m 1
 683 876 l 1
 827 876 l 1
 827 711 l 1
 683 711 l 1
-31 903 m 1
 -31 1067 l 1
 113 1067 l 1
 113 903 l 1
 -31 903 l 1
252 903 m 1
 252 1067 l 1
 400 1067 l 1
 400 903 l 1
 252 903 l 1
539 903 m 1
 539 1067 l 1
 687 1067 l 1
 687 903 l 1
 539 903 l 1
109 1094 m 1
 109 1259 l 1
 256 1259 l 1
 256 1094 l 1
 109 1094 l 1
396 1094 m 1
 396 1259 l 1
 543 1259 l 1
 543 1094 l 1
 396 1094 l 1
683 1094 m 1
 683 1259 l 1
 827 1259 l 1
 827 1094 l 1
 683 1094 l 1
-31 1286 m 1
 -31 1451 l 1
 113 1451 l 1
 113 1286 l 1
 -31 1286 l 1
252 1286 m 1
 252 1451 l 1
 400 1451 l 1
 400 1286 l 1
 252 1286 l 1
539 1286 m 1
 539 1451 l 1
 687 1451 l 1
 687 1286 l 1
 539 1286 l 1
109 1477 m 1
 109 1641 l 1
 256 1641 l 1
 256 1477 l 1
 109 1477 l 1
396 1477 m 1
 396 1641 l 1
 543 1641 l 1
 543 1477 l 1
 396 1477 l 1
683 1477 m 1
 683 1641 l 1
 827 1641 l 1
 827 1477 l 1
 683 1477 l 1
539 1668 m 1
 539 1833 l 1
 687 1833 l 1
 687 1668 l 1
 539 1668 l 1
252 1668 m 1
 252 1833 l 1
 400 1833 l 1
 400 1668 l 1
 252 1668 l 1
-31 1668 m 1
 -31 1833 l 1
 113 1833 l 1
 113 1668 l 1
 -31 1668 l 1
109 1860 m 1
 109 2025 l 1
 256 2025 l 1
 256 1860 l 1
 109 1860 l 1
396 1860 m 1
 396 2025 l 1
 543 2025 l 1
 543 1860 l 1
 396 1860 l 1
683 1860 m 1
 683 2025 l 1
 827 2025 l 1
 827 1860 l 1
 683 1860 l 1
-31 2052 m 1
 -31 2216 l 1
 113 2216 l 1
 113 2052 l 1
 -31 2052 l 1
252 2052 m 1
 252 2216 l 1
 400 2216 l 1
 400 2052 l 1
 252 2052 l 1
539 2052 m 1
 539 2216 l 1
 687 2216 l 1
 687 2052 l 1
 539 2052 l 1
109 2243 m 1
 109 2408 l 1
 256 2408 l 1
 256 2243 l 1
 109 2243 l 1
396 2243 m 1
 396 2408 l 1
 543 2408 l 1
 543 2243 l 1
 396 2243 l 1
683 2243 m 1
 683 2408 l 1
 827 2408 l 1
 827 2243 l 1
 683 2243 l 1
EndSplineSet
EndChar

